<?xml version="1.0" encoding="utf-8"?>
<!-- Generator: Adobe Illustrator 25.0.1, SVG Export Plug-In . SVG Version: 6.00 Build 0)  -->
<svg version="1.1" id="Layer_1" xmlns="http://www.w3.org/2000/svg" xmlns:xlink="http://www.w3.org/1999/xlink" x="0px" y="0px"
	 viewBox="0 0 1920 1080" style="enable-background:new 0 0 1920 1080;" xml:space="preserve">
<style type="text/css">
	.st0{fill:#FFFFFF;}
</style>
<image style="overflow:visible;enable-background:new    ;" width="1980" height="1320" xlink:href="C902E5CC.jpeg"  transform="matrix(1 0 0 1 -30 -120)">
</image>
<g>
	<path class="st0" d="M173,927.5c2-7.2,5.3-14,6.7-21.3c1.4-7.2,3.7-14.4,5.1-21.6c1.6-8.5,2.7-17.2,4.1-25.8
		c0.7-4.1,1.6-8.2,2.5-13c-4.2-5-3.9-11.4-3.4-17.8c0.5-6.2,1.4-12.4,1.9-18.6c0.2-2.2,0.2-4.5-0.1-6.7c-0.9-6.5-2.8-12.9-5.5-19.2
		c-0.2-0.5-0.8-0.9-1.6-1.6c-1.6,1.3-3.1,2.5-4.6,3.7c-11.1,8.4-22.9,16-36.4,22c-6.8,3-13.2,6.7-19.9,9.8c-6.3,3-12.9,5.6-19.2,8.6
		c-8.6,4.1-16.8,8.6-24.2,13.9c-1.6,1.2-3.4,2.3-4.6,3.7c-5.1,6.2-11.4,11.8-15.6,18.4c-1,1.6-2.3,2.9-4.4,3.6
		c-2.9-1.4-4-3.3-4.6-5.9c-1.7-6.2-3.9-12.4-6.1-18.6c-2.7-7.4-5.8-14.8-8.4-22.2c-2.5-7.3-4.6-14.6-6.6-22
		c-1.4-5.2-1.2-10.3,0.2-15.6c2.6-9.9,9.2-18.2,17.5-25.8c6.6-6.1,13.6-11.9,21.2-17.4c7.1-5.1,15.2-9.1,24.2-11.8
		c6.8-2.1,13.8-2.8,21.1-1.3c4.5,0.9,8.3,2.3,11.2,5.1c0.6,0.6,1.2,1.1,2,1.8c4.9-1.6,9.6-3.1,14-5.3c4.5-2.2,9.5-4.1,14.6-5.6
		c7.8-2.3,16.2-2.8,24.1-0.9c12.6,3.1,20.9,10.5,21.5,21.4c0.1,1.5-0.1,3-0.2,4.5c-0.7,9.6-1.4,19.1-2,28.7
		c-0.3,5.1,0.4,10.1,2.7,14.8c2.1,0.2,2.2-0.9,2.4-1.7c1.1-6.5,2.1-13.1,3.1-19.6c0.9-5.2,1.7-10.4,2.8-15.6
		c1.4-6.7,2.6-13.4,4.6-20c2.6-8.7,2.5-17.5,4.4-26.2c0.7-3.1,1.3-6.3,2.4-9.4c3.2-8.5,4.9-17.3,6.4-26c1.3-7.1,2.3-14.2,3.5-21.2
		c1.8-10.7,1.6-21.4,1.7-32.1c0-2.8,0-5.7-0.3-8.5c-0.2-2-0.9-4-1.6-6.5c-1.9,0.5-3.3,0.6-4.4,1.1c-3.3,1.3-6.4,2.8-9.7,4.2
		c-8.7,3.7-18,6.1-28,7.1c-5.8,0.6-11.5,0.4-16.9-1.1c-6.2-1.8-12.1-4.3-18-6.6c-1.2-0.5-2.6-1.2-2.3-2.8c1.6-0.1,3.3-0.2,4.9-0.2
		c2.9-0.1,5.2-1,7.5-2.3c1.9-1.1,3.2-2.4,3-4.3c-0.1-0.8,0.1-1.5,0-2.3c-0.8-8.8,4.7-15.5,12.3-21.5c2.9-2.4,6.4-3.5,10.5-3.7
		c16.3-0.7,30.3,2.8,40.7,12.9c0.4,0.5,0.8,1,1.3,1.4c1.6,1.3,3,3.2,6.1,2.6c3.8-0.8,6.3-3.2,6.4-6.1c0.1-2.6-0.1-5.3-0.1-7.9
		c-0.1-3.9-0.1-7.9-0.1-11.8c0-1.3,0-2.7-0.4-3.9c-2.7-10.2-6.8-20-10.6-29.9c-1.6-4.1-4.9-5.7-10.2-6.1
		c-10.6-0.9-21.3-0.9-31.9-0.7c-1,0-2,0-3,0.2c-9.5,1.9-19.2,1.2-28.9,1c-6-0.1-11.7-1-17.3-2.8c-6.6-2.2-13.3-4-19.9-6.2
		c-3.7-1.2-7.2-2.6-9.8-5c-0.7-0.7-1.1-1.5-2-2.8c2.2-0.3,3.8-0.8,5.4-0.8c9.5,0.3,18.7-0.8,27.6-3.4c4.6-1.3,9.6-1.9,14.4-2.8
		c1.2-0.2,2.4-0.4,3.6-0.6c6-1,10.9-3.1,14.7-7c3.8-3.8,8.7-6.6,15.2-8.4c-0.5-2.6-1.1-5.2-1.5-7.8c-0.4-2.4-0.6-4.8-0.9-7.6
		c-3.7,1.1-5.8,3-7.4,5c-4.1,5.1-8.7,10-10.5,16.1c-0.8,2.8-4.1,3.4-6.8,1.5c-2-1.4-3.8-3-5.2-4.7c-7-8.5-9.4-17.7-7.4-27.6
		c0.9-4.5,2-8.9,4.3-13.1c0.9-1.5,1.4-3.1,2-4.6c-1.6-1.1-2.6-0.3-3.6,0.1c-5.4,2.3-10.9,4.5-16.1,7c-8.1,3.8-16.8,6.3-26.1,7.9
		c-4.7,0.8-7.2-0.8-6.5-4.5c0.5-2.6,1.4-5.2,2.3-7.7c2.1-5.4,4.4-10.8,6.5-16.2c1.2-3.3,2.7-6.4,4.9-9.4c1.4-1.9,2.9-3.8,2.9-6.2
		c-2.3-0.5-4,0.5-5.9,0.8c-1.7,0.2-3.3,0.7-5.1,1c-5.3,0.8-10.6,1.9-16,2.4c-11.2,1-21.8,3.3-31.7,7.4c-2.2,0.9-4.6,0.2-5.3-1.7
		c-0.4-1-0.5-2.2-0.3-3.3c0.4-1.9,0.5-3.7-1.4-5.3c-1.5-1.3-1.1-2.8-0.3-4.2c0.3-0.5,0.5-1.1,1-1.5c5.3-5,8-11.2,12.4-16.6
		c1.3-1.6,2.9-3,4.4-4.5c5.2-5,10.2-10.2,15.9-14.9c4.8-4,10.4-7.5,15.7-11.1c2.9-2,5.9-4,9.4-6.3c-1.3-0.5-2-0.9-2.8-1
		c-7.6-1-15.1-2.2-22.7-2.9c-5.4-0.5-10.9-0.3-16.3-0.4c-4.2,0-8.4,0.1-12.6,0.1c-5.8-0.1-11-2.1-16.1-3.9c-1.3-0.5-2.4-1.4-3.3-2.2
		c-1.6-1.5-1.3-3.2,0.8-4.4c1.4-0.8,3-1.4,4.3-2.2c2.3-1.4,5-2.5,6.1-5c-0.9-1.5-2.7-2-4.7-1.9c-1.7,0.1-3.4,0.4-5.1,0.7
		c-3,0.7-5.9,0.5-8.8-0.8c-1.2-2.1-1-4.2,0.5-6.3c5.2-7.3,10.9-14.3,19.1-20c3.1-2.1,6.8-3.7,10.3-5.5c2-1,4.2-1.9,6.1-2.7
		c0.1-1.7-1.4-1.8-2.4-2.1c-8-3-16.2-5.6-24-8.9c-6.1-2.5-11.8-5.5-17.4-8.6c-3.5-2-6.1-4.9-7.6-8.2c-1.4-3-0.3-4.6,3.7-5.6
		c5.4-1.2,10.5-3.4,16.3-3.7c0.6,0,1.2-0.6,2.2-1.1c-1.7-0.8-3.1-1.4-4.5-2.1c-2.3-1.1-4.6-2.2-6.9-3.3c-2.3-1.2-3-3-2.7-4.9
		c0.2-1.8,1.3-3.2,3.8-3.8c3.4-0.7,6.7-1.4,10.1-2c9.2-1.5,18-3.9,26.7-6.8c7-2.3,14.7-3.4,22.3-4c1.5-0.1,2.9-0.1,4.4-0.2
		c0.8-1.5-0.7-2.2-1.6-2.9c-6.1-4.9-12.4-9.7-18.3-14.7c-3.3-2.8-5.9-6-8.8-9.1s-6-6-8.6-9.2c-2.9-3.4-6.9-5.9-11-8.3
		c-1.6-0.9-3.2-1.8-4.5-2.9c-2.1-1.8-1.1-4.1,2-4.9c1.4-0.4,2.9-0.5,4.3-0.5c8.2-0.2,16.3,0.7,24.4,1.6c4.9,0.5,9.8,1.1,14.7,1.9
		c4.8,0.8,9.5,1.9,15,3.1c-2.2-4.8-6.2-8.1-8.9-12c-2.8-3.9-6.6-7.4-8.3-12.2c1-0.5,2.1-1.3,3.3-1.7c6.7-1.8,13.7-1.3,20.6-0.9
		c3.9,0.2,7.9,0.6,11.8,0.8c8,0.3,15.6,1.9,23.1,4.1c0.9,0.3,1.8,0.5,2.8,0.7c0.2,0.1,0.5-0.1,1.1-0.1c0.1-2.5,0.1-5.1,0.4-7.7
		c0.6-5.2,0.9-10.5,2-15.7c1.1-4.8,2.9-9.5,4.7-14.2c0.5-1.3,2.3-2.3,4.1-4.1c0.1-0.7,0.1-2.2,0.4-3.6c0.3-1.8,3-2.9,5.1-1.9
		c1.6,0.8,3.2,1.8,4.2,3.1c4,5.4,10.9,8.2,17.7,10.7c10.5,3.8,20.6,8.1,30.4,12.9c0.1,0.1,0.4,0,0.7-0.1c0.3-0.3,0.8-0.5,0.9-0.8
		c1.2-4.4,2.2-8.9,3.5-13.2c2.9-10.1,5.9-20.2,9-30.2c0.8-2.6,1.8-5.1,3.2-7.5c1-1.7,2.6-3.1,4.3-4.4c1.5-1.2,4.1-0.6,4.9,1
		c0.6,1.2,0.8,2.5,0.9,3.8c0.3,1.9,0.3,3.9,0.6,5.9c2.1-0.4,1.6-1.3,1.6-1.9c0.3-3.6,0.4-7.1,0.9-10.7c0.3-2.5,1.7-4.7,4.5-6.3
		c2.1-1.2,4.6-0.7,5.4,1.1c0.7,1.6,1.5,3.2,1.7,4.9c0.4,4.3,3.3,7.5,7.2,10.2c5.9,4.1,10.6,8.9,15.1,13.8c0.3,0.3,0.8,0.5,1.5,0.9
		c0.7-0.7,1.6-1.3,2-2.1c1.5-3,2.9-6,4.2-9c2.6-6.2,6.8-11.6,13.1-16.1c2.4-1.7,5.2-2.9,8.4-3.5c5-1,7.6,0.2,8.5,4.1
		c1.3,5.7,4.1,10.7,8.3,15.5c2.6,2.9,4,6.3,6.1,9.7c1.2,0.3,1.6-0.8,2.4-1.4c2.6-2.3,5.5-4.4,7.8-6.8c3.1-3.4,5.8-7,8.5-10.6
		s5-7.3,7.6-10.9c3.9-5.4,10.5-11.4,16.1-14.6c1.8,0.9,2.2,2.3,2.2,3.8c0,2.8,0.3,5.7-0.2,8.4c-1.2,6.6-1.2,13.1,0,19.7
		c0.2,1.4,0.3,2.8,0.5,4.8c5.8-3,11.1-5.7,16.3-8.5c2.9-1.5,5.7-2.9,9.4-3c3-0.1,4.2,0.9,3.7,3c-0.1,0.4-0.2,0.7-0.4,1.1
		c-3.5,8.4-4.5,16.9-3.8,25.6c0.1,2.1,0.2,4.1,0.1,6.2c-0.1,2.8-0.5,5.6-2,8.3c-0.5,0.8-0.6,1.7-1,3.2c6.5-2.4,11.9-4.8,16.8-8.1
		c5.8-3.8,11.7-7.5,17.9-11c3.7-2.1,7.9-3.8,12.5-4.8c3.7-0.8,7.3-2.2,11.5-3.4c0.2,1.3,0.7,2.2,0.5,3c-1.2,4.4-2.4,8.8-4.1,13.2
		c-1,2.5-2.6,4.8-4.2,7.2c-1.3,1.8-2.7,3.6-4.4,5.2c-4.6,4.4-6.5,9.6-8.9,14.7c-0.1,0.3,0.1,0.7,0.3,1.4c7-2.2,12.5-5.8,17.5-9.9
		c8.2-6.8,18.1-11,30.5-11.2c5.7-0.1,11.4,0.1,17.1,0.3c3.1,0.1,4.2,1.2,4.7,3.6c0.6,3-0.8,5.5-2.8,8c-1.3,1.6-2.9,3.1-3.6,4.9
		c-3.2,7.5-9.8,12.9-17.8,17.6c-5.7,3.3-11.5,6.5-17.4,9.7c-11.4,6.1-21.5,13.2-30,21.7c-0.4,0.4-0.7,0.9-1.4,2
		c4.1-1,7.5-1.9,11-2.8c3.5-0.9,7.1-1.7,10.6-2.5c3.5-0.8,7.1-1.7,10.6-2.5s7.2-1.4,10.8-2s7.3-1.1,11-1.5c3.9-0.4,7.9-0.6,11.8-0.9
		c3.7-0.3,7.4-0.7,11.1-0.8c3.7-0.1,7.4-0.1,11.1,0.1c3.7,0.1,7.4,0.4,11.1,0.6c3.7,0.2,7.4,0.2,11.1,0.5c3.6,0.3,7.5-0.7,10.9,1.9
		c-1.9,4.1-6.6,6.6-11.1,10c2,0.5,3.2,0.9,4.6,1.1c5,0.6,9.5,2.2,13.8,4c1.7,0.7,3.7,1.3,3.5,3.2c-0.2,1.8-1.8,2.5-3.9,2.9
		c-1.2,0.2-2.3,0.6-4.8,1.1c2.8,0.6,4.3,0.9,5.9,1.2c6.5,1,11.8,3.7,16.8,6.8c1.6,1,3.3,2.4,2.5,4.8c-1.3-0.1-2.8,0-3.9-0.5
		c-8.2-3.8-17.2-3.2-26-2.4c-6.8,0.6-12.3,3.7-18.1,6.2c-2.8,1.2-5,2.9-7.2,4.7c-6,5-12,10-18.6,14.5c-4.9,3.4-10.4,6.4-16.7,8.4
		c-1.1,0.3-2.1,0.8-3.1,1.1c0.1,1.4,1.4,1.2,2.2,1.2c12-0.1,23.5-2,34.7-5.4c4.3-1.3,8.8-2.6,13.4-3.3c3.5-0.5,7.5-0.4,11,0.1
		c7.6,1.2,15.2,1.7,22.9,1.2c2-0.1,4-0.4,5.3,1.6c-0.4,0.5-0.9,1.1-1.4,1.7c-1.6,1.7-3.7,3.2-4.7,5c-2.3,4.5-6.7,7.3-11.8,9.8
		c-6.7,3.3-13.3,6.5-20.7,8.8c-3.9,1.2-7.4,2.9-10.4,5.2c-4.5,3.6-10.8,5.2-16.4,7.6c-1.2,0.5-2.5,1-4.3,1.7
		c8.2,5.3,16.9,9.6,23.4,15.9c6.5,6.2,11,13.2,16.2,20.5c4.7,1.4,9.8,2.4,15.4,2.1c2.2-0.1,2.2,0,5,2c-1.9,5.2-8.1,7.8-12.8,11.5
		c1.3,4.2,2.3,8.5,1.5,12.8c-0.1,0.7-0.2,1.5-0.3,2.2c-0.4,1.7-1.5,3-2.8,3c-1.8,0-2.3-1.2-3.2-2.1c-4.4-4.7-10.5-7.9-16.7-11
		c-1-0.5-2.3-0.6-3.5-0.7c-4.7-0.2-9.4-0.4-14.1-0.5c-0.5,0-1-0.1-1.5,0c-6.7,1-13.5,2-20,2.9c0,0.8-0.2,1.2,0,1.5
		c4.5,5.4,9.5,10.5,15.8,14.9c4.8,3.4,10.3,5.8,16.1,8c9.2,3.5,17,8.4,24.1,13.9c2.8,2.2,4.9,4.6,5.3,7.8c-0.9,0.4-1.5,0.9-2,0.9
		c-7.7,0.1-15.4,0.3-23,0c-7.3-0.3-13.8-2.5-19.8-5.8c-7.6-4.2-14.9-8.6-21.5-13.8c-3.9-3.1-9.1-4.4-14.5-5.3
		c-0.6-0.1-1.4,0.2-2.4,0.3c2,2.3,3.7,4.6,5.7,6.7c5.1,5.4,8.2,11.5,12.3,17.3c1.4,2,2.6,4.1,3.8,6.1c5.1,8.6,9.6,17.3,10.4,26.9
		c0.3,3.4,1.3,6.7,1.9,10c0.4,2.3-0.9,3.6-4,3.8c-3,0.2-5.9,0.4-8.9,0.5c-4.5,0.1-8.8-0.6-12.5-2.5c-2,0.9-1,2.1-1,3.1
		c-0.1,3.2,0,6.4-0.2,9.6c-0.1,1.9-0.5,3.8-3.5,4.6c-0.6-0.1-1.5-0.1-2-0.4c-5.6-2.8-11.9-4.6-18-6.6c-4.7-1.5-9.2-3.8-13.3-6.2
		c-4.1-2.5-6.8-5.9-8.5-9.8c-1.5-3.6-2.6-7.2-4-10.8c-1.9-4.9-3.9-9.7-5.9-14.5c-1.7-3.9-3.6-7.8-5.4-11.9c-4.4-1.5-8.9-3-13.8-4.6
		c0,0.8-0.2,1.3,0,1.7c2.5,4.4,3,9.1,2.8,13.8c-0.3,5.6,0.2,11.2,1.5,16.8c0.7,2.8,0.7,5.6,1.5,8.4c1,3.3,2.5,6.5,3.7,9.7
		c2,5.4,4.7,10.8,5.7,16.3c1.6,8.8,0.8,17.6-4,26c-1.1,2-2.5,3.6-5.4,4.5c-1.8-0.9-2.2-2.4-2.5-3.8c-1.5-7-6.9-11.9-13.9-16.1
		c-0.3-0.2-0.9-0.2-1.4-0.3c-1.5,0.5-1.2,1.5-1.2,2.4c-0.1,2.1,0,4.1,0,6.2c-0.1,7.1-2.3,13.7-8,19.5c-2.1,2.1-3.7,4.5-5.6,6.6
		c-0.8,0.9-2,1.5-3.6,2.6c-0.8-1.4-1.8-2.4-1.7-3.3c0.6-5.8-2.1-11.1-4.7-16.4c-2.3-4.8-4.6-9.5-6.6-14.4c-1.3-3.1-3.1-5.9-6.2-8.2
		c-1.7-0.1-1.9,1-2.5,1.7c-2,2.8-4,5.6-5.8,8.5c-2,3.2-3.9,6.5-5.5,9.8c-2.6,5.3-5.4,10.5-9.4,15.3c-1.3,1.6-2.9,3.1-4.7,4.3
		c-2.4,1.6-4.9,3.1-6.8,5.1c-0.5,0.5-1.7,0.9-2.6,0.8c-1.5-0.1-1.8-1.1-2-2c-0.5-2.2-1.1-4.5-1.3-6.7c-1-8.9-4.2-17.3-9.8-25.7
		c-3.5,3.9-7.5,7.3-8.5,12.2c-2.2,11.1-4.6,22.3-7,33.4c-2.1,9.8-4.2,19.7-8.2,29.2c-1.8,4.3-4.1,8.5-5,13c-0.1,0.7-0.2,1.5-0.4,2.5
		c0.8,0.3,1.5,0.7,2.4,1c9.3,3.1,9.6,8.4,5.5,13.8c-2.4,3.2-5.9,5.6-9.9,7.5c-3.5,1.6-5.1,3.7-5.6,6.8c-1.6,9.9-5.8,19.4-8,29.2
		c-2.5,10.9-5.6,21.8-6.4,32.9c-0.3,3.6-1,7.1-1.4,10.7c-0.1,0.7,0,1.3,1,2.2c1.4-1.9,2.9-3.7,4.3-5.7c6.4-9.1,12.6-18.3,19-27.4
		c2.2-3.1,4.9-6.1,7.3-9.1c1.1-1.5,2.3-2.9,3.2-4.4c3-4.6,3.5-9.3,1.8-14.3c-0.8-2.3-1.5-4.8-1.6-7.2c-0.2-9.7,8.4-15.1,21.2-14
		c3.4,0.3,6.7,1.2,10,2c6.1,1.5,12.2,3,18.3,4.7c4.7,1.3,9.6,1.9,14.6,1.7c12.8-0.3,25,1.7,37.4,3.9c9,1.6,17.5,4.1,26,6.6
		c9,2.6,17.5,6.1,23.9,12c1.5,1.4,3.7,2.5,5.6,3.7c3.9,2.4,5.2,3.8,7.7,8.2c-2.4,0.8-4.4-0.3-6.3-0.9c-10.7-3.4-21.7-4.9-33.4-3.9
		c-16.5,1.5-33.2,0.6-49.8,0.6c-8.9,0-17.8-1.2-26.6-1.9c-10.3-0.8-20.2,0.6-30.1,2.5c-4.4,0.8-7.1,3.2-9.2,6.1
		c-4.8,6.6-9.5,13.2-14.2,19.8c-1.3,1.8-2.7,3.6-4,5.4c-3.1,4.3-6.3,8.5-9.3,12.8c-4.3,6.1-8.7,12.2-12.8,18.4
		c-2.3,3.5-4.3,7.2-6.1,10.9c-4.6,9.9-9.5,19.7-11.6,30.2c-1.6,8.3-4.7,16.5-6.8,24.8c-1.2,5-1.7,10.1-2.8,15.1
		c-3,14.5-4.9,29.1-6.9,43.7c-0.7,5-2,10-3,15c-1.9,9.5-3.9,18.9-5.8,28.4c-1.8,8.7-3.5,17.5-5.2,26.2c-0.6,3-0.7,6-1.3,9
		c-2,8.9-4.2,17.8-6.4,26.6c-0.6,2.2-1.2,4.4-1.9,6.6c-1.5,0-3,0-4.5,0c0.7-3.7,1.3-7.4,2.1-11.1c1.7-7.8,3.9-15.5,5.1-23.3
		c1.3-9.2,2.6-18.3,4.9-27.3c2.2-8.3,3.7-16.7,5.3-25c1.9-9.8,4-19.7,5.3-29.6c1.9-14,4.6-28,7.3-41.9c1.5-7.6,3.6-15.2,5-22.8
		c2.9-16.5,9.2-32.3,16.8-47.8c1.5-3,3-6,4.9-8.8c5.5-8,11-15.9,16.8-23.8c6.7-9.2,13.6-18.3,20.5-27.4c3.1-4.1,6.2-8.1,10.6-11.5
		c0.8-0.6,1-1.7,1.5-2.5c1.6-0.1,3.3-0.2,4.9-0.3c2.3-0.6,4.6-1.4,7-1.8c8.5-1.5,17.1-2,25.8-1.5c16,0.9,32,1.5,48.1,1.6
		c2.5,0,5,0.1,7.4,0c2.2-0.1,4.5,0.3,8.1-0.7c-7.5-0.8-13.5-1.7-19.7-1.5c-11.5,0.3-22.5-1.6-33.3-4.4c-9.2-2.4-18.8-3.1-28.5-1.3
		c-6.2,1.2-11.3,3.7-15,7.7c-0.4,0.4,0.1,1.3,0.2,1.9c-1.7,0.1-3.4,0.2-5,0.2c-0.8,0-1.7,0.1-3.2,0.2c3-4.6,3.1-8.7-0.9-12.9
		c-0.4,7.6-0.2,7.7-4.8,14.4c-4.3,6.3-9.3,12.4-13.7,18.7c-8,11.5-15.7,23-23.5,34.5c-2.8,4.2-5.4,8.5-8.1,12.6
		c-0.7,1-1.6,2-3.9,1.1c0.6-4.1,1.3-8.4,2-12.7c1.9-11.4,4.3-22.7,5.2-34.1c0.2-2.6,1-5.2,1.6-7.8c0.9-3.9,2-7.7,3-11.6
		c0.7-2.8,1.4-5.5,2.2-8.3c2-6.8,4.2-13.5,6.2-20.3c0.3-1,0-2.1,0-3.5c-5.6,1.2-10.7,2.4-16.2,3.6c-0.3,2.3-0.9,4.3-0.9,6.3
		c0.1,6,0.6,12,0.8,18c0.1,4.7,0.2,9.4-0.2,14.1c-0.5,6.2-1.4,12.3-2.2,18.5c-0.8,6.3-2.1,12.7-2.6,19c-0.6,7.7-3.1,15.2-4.4,22.8
		c-0.1,0.5-0.3,1.1-0.7,1.6c-0.4,0.4-1.1,0.9-1.6,0.9c-0.6,0-1.4-0.5-1.6-0.9c-1.5-2.9-1.1-5.9-0.4-8.9c0.6-2.6,1.7-5.1,2.1-7.7
		c0.9-5,1.4-10.1,2.1-15.1c1.2-8.8,2.9-17.5,3.4-26.3c0.6-10.9,0.2-21.8,0.3-32.7c0-2.6,0-5.2,0-7.7c-2.7-0.5-4.4-0.2-5.4,1
		c1,4.3,2.6,8.4,2.7,12.5c0.4,14.7,0.4,29.3-2.8,43.8c-1.2,5.4-2.1,10.8-3.3,16.2c-1.3,5.9-2.6,11.8-4.2,17.7
		c-2.5,9.2-5.1,18.4-5.6,27.8c-0.1,2.8-0.7,5.6-1.4,8.4c-2,8.1-4.3,16.2-6.1,24.3c-1.1,5.2-1.6,10.4-2.4,15.7
		c-1,6.9-1.8,13.8-3.2,20.7c-2,9.8-4.4,19.6-6.5,29.4c-0.7,3.3-0.8,6.8-1.4,10.1c-1.8,9.5-3.7,19-5.6,28.4c-0.3,1.7-0.6,3.3-0.8,5
		c-0.8,10.9-2.9,21.7-5.7,32.3c-2.9,11.2-5.6,22.5-9.5,33.6C177,927.5,175,927.5,173,927.5z M407.6,446.1c0-0.3,0-0.6-0.1-0.8
		C407.6,445.5,407.6,445.8,407.6,446.1c0.4,0.1,0.9,0.3,1.3,0.5c0-0.2,0-0.5-0.1-0.5C408.5,446.1,408.1,446.1,407.6,446.1z
		 M251.3,118.9c0-0.3,0-0.6,0-0.9c0-0.2-0.2-0.3-0.4-0.4c0.1,0.2,0.2,0.3,0.3,0.4C251.3,118.3,251.2,118.6,251.3,118.9
		c1.4,0.4,1.8,1.2,1.4,2.3c1.4,0.5,1.4,1.4,1.3,2.3c3.8,4.5,4.5,6.2,3.8,10.4c-2.9-1-3.2-3.3-4.5-5c-1.4-1.8-2.6-3.6-3.9-5.4
		c-1.2-1.8-2.4-3.7-3.6-5.6c-1.1-1.7-2.1-3.4-3.1-5.1c-1.1-1.9-2.3-3.8-3.2-5.7c-0.9-1.9-1.5-4-2.5-5.9c-0.9-1.8,0.1-4-2.2-6.2
		c-2,6.4-4.6,12.1-5.8,18c-1.4,7.4-3.4,14.8-5.7,22.1c-2.1,6.6-1.9,13,0.5,19.5c1.9,5.2,4.1,10.5,5.3,15.8c1.9,8,7,14.8,13.1,21.2
		c0.4,0.4,1.1,0.6,2.2,1.2c-0.5-2.4-0.9-4.4-1.2-6.4c-0.1-0.7,0-1.5,1.9-1.3c1.6,3.4,3.1,6.9,5.1,10.3c3.8,6.3,4.5,6.8,8.7,9
		c-0.5-1.6-0.8-2.9-1.4-4c-3.2-6-4.6-12.3-4.7-18.7c-0.1-4.7-0.2-9.4,1.7-13.9c0.4-0.9,1.2-1.6,3.5-0.9c-1,11.5-1.6,23.3,4.8,34.4
		c1.9,0.1,2.8-0.4,2.9-1.5c0.1-0.5-0.1-1.1-0.4-1.6c-2.5-5.1-2.1-10.4-1-15.6c2.2-10.8,5.4-21.4,2.5-32.4c0.9-6-1.3-11.5-4.4-16.9
		c-0.3-0.5-0.4-1.1-0.7-1.6c-1.7-2.9-3.5-5.8-5.3-8.7c-1.1,0.3-1.8,0.5-2.4,0.6c0.8-1.1,0-1.7-1.1-2.3
		C252.1,120.6,250.9,120.1,251.3,118.9z M286.6,189.6c0.1,0.1,0.2,0.3,0.1,0.4c0,0.1-0.1,0.2-0.2,0.3c0.1-0.2,0.1-0.5,0.2-0.7
		c-0.8-0.7-1.7-1-2.9-0.7c0.1-0.5,0.1-1,0.3-1.5c0.2-0.8-0.1-1.3-1-1.6c0-0.4,0.2-0.8,0-1.1c-2.9-4.1-5.8-8.2-8.8-12.3
		c-0.2-0.2-0.8-0.3-1.6-0.6c-2,5.4-3,10.6,1,15.7c1.8,2.3,3.3,4.6,4,7.2c0.2,0.7,0.6,1.5,1.2,2c1.2,1.1,2.5,0.9,3.8,0
		c0.6-4.2-4.4-7.5-3.7-12c1.6,0.4,2.9,0.7,4.2,1c0.2,1,0.4,2.1,0.6,3.1C284.8,189.1,285.7,189.4,286.6,189.6z M221.6,475.7
		c3.3-3.7,8.4-5.1,13.8-5.5c4.3-0.3,8.7-0.1,13.5-0.1c-0.1-6.5-1.4-12.5-4-19.2c-1.1,1-1.8,1.5-2.3,2c-3.3,3-6.7,6-9.9,9
		c-3.9,3.6-7.6,7.4-11.4,11.1C220.5,474,221.1,474.9,221.6,475.7c-0.4-0.2-0.7-0.5-1.1-0.7c-0.2-0.1-0.6,0.3-0.9,0.4
		c0.2,0,0.5,0,0.7,0C220.7,475.6,221.1,475.7,221.6,475.7z M245.7,592.1c-12.5,0.3-24.6,1.8-36.1,5.7c-11.4,3.8-22.9,7.4-34.9,11.3
		c2.1,0.3,3.8,0.9,5.4,0.8c9.9-0.6,19.8-1.7,28.5-5.6c10.8-4.8,22.2-8.2,34.1-10.9c1.1-0.2,1.9-1,2.9-1.4c1.8,0,3.6,0,5.4,0
		c-0.9-0.7-1.8-0.8-2.7-0.7C247.4,591.4,246.6,591.8,245.7,592.1z M445.3,365.3c-0.3-0.3-0.7-0.6-1-0.9c-0.1,0.1-0.3,0.2-0.4,0.4
		C444.3,365,444.8,365.2,445.3,365.3c0.2,0.5,0.2,1.1,0.7,1.5c10.9,8.8,18,19.2,24,30.2c2.8,5.2,5.2,10.5,5.5,16.3
		c0.3,5.8,1.1,11.6,1.7,17.4c0.2,1.9,0,3.8,1.8,5.4c6.4,2.7,13.2,3.6,20.5,1.8c-0.2-1.9-0.4-3.6-0.5-5.3c-0.6-8.1-2.6-16-7.4-23.4
		c-2.7-4.2-5.1-8.5-7.6-12.8c-4.3-7.4-9.5-14.4-16-20.8c-3.6-3.6-7.6-6.3-13.4-7.5c-2.3-0.5-4.4-1.6-6.7-2.4
		C447.2,365.5,446.2,365.5,445.3,365.3z M528.6,381.1c0.4,0.3,0.8,0.5,1.3,0.8c0.1-0.1,0.2-0.3,0.3-0.4c-0.5-0.1-1.1-0.1-1.7-0.2
		c0.1-1.5-1.6-1.8-2.8-2.2c-7.7-3-15.2-6.2-22.1-10.3c-4.9-2.9-10-5.6-15.4-7.8c-8.9-3.7-18.1-7-27.1-10.5c-2.2-0.9-4.4-1.7-6.5-2.6
		c-8.3-3.8-16-8.1-24.6-11.5c-4.8-1.9-9.2-4.3-13.8-6.6c-1.8-0.9-2.7-0.5-3.3,1.1c2,1.5,4.1,3,6.3,4.5c2.4,1.7,4.7,3.3,7.1,5
		c2,1.4,4.7,2.5,5.7,5.6c-4.6-1.2-7.4-3.3-10.3-5.2c-3-2-5.7-4.5-11-6.5c2.5,2.9,4,4.7,5.6,6.5c0.8,0.9,1.7,1.8,2.5,2.8
		c3.6,4.2,8.4,7.3,13.6,10.3c5.4,3.1,11.6,5,17.4,7.5c4.2,1.9,8.6,2.8,13.2,3.6c5.8,1,11.6,2.1,17.3,3.2c4.9,1,9.1,2.8,12.8,5.5
		c1.8,1.3,3.6,2.6,5.4,3.9c8.1,5.9,16.6,11.2,27.5,13.9c4.3,1.1,9.7,1.3,15,0.1c-0.5-0.5-0.8-1-1.3-1.3c-6.9-3.3-14.1-6.3-21.8-8.3
		c-8.3-2.2-15.6-5.6-21.1-10.9c-0.6-0.6-1-1.3,0-2c0.2,0,0.5-0.1,0.7-0.1c1,0.5,2.1,1,3,1.5C508.6,375.8,518.1,379.3,528.6,381.1z
		 M353.4,369c3.8-0.3,7.2-1.1,10.1-3.2c1-0.7,2.7-0.9,4-1.5c1.5-0.6,3-1.2,4.4-2c4.7-2.7,8-6.8,14.1-8c0.2,0,0.4-0.2,0.6-0.3
		c3.6-3.3,7.3-6.6,10.6-10c2-2.1,3.7-4.4,5.3-6.7c1.3-1.8,2.1-3.8,3.4-5.6c2-2.9,3.2-5.9,3.8-9.1c0.3-1.6,0.6-3.4,1.6-4.9
		c2.3-3.4,4.7-6.6,3.9-10.6c-0.1-0.5,0.3-1.1,0.5-1.6c1.1-2,0.9-4,1-6.1c0.2-4.6-2.3-8.7-3.4-13.1c-1.4-5.5-3.4-10.9-5.1-16.4
		c-0.2-0.5-0.2-1.1-0.2-1.7c-0.2-5.5-1.3-10.7-4.4-15.7c-0.8-1.3-1.4-2.4-3.2-2.8c-2.7-0.6-4.1-1.8-4.6-3.9
		c-0.5-2.6-2.8-4.5-5.8-5.5c-3.3-1.1-5.2-2.9-6.2-5.3c-0.9-2-2.4-3.5-4.2-5.1c-2.5-2.3-4.9-4.5-8.2-6.2c-2.8-1.5-4.8-3.8-7.1-5.7
		c-1-0.8-1.8-1.9-3-2.5c-4.8-2.2-9.6-4.4-13.9-7.2c-2.3-1.5-5.9-1.9-8.9-2.6c-2.2-0.5-4.2-1-5.8-2.3c-2.7-2.2-6.2-3.1-10.1-2.3
		c-2.5,0.5-4.9,0.3-7.2-0.4c-0.9-0.3-2-0.4-2.9-0.3c-3.3,0.4-6.4-0.1-9.5-0.5c-3.4-0.4-6.9-0.6-10.3-0.6c-1.7,0-3.7,0-5,0.6
		c-4.5,2.3-9.7,2.9-14.6,3.9c-4.3,0.8-7.9,2-10.9,4.4c-2.9,2.3-6.3,3.6-10.5,3.6c-1,0-2,0.1-2.9,0.2c-8.4,1.5-15.8,4.1-20.1,10.3
		c-2.6,3.8-6.2,7.1-11,9.7c-3.3,1.8-6,4.6-7.9,7.3c-1.6,2.3-2.9,4.7-5.2,6.7c-0.6,0.6-1.4,1.2-1.5,1.9c-0.5,3.4-3.5,5.6-6,8.1
		c-3.6,3.5-6.4,7.5-7,12.2c-0.4,3-1.3,5.9-3.3,8.6c-0.9,1.1-1.2,2.5-1.7,3.7c-1.4,3.4-2.9,6.8-1.9,10.4c-2.1,4.8-1.4,9.5,1.1,14.2
		c0.5,1,0.5,2.2,0.8,3.3c0.4,1.6,0.8,3.3,1.1,5c0.2,1.3,0.6,2.6,0.4,3.9c-0.7,4.8,2.8,9.1,2.5,13.8c0,0.3,0.4,0.7,0.6,1
		c2.3,2.7,4.3,5.4,4.8,8.7c0.1,0.7,0.9,1.3,1.5,1.9c4.4,4,7.2,8.9,12.6,12.4c1.5,1,2.6,2.2,4.5,2.7c3.1,0.9,5.5,2.5,7.2,4.7
		c0.9,1.2,2,2.1,3.8,2.5c1.5,0.3,2.3,1.4,3.4,2c3.9,2.1,7.4,4.7,12.8,5.2c4.6,0.5,9,1.9,13.3,3.3c2.6,0.8,5,1.2,7.8,1.4
		c5.7,0.4,11.9-0.7,16.8,2.7c0.8,0.5,2.3,0.5,3.5,0.7c1.7,0.3,3.4,0.5,5,0.8c8.2,1.3,16.4,2.6,24.8,0.6c1.6-0.4,3.4-0.3,5.1-0.2
		c2.5,0.1,4.9,0.4,6.9-1.3c1.1-0.9,2.6-0.8,4.2-0.5c1.2,0.2,2.4,0.3,3.5,0.4c1.5-1.2,2.8-2.3,4-3.2c4.5,1.2,4.5,1.2,7.5-0.5
		c0.8-0.4,1.5-1.1,2.4-1.2C349.2,374.2,351.4,371.9,353.4,369z M63.2,846.2c0.3,0.1,0.7,0.2,1.1,0.3c1-1,2.1-2,3.1-3.1
		c5.2-5.6,11.9-10.2,19.1-14.1c9.4-5.1,19.6-9.5,29.3-14.3c15.1-7.4,31-13.9,44.9-22.8c10.6-6.8,20-14,25.6-23.7
		c3-5.2,5.6-10.5,6.1-16.2c0.4-4.9-0.4-9.8-0.2-14.6c0.2-5.9-7.9-12.3-15.8-13.2c-9.2-1-18.4-0.9-26.8,2.7c-4.7,2-9.1,4.4-13.8,6.6
		c-2.7,1.3-5.3,2.9-8.3,3.7c-3.5,0.9-5.8,2.6-8.3,4.5c-8.4,6.8-14.4,14.8-19.9,23c-5.7,8.5-11.1,17.2-16.3,25.9
		c-3.3,5.6-6.8,11.3-8.8,17.3C70,820.8,66.8,833.5,63.2,846.2z M192.2,346.7c-3.3-1-3.3-1-4.5-0.8c-11.5,2.4-22.7,5.2-33.1,9.6
		c-3.2,1.4-6.7,2.4-10.1,3.5c-0.6,0.2-1.4,0-2.6,0c0.8-0.9,1.2-1.5,1.8-2c3.8-2.8,8-5,12.7-6.8c9.3-3.5,19-6.4,29.4-7.7
		c0.7-0.1,1.3-0.5,2.3-0.9c-0.3-1.4-0.7-2.8-0.9-3.9c-0.7-0.4-0.9-0.5-1.1-0.6c-2-0.1-3.9-0.2-5.9-0.3c-10.9-0.4-21,1.2-29.9,6.5
		c-4.6,2.8-9.9,5.1-15.8,6c-5.6,0.8-10.1,3-14.5,5.5c-1.6,0.9-3.2,1.8-4.7,2.8c-7.4,4.7-15.4,8.9-21.7,14.5
		c-4.3,3.9-8.5,7.8-12.7,11.8c-2.3,2.2-4.7,4.4-6.6,6.8c-4.6,6-9,12.1-13.4,18c1,2.4,1.9,4.7,3,7.2c2.8-0.8,5.6-1.1,7.9-2.1
		c5.1-2.2,10.6-3,16.2-3.7c5.8-0.8,11.8-1.4,17.5-2.3c3.6-0.6,7.1-1.5,10.6-2.5c3.9-1.1,7.7-2.6,11.6-3.7c2.9-0.8,5-2.1,7-3.9
		c4.8-4.2,9.1-8.8,14.4-12.8c9.9-7.7,21.1-13.5,34.4-17.2c2.5-0.7,4.3-1.7,5.6-3.4c2.6-3.4,5.2-6.8,7.8-10.3c1.4-1.9,1.2-2-2.5-4.1
		c-2.9,1.5-6.1,2.9-8.9,4.6c-4.4,2.7-8.5,5.7-12.9,8.5c-1.1,0.7-2.5,1.2-3.8,1.8c-0.3,0.1-0.8-0.1-1.2-0.2
		C170.7,359.3,176.9,354.8,192.2,346.7z M120.8,735.2c-3.1-4-3.9-4.5-8-5.5c-6.9-1.7-13.6-0.9-20.3,1c-9.1,2.5-16.6,6.8-23.3,11.8
		c-9.2,6.8-17.6,14.2-25.2,22.1c-9.2,9.5-12,20-10.3,31.4c1.3,8.8,4.2,17.4,7.7,25.8c4,9.7,7.6,19.4,9.8,29.4c0.5,2,1.2,4,1.8,6
		c0.1,0.2,0.7,0.4,1,0.5c0.4-0.2,1.1-0.3,1.2-0.6c2.2-6.2,4.5-12.3,6.3-18.5c2.6-9,4.7-18,7.1-27c0.5-2,1.2-4,2.1-6
		c7.7-16.9,17.7-33,28.5-48.8c4.1-6,9.5-11.4,15.2-16.6C116.3,738.5,118.5,737,120.8,735.2z M327.6,196.1c0.6-0.8,1.1-1.5,1.7-2.3
		c2.4-3.3,4.6-6.7,8.4-9.2c4.1-2.8,7.4-6.1,10.1-9.6c1.4-1.8,2.7-3.6,4.4-5.2c6.8-6.1,9.5-13.5,12.4-20.9c1.9-4.9,3.4-9.8,5.3-14.7
		c1.8-4.4,2.4-8.7,1.5-13.3c-1-5.4-1.4-10.8-1.9-16.3c-0.4-4.7,0-9.4-0.7-14.1c-0.7-4.2-0.9-8.2-0.1-12.3c0.4-1.9,1-4,0.1-5.9
		c-2.6-0.1-3.4,1.3-4.1,2.3c-2.9,3.9-5.9,7.8-8.5,11.9c-4.2,6.4-8.9,12.5-15.3,17.9c-3,2.5-5.7,5.2-8.3,8c-3.3,3.5-6.3,7.2-9.4,10.8
		c-2.9,3.3-5.2,6.8-6,10.8c-1.4,7.1-3,14.1-4.1,21.2C312,163,312,171,315,178.6c2,5.1,2.6,10.3,2.9,15.6c0,0.9-0.3,1.9,1,2.5
		c2.4,0.3,2.3-1.1,2.5-2.1c1.9-8.8,7.2-16.3,14.1-23.3c0.5-0.5,1.1-1.3,2.7-0.4c-0.6,2.9-3.2,5.2-4.8,7.9c-1.6,2.8-3.2,5.5-4.5,8.3
		C327.6,190,326.1,192.8,327.6,196.1z M213.6,363c-4.3,1.7-8.1,3.4-12.1,4.7c-7.5,2.5-15.1,4.6-22.6,7.1
		c-10.6,3.5-19.7,8.6-27.4,15.1c-5.9,5-11.5,10.3-17.1,15.5c-5.1,4.7-9.3,9.7-11.9,15.5c-3.9,8.5-7.9,17-11.7,25.5
		c-0.3,0.8-0.1,1.7-0.1,2.8c5.6-1,10.4-2.1,15-4c11.5-4.8,23-9.5,34.5-14.3c10.6-4.4,21.3-8.7,29.6-15.7c3.2-2.7,6.4-5.2,8.6-8.4
		c2.9-4.2,5.9-8.2,9.6-12c1.3-1.3,2.5-2.8,3.4-4.3c4.1-6.6,7.4-13.5,9.5-20.7c0.1-0.3-0.4-0.6-0.6-1c-2.3,0.5-2.3,0.5-2.7,1.2
		c-4.9,8.4-11.6,15.7-20.5,21.8c-0.7,0.5-1.6,0.9-3-0.1c6.9-8.7,16.8-16.1,21.5-26.3C215.1,364.7,214.4,363.8,213.6,363z
		 M393.2,234.2c5.9,0.2,11.8,0.5,17.8,0.7c3.7,0.1,7.5,0.5,11.1,0.2c9.3-0.8,18.6-1.9,27.9-2.9c1.9-0.2,3.9-0.7,5.7-1.1
		c8.2-2,16.5-3.9,24.7-6c11.3-2.9,21.9-6.7,30.2-13.6c3.3-2.7,7.3-5.1,11.5-7c6.4-2.9,12.2-6.4,18-9.9c1.1-0.7,1.9-1.6,3.4-2.9
		c-3.2-0.4-5.6-0.8-8-0.8c-9.6-0.1-19.3-0.4-28.9,0c-19.8,0.9-39.1,4.2-58,8.8c-12.6,3-24.4,7.2-34.9,13.3
		c-6.1,3.5-11.8,7.4-17.6,11.1c-2.3,1.4-4.6,2.8-6.8,4.3c-0.6,0.4-0.7,1.2-1.3,2.3c9.6,0.4,17.6-2.9,26.7-4
		C408.5,231.8,401,233.3,393.2,234.2z M448.6,115.3c-5.4,0.3-7.4,0.5-11.6,2.9c-5.3,3-10.6,6.1-15.5,9.6c-6.2,4.4-12.8,8.4-20.5,11
		c-6.7,2.2-12.2,5.7-17.9,9c-3.9,2.2-7,5.2-10.1,8.2c-7.8,7.7-9.9,17.1-12.6,26.2c-1,3.5-1.8,7-2.8,10.5c-1.2,4-2.5,8.1-3.7,12.1
		c-0.3,1-0.2,1.9,1.4,2.5c2.1-1.5,3.4-3.5,5-5.4c4-4.8,9.4-8.7,15.3-12.2c0.6-0.4,1.6-0.2,3.3-0.4c-2.7,3.3-5.9,5.4-8.8,7.7
		c-4,3.1-7.1,6.7-9.6,10.7c-0.5,0.8-1.2,1.7,0.3,2.4c0.5-0.1,1.1-0.1,1.3-0.3c4.3-3.7,9.9-6.2,15.5-8.6c13.6-6,25.5-13.5,35.4-22.9
		c3.1-3,5.6-6.2,7.4-9.7c4-7.9,8.2-15.7,11.9-23.7c2.4-5.2,5.7-10,10-14.4C446.6,126,449.2,121.1,448.6,115.3z M197.6,486.4
		c1-1,2-1.6,2.5-2.4c2.5-4,6.5-7,11.1-9.7c1.6-0.9,3-2,4.3-3.1c6.9-6.1,14-12.2,20.5-18.5c3.9-3.8,7-8.2,7-13.3
		c0-14.5,3.6-28.3,13.4-41c3.9-5.1,2.4-10.5,1.8-15.9c0-0.2-0.2-0.4-0.3-0.5c-0.4-0.2-0.8-0.5-1.2-0.5c-0.7,0-1.5,0.2-1.9,0.5
		c-0.5,0.4-0.8,1-0.9,1.5c-1.6,4.9-3.4,9.8-4.8,14.8c-1.3,4.8-3.8,9.3-6.8,13.6c-0.4,0.6-0.6,1.9-2.3,1.5c3.4-11.3,6.8-22.6,10.2-34
		c-1.4-0.5-2.5-0.9-3.5-1.3c-4,2.6-7.5,5.2-11.5,7.4c-7.6,4.1-13.5,9.3-18,15.4c-4,5.4-7.6,11-11.1,16.5c-1.6,2.5-3.2,5.1-4.1,7.8
		c-1.4,4.4-2.4,8.8-3.4,13.2c-0.9,3.7-1.1,7.5-2.4,11.1c-3.2,8.5-2.9,17.1-2,25.7C194.5,478.9,195.3,482.5,197.6,486.4z
		 M405.4,440.7c-1.1-7.2-2.4-14-2.6-21c-0.2-4.5-0.3-9-0.3-13.5c0-2.9-0.2-5.7-2-8.2c-3.1-4.3-6.3-8.5-10-12.5
		c-4.3-4.6-9.2-8.8-13.9-13.2c-1.4-1.3-2.7-2.6-4.3-3.9c-0.4-0.3-1.6-0.5-2-0.2c-0.6,0.4-1.4,1.3-1.2,1.7c0.7,1.6,1.7,3.1,2.8,4.6
		c3.3,4.2,6.9,8.3,10,12.5c1.5,2.1,2.4,4.5,3.3,6.8c0.2,0.6,0.4,1.6-1.9,1.7c-3.8-3.4-5.3-8.1-8.7-11.9c-3.5-4-6.4-8.3-11.1-13
		c0.8,5.7,2.1,10.2,1.9,14.8c-0.2,4.6,0.5,9.2-1,13.9c-2.3-0.8-2.4-2.1-2.5-3.4c-0.2-2.4-0.1-4.9-0.3-7.3c-0.4-4.3-0.9-8.6-1.4-12.9
		c-0.1-1.1-0.3-2.3-2.3-2.4c-0.3,0.3-0.7,0.6-0.7,0.9c-1.9,12-3.5,23.9-2.7,36c0.4,5.8,1.7,11.5,4.9,17c5.1,8.6,11.5,16.6,17.9,24.7
		c0.9,1.1,2.1,2.1,3.2,3.1c5.1,4.7,11.7,8.1,17.7,12c5.5,3.6,10,7.7,13.4,12.6c0.5,0.6,0.9,1.4,2.4,0.9c0.5-3.3,1.2-6.7,0-10
		c-1.9-5.2-4-10.4-6.4-15.6c-2.4-5.3-5.2-10.5-7.6-15.9c-0.8-1.7-0.6-3.7-0.7-5.5c0-0.4,0.9-1.2,1.2-1.1c0.8,0.2,1.8,0.5,2.1,1.1
		c0.6,1,0.6,2.2,1,3.3C404.1,437.9,404.8,439.3,405.4,440.7z M325.7,112.7c-1.4-5.9-3.5-11.2-7.6-16c-3.5-4-5.4-8.4-6-13.2
		c-0.1-0.7-0.5-1.3-0.8-2c-5.2,0.7-5.2,0.8-7.6,2.3c-6,3.7-9.8,8.6-11.8,14c-3.1,8.2-7.9,15.8-12.9,23.3c-1.3,2-2.3,4.1-3,6.3
		c-1,3.1-1.7,6.2-2.4,9.4c-0.4,2-0.7,4.1-0.7,6.1c0,3.2,0.3,6.4,0.6,9.6c0.5,5.1,1.3,10.2,4.1,14.8c2.8,4.6,6.1,9,9.5,13.4
		c3.2,4.1,5.6,8.4,6.7,13c0.1,0.5,1.1,1,2.3,1.9c0.9-2.6,1.8-4.5,2.3-6.5c1.5-6.4,0.7-12.7-1-19c-0.5-1.8-0.7-3.7-0.9-5.5
		c0-0.2,0.5-0.6,0.9-0.7c0.4-0.1,1.1,0.1,1.3,0.3c0.5,0.6,1,1.3,1.3,2c2.8,7.1,4.3,14.3,3.4,21.7c-0.1,0.7-1,1.6,0.4,2.3
		c5.1-4.5,6.9-9.2,4.1-15c-2-4.2-2.5-8.8-2-13.4c1.4-10.5,3.4-20.9,7.1-31c0.9-2.5,2.4-4.9,4-7.2
		C319.6,119.9,322.6,116.4,325.7,112.7z M274,383.3c-2.8,3.6-5.5,7.4-8.2,11.1c-7,9.4-12.2,19.2-15,29.8c-1.8,6.9-2.9,13.7-0.7,20.6
		c3.7,11.7,5.9,23.6,6.9,35.6c0,0.3,0.6,0.5,1.2,1c9.6-3.8,17.3-9.2,22.8-16.2c5.9-7.6,9.7-16,12.6-24.5c2.9-8.5,3.3-17.1,3-25.7
		c-0.1-2.6-0.6-5.2-1.3-7.8c-1.6-5.9-3.4-11.7-5.2-17.6c-0.3-0.9-0.6-1.9-1.2-2.6c-0.4-0.5-1.5-0.8-2.3-0.9c-0.2,0-1,0.8-1,1.3
		c0,2.8,0.4,5.6,0.3,8.4c0,2.2,0.4,4.6-2.2,6.3c-2.1-2.5-2.1-2.5-2.3-4.5c-0.2-3-0.2-6-0.5-9C280.6,384.6,280.4,384.5,274,383.3z
		 M31.1,247.4c0.8,0.6,1.4,1.3,2.1,1.6c6.9,2.6,13.8,5.1,20.7,7.7c3.1,1.1,6.3,2.2,9.4,3.2c6.8,2.2,13.5,4.7,19.7,7.8
		c1,0.5,2.3,0.7,3.5,1c7.5,1.9,15,3.9,22.5,5.7c5,1.2,10.1,2,15.3,1.9c6.4-0.2,12.8-0.6,19.3-0.9c4.8-0.2,9.2-1.1,13.5-2.7
		c7.9-3,16.3-4.4,25.1-2.9c0.1,0,0.3-0.2,0.9-0.6c-4.6-2-8.9-4-13.9-5c-5-1-10.1-1.9-15.2-2.6c-5.1-0.6-10.3,0.6-16.1-0.4
		c0.8-0.9,1.2-1.7,1.9-1.9c2.1-0.5,4.3-0.8,6.5-1c11.5-1,22,1.4,32.4,4.9c1.5,0.5,2.7,1.6,5.1,1.1c-3.4-3.6-7.3-6.5-12.3-8.7
		c-1.2,0.1-2.4,0.1-3.6,0.2c-7.5,1-14.8,0.3-22.1-0.8c-5.9-0.9-11.3-2.6-16.8-4.3c-9.5-2.9-18-7-24.8-13c-2.6-2.3-5.7-3.4-9.7-3.4
		c-10-0.1-19.7,0.7-28.8,4.4c-2,0.8-4.1,1.4-6.2,1.9C50.3,242.8,40.9,245.1,31.1,247.4z M198.6,244.1c0.2-0.4,0.4-0.8,0.6-1.2
		c-0.8-0.4-1.4-0.9-2.3-1.1c-2.3-0.6-4.6-1.3-7-1.7c-16.3-3.3-32.2-7.3-46.8-13.8c-6.5-2.9-12.3-6.3-16.7-11c-1-1.1-2.2-2-3.3-3
		c-4.3-3.9-8.2-8-10.8-12.7c-1.1-2.1-2.5-4.1-3.8-6.1c-1.1-1.8-2.9-3-5.3-3.7c-3.5-1-6.9-2.1-10.4-2.9c-13.3-3.3-27.1-4.2-41-4.4
		c-0.4,0-0.7,0.4-1.1,0.6c-0.3,1,0.8,1.2,1.5,1.7c4.8,3,8.7,6.6,12.1,10.6c6.8,7.8,14.1,15.4,22.9,22.1c7,5.3,14.4,10.3,20.8,16
		c6.8,6.1,15.7,9.7,25,12.7c12.8,4,26,5.9,39.9,3.4c6.6-1.2,13.3-1,19.7,1.1c0.9,0.3,1.8,0.4,2.6,0.6c1.8-2.2,1.8-2.8,0.1-3.2
		c-6.5-1.7-12.8-4.2-19.9-4.4c-5-0.1-9.8-1.1-14.2-2.9c-0.9-0.4-1.5-1.2-3.1-2.6c2.4,0.2,3.5,0.2,4.6,0.3c3.9,0.6,7.7,1.2,11.6,1.8
		c4.6,0.7,9.2,1.2,13.8,2C191.6,242.6,195.1,243.4,198.6,244.1z M244.3,208.4c-0.9-5.5-2-10.2-7.2-14.1c-7.2-5.4-11.7-12-13.3-19.7
		c-1.1-5.6-2.5-11.1-5.6-16.3c-0.9-1.5-1.4-3.2-1.6-4.9c-0.5-4.4-3.8-7.2-8.4-9.4c-3.8-1.8-7.6-3.5-11.5-5.1
		c-3.7-1.5-7.5-2.9-11.2-4.4c-3.9-1.6-7.9-3.1-11.6-5c-3.6-1.8-6.9-4-10.8-6.4c-0.2,2.9-0.4,5.4-0.7,8c-1.5,10.3,1.2,20.2,5.1,29.9
		c3.3,8.1,9.7,14.8,16.9,21c6,5.2,12.3,10.5,20.8,13.4c10,3.4,19.2,7.7,28.1,12.5c0.8,0.4,1.6,0.9,2.5,1.2c0.7,0.3,1.6,0.9,2.4-0.3
		c-4.5-3.6-9.1-7.1-10.9-13C235.1,198.8,237.3,205.1,244.3,208.4z M319.3,418.6c-0.7-1.2-1.4-1.9-1.4-2.5c0-2.4-0.2-4.9,0.4-7.3
		c1.9-7.4,4.1-14.7,6.2-22c0.1-0.5-0.2-1.1-0.3-1.7c-2,0.4-3.9,0.7-5.6,1c-1,1.6-1.8,2.9-2.6,4.3c-3.8,6.3-7.6,12.6-11.5,18.9
		c-1.9,3.1-2.5,6.4-2.6,9.9c-0.2,5.4-0.6,10.9-1.6,16.3c-0.8,4.2-0.6,8.2,0.2,12.3c1.7,7.7,6.1,14.6,9.6,21.9
		c0.1,0.1,0.6,0.2,1.2,0.4c-0.2-1.1-0.1-2.1-0.5-2.9c-1.3-3.4-2.8-6.8-4-10.3c-0.7-2-1-4-1.3-6.1c-0.1-0.5,0.7-1.1,1.5-2.4
		c1,1.4,1.8,2.1,2.1,2.9c0.8,2.2,1.1,4.5,2.2,6.5c3.1,6.3,3.9,12.8,4.2,19.4c0.2,4.1,1.1,8.2,2,12.3c0.9,4.1,2.2,8.1,3.3,12.1
		c0.1,0.5,0.7,0.9,1.2,1.5c2.4-1,4-2.4,5.2-4c2-2.8,4.2-5.6,5.6-8.5c3.2-6.7,6.6-13.3,11.8-19.4c1.8-2,2.8-4.4,4.1-6.6
		c1.5-2.5,1.6-5-0.5-7.5c-2.2-2.5-4-5.2-5.7-7.9c-4.8-7.7-8.1-15.8-9.8-24.1c-1.6-7.4-2.7-14.9-0.9-22.4c1.1-4.6,1.9-9.3,2.8-13.9
		c0.4-2,0.9-3.9-0.1-5.7c-3.2,0-4.6,0.9-5,3c-0.6,3.2-1.1,6.4-2.2,9.4c-2.2,6.5-4.8,13-6,19.8C321.2,416.1,320.3,417,319.3,418.6z
		 M392.8,359.1c0.7,1,0.9,1.3,1.2,1.6c3.5,2.9,7.3,5.6,10.6,8.6c6.8,6.3,11.8,13.4,16.7,20.6c3.7,5.4,5.2,11.3,7.7,17
		c3.2,7.1,5.9,14.4,8.3,21.6c2.7,8.1,9.5,13.4,18.6,17.4c4.3,1.9,8.6,3.7,12.9,5.6c1.2,0.5,2.4,1.1,4.3,2c0.1-1.7,0.6-2.8,0.3-3.7
		c-1.6-5.1-2.4-10.4-5-15.3c-3.1-6-5.5-12.1-4.8-18.6c0.1-0.9-0.1-1.9,1.7-2.5c1.5,0.9,1.9,2.3,2.2,3.8c0.3,1.9,0.5,3.7,1,5.6
		c0.2,0.7,0.1,1.9,2.3,1.7c-0.2-4.7-0.1-9.4-1.4-14c-3.4-12.9-10.7-24.6-20.8-35.2c-7.1-7.4-15.8-13.5-27.8-16.2
		c-6.7-1.5-13.3-3-19.7-4.9c-2-0.6-4.2-1-6.8-1.6c-0.1,0.9-0.5,1.8-0.1,2.1c1.4,1,3,2,4.7,2.6c3.8,1.3,7.8,2.4,11.8,3.5
		c6.6,1.8,12.5,4.6,17.9,7.9c1.1,0.7,2.2,1.6,0.9,3.1c-1.4-0.5-2.9-1-4.3-1.6c-3.9-1.6-7.6-3.5-11.7-4.8
		C406.9,363.2,400.2,361.3,392.8,359.1z M201.9,238.2c-3.6-4.7-11.5-6-15.7-12c4,1.4,6.7,2.2,9.2,3.2c2.7,1.1,4.4,3.4,8,3.7
		c-0.9-2.6-1.5-5-2.6-7.3c-0.9-1.9-1.6-4.1-4.5-4.9c-7.3-2-13.3-5.8-19.8-8.8c-6.9-3.1-12.4-7.4-17-12.4c-4.6-5-7.1-10.8-8.6-16.7
		c-1-3.9-3.5-6.4-8.3-7.9c-4.8-1.6-9.4-3.4-13.9-5.3c-1.6-0.7-3.9-0.9-4.5-3.4c8.5,0.6,15.2,4.1,22.7,6.9c0.9-2.3,0.7-4-1.9-5.1
		c-2.6-1.1-5.3-2.1-8-2.9c-9.3-2.7-19.2-3.5-29.1-4c-4.9-0.2-9.9-0.3-14.8-0.3c-1.1,0-2.1,0.4-3.7,0.8c3.6,4.4,6.6,8.5,10.1,12.3
		c7.6,8.4,14.4,17,20,26.3c0.5,0.9,1.1,1.7,1.8,2.4c6.8,7.5,15.3,13.8,25.9,18.2c6.9,2.9,14,5.6,21.1,8.2c2.4,0.9,4.9,1.9,7.5,2.4
		C184.5,233.5,193.1,235.7,201.9,238.2z M417,278.2c5.6,2.6,10.4,4.9,15.3,7c4.3,1.8,8.7,3.7,13.7,4.3c9.3,1.1,18.7,1.8,28.1,0.5
		c9.3-1.3,18.5-2.4,27.8-3.8c2.4-0.4,4.8-1.1,6.9-2c5.1-2.2,10.1-4.7,15.2-7c4.1-1.8,8-3.8,12.4-5c8.7-2.4,16.3-6.2,23.7-10.3
		c0.8-0.5,2.5-0.5,2-1.8c-4.4,1.3-8.7,2.6-13.1,3.8c-4.4,1.2-9,2-13.4,3.2c-6.5,1.8-9.7,2.4-13.2,2.1c5.9-4.5,13.4-6.4,21.1-7.6
		c5.9-0.9,11.2-2.8,16.5-4.8c0.8-0.3,1.8-0.7,1.6-2.1c-6.7,0-13.4-1.5-20.3-1.1c-3.4,0.2-6.9,0.7-10.2,1.5
		c-5.7,1.3-11.2,2.9-16.8,4.3c-8.3,2.1-16.8,3.1-25.5,3.2c-6.2,0.1-12.4-0.4-18.5-0.5c-12.7-0.2-25.3,0.4-37.4,3.4
		c-5.9,1.5-11.4,3.7-16.1,6.8c-0.5,0.3-0.6,0.9-1.1,1.8c3.7,0.4,6.3-1.5,9.3-1.6c3-0.2,5.9-0.5,8.9-0.6c3.2-0.1,6.5-0.1,9.7,0.1
		c4.6,0.2,5.2,0.4,8.5,2.9c-3.3,0.9-6.4,0.5-9.5,0.5c-4.2,0-8.4-0.1-12.6,0.2C425.6,275.5,421.3,275.8,417,278.2z M499.8,136.1
		c-7.3,0-13.9-0.3-20.5,0.6c-10.8,1.4-19.1,5.9-26.5,11.6c-3.2,2.4-6.6,4.5-10.4,6.3c-2.9,1.4-5.8,2.9-8.5,4.5
		c-1.6,0.9-3.1,1.9-3.4,3.6c-0.5,3.6-2.6,6.8-4.6,10.1c-4.6,7.7-10.8,14.4-19.8,19.4c-7.4,4.1-15.1,7.9-22.8,11.6
		c-2.7,1.3-4.7,2.5-5.3,5c-0.5,1.8-1.7,3.5-2.5,5.3c-0.3,0.8-0.5,1.6-0.7,2.4c1.6-0.4,2.3-1.2,3.1-1.8c3.7-3,7.4-6,11.3-8.9
		c0.9-0.6,2.3-1.6,3.8-0.2c-0.8,2.2-3.5,3.5-5.3,5.2c-1.9,1.7-4.1,3.2-6,5c-1.8,1.6-4,3.2-4.2,6.3c1.5-0.6,2.3-0.9,3-1.2
		c1.9-0.8,3.8-1.9,5.8-2.4c12.1-3.1,22.6-8.4,32.8-14c1.8-1,3.4-2.2,4.7-3.6c3.2-3.3,6.2-6.8,9.4-10.1c2.3-2.4,4.5-5,7.3-7.1
		c11.5-8.6,23.7-16.5,37.6-22.8c5.4-2.4,9.8-5.6,12.6-10.1c2.3-3.7,5.1-7.3,7.6-10.9C499,138.8,499.2,137.7,499.8,136.1z
		 M149.9,308.1c1.2-2.3,3.5-3,5.5-3.9c2.1-1,4.2-2,6.4-2.8s4.7-1.2,7.1-1.7c2.3-0.5,4.7-0.9,7.9-1.5c-1.3-1-1.9-1.8-2.5-1.8
		c-1.4,0-2.9,0.2-4.3,0.6c-5.8,1.6-11.6,3.2-17.4,5c-7.3,2.2-14.8,3.1-22.6,2.5c-4.2-0.3-8.3-1-12.5-1.4
		c-11.5-1.2-23.1-2.3-34.1-5.3c-2.3-0.6-4.7-1-7.3-0.4c-9.9,2.4-18.5,6.4-25.3,12.3c-4.4,3.8-7.9,8.2-11.6,12.4c-0.8,1-2.3,2-1,3.8
		c1.8-0.4,3.6-0.8,5.5-1.1c2.2-0.3,4.5-0.5,6.5,0.5c3.6,1.8,7.5,1.8,11.5,1.4c7.9-0.9,15.8-0.6,23.7-0.7c9.4-0.1,18.8,1.1,28.2-0.1
		c13.9-1.8,27.9-3.6,39-11.2c2.2-1.5,4.9-2.6,7.1-4.1c3.8-2.6,8.2-4.1,13-5.2c1.2-0.2,2.3-0.5,3.4-0.9c0.3-0.1,0.7-0.7,0.6-0.9
		c-0.2-0.5-0.7-1.3-1.2-1.3c-1.4-0.1-3-0.2-4.4,0.1c-4.2,1.1-8.3,2.3-12.5,3.6C156,306.8,153.5,308.1,149.9,308.1z M22.4,266
		c1.2,2.6,2.9,4.4,5.2,5.8c4,2.5,8.5,4.5,13.2,6.2c8.4,3.1,17.1,5.9,25.4,9.2c10.9,4.4,22.5,6.8,34.5,8.3c8,1,16.2,1.5,24.2,2.5
		c10.8,1.4,21.1,0.2,31.3-2.6c6.5-1.8,13.2-3.1,19.8-4.7c0.3-0.1,0.4-0.5,0.7-0.8c-0.4-0.3-0.6-0.7-1-0.7c-6.3-1.1-12.5-2.2-19-1
		c-2.9,0.5-5.9,0.7-8.8,0.9c-8.9,0.6-17.8,0.8-26.3-1.9c-0.9-0.3-1.7-0.7-2.5-1.2c-0.3-0.2-0.4-0.7-0.3-1c0.1-0.3,0.5-0.6,0.9-0.8
		c0.4-0.1,1-0.2,1.4-0.1c9.2,2.3,18.5,2,27.9,1.2c8.3-0.7,16.7-2,25.1-0.3c0.5,0.1,1,0.1,1.5,0c0.6-0.2,1.6-0.4,1.8-0.7
		c0.2-0.6,0.2-1.7-0.3-2c-3.2-1.8-6.5-3.4-9.8-5.1c-2.2-1.2-4.4-1.4-6.9-0.4c-4.4,1.7-9.2,2.6-14.2,3c-2.2,0.1-4.4,0.7-6.4,1.2
		c-8.2,2.2-16.5,2.5-24.8,0.9c-6.9-1.4-13.6-3.3-20.4-5.1c-3-0.8-6.2-1.5-8.9-2.7c-10.6-4.9-22.4-7.9-33.2-12.5
		c-1.4-0.6-3.4-1.1-4.9-0.9C38.9,261.8,30.5,262.5,22.4,266z M416.2,321c-1.7,2-1.2,3.7,1,5.1c1.3,0.9,2.7,1.7,4.2,2.3
		c10.7,4.3,21.2,8.9,32.6,12.2c13.5,3.9,27.3,5.3,41.5,3.7c10.8-1.2,21.5-2.2,32.5-1.9c9.6,0.2,18.4-2.4,26.9-5.6
		c1.2-0.5,2.9-0.8,2.8-2.3c-4.2-1-8.6-1.5-12.5-3c-8.4-3.1-17.4-4.3-26.4-5.4c-7.3-0.9-14.6-1.5-22.1-0.4c-6,0.9-12.2,1.4-18.5,0.6
		c-10.6-1.3-20.6-3.8-30-7.8c-4.1-1.7-8.1-3.6-12.2-5.3c-1-0.4-2.3-0.9-3.4-0.9c-3.9-0.1-7.9,0-11.7,0c-0.6,1-1.1,1.6-1.4,2.3
		c-0.4,0.8-0.5,1.7-0.8,2.8c2.5,0.6,4.5,1.2,6.6,1.8c4.2,1.1,8.4,2.3,12.5,3.5c1.7,0.5,3,1.3,3.2,3.1c-4.5,0.4-7.8-2-11.8-2.7
		C424.9,322.2,420.8,320.8,416.2,321z M421.2,292.5c4.5,1.2,9.2-0.6,13,2.5c-2.7,0.5-4.9,0.9-8.6,1.5c3.9,1,6.4,1.6,8.8,2.3
		c2.6,0.7,5.1,1.4,7.6,2.3c2.5,0.8,4.9,1.7,5.9,4.2c-1.2,0-2.3,0.3-3.1,0.1c-3-0.8-6.1-1.5-9-2.6c-3.6-1.3-7.5-1.9-11.4-2.4
		c-0.6-0.1-1.8,0.4-1.8,0.6c-0.1,0.6,0.1,1.7,0.6,1.9c2.9,1.4,6.1,2.4,9,3.9c9,4.4,18.5,7.9,28.3,11.2c10.2,3.5,20.7,4.7,31.9,3.7
		c9.6-0.9,19.3-1,28.9,0.6c3.3,0.5,6.8,0.8,11.4,1.3c-3.6-3.2-6.4-5.8-9.3-8.3c-3.1-2.6-7.2-4.5-9.7-7.3c1.2-1.5,2.5-1.2,3.4-0.6
		c3,1.9,5.9,4,8.9,6c0.6,0.4,1.3,1.3,2.3,0.1c-2.2-3.4-5.3-6.3-9-8.8c-4.1-2.7-8.4-5.3-12.2-8.2c-4.1-3.2-8.8-3.8-14.3-3
		c-9.5,1.4-19.1,2.3-28.8,1.9c-4.2-0.2-8.4-0.7-12.5-1c-6.7-0.4-13.2-1.4-19.2-3.9C428.5,288.9,426.2,289.5,421.2,292.5z
		 M387.1,466.7c-2.3-1.8-4.4-3.3-6.5-4.9c-7-5.4-13.2-11.1-17-18.2c-2.1-4-4.8-7.8-7.1-11.8c-1.8-3.1-3.9-6.1-5-9.4
		c-1.4-4-2.1-8.1-2.6-12.2c-1.3-9.4,0.3-18.7,2-28c0.2-1.4,1.1-2.9-0.2-4.5c-1.2,0.2-2.3,0.4-3.9,0.6c0,2.9,0,5.7,0,8.5
		c0,1.6-0.4,3.1-2.4,4.4c-3.3-3.1-0.2-6.9-2.7-9.7c-1.5,0.1-1.8,0.8-1.9,1.5c-0.9,5.8-2,11.5-2.8,17.3c-0.5,4.5-0.8,9-0.8,13.5
		c-0.1,8.2,2.9,16,6.1,23.6c2.2,5.4,4.8,10.6,8.7,15.5c3.5,4.3,6.8,8.7,10.5,12.9c2.5,2.9,4.1,6,5.6,9.1c3.2,6.9,6.5,13.8,9.8,20.6
		c0.1,0.3,0.6,0.5,1.3,0.9c2-2.9,4-5.6,4.6-8.8C384.3,480.9,385.7,474,387.1,466.7z M47.1,341.2c2.2,1.6,4.8,1.6,7.2,1.6
		c4.7,0.1,9.4,0.1,14.1,0.1c9.7-0.1,19.4-0.9,28.9,0.9c12.1,2.3,24,2.1,36-0.1c1.7-0.3,3.4-0.5,5.1-0.9c1.4-0.3,2.8-0.8,4-1.4
		c7.3-3.8,14.7-7.7,21.9-11.6c4.4-2.4,8.7-5,14-6.2c0.9-0.2,1.9-0.5,1.1-1.7c-0.8,0.1-1.8,0-2.7,0.2c-4,0.9-8.1,1.8-12,2.8
		c-2.3,0.6-4.5,1.5-7.7,0.2c4.8-4.2,11.8-4.6,17.9-7c-3.9-1.4-7.1-2.6-10.8-3.9c-1.9,1-3.9,1.7-5.5,2.8c-4.2,2.9-9.2,5.1-13.8,7.5
		c-8.7,4.5-18.6,6.3-28.7,6.8c-8.6,0.4-17.3-0.1-25.9-0.6c-10.9-0.6-21.7-0.8-32,1C54.2,335.1,50.7,338.2,47.1,341.2z M249.4,475.2
		c-8.7-1.5-17.1-1.7-24.5,3c-4.4,2.8-9.3,4-15.1,3c-5,4.6-9,9.5-12.6,15.1c-1.3-1-2.4-1.6-2.8-2.3c-0.9-1.7-1.4-3.6-2.1-5.4
		c-0.3-0.8-0.8-1.6-1.3-2.4c-10.6,4.1-10.1,5-16.8,12c3.7,1.4,7.7,1.4,11.5,1.6c9.9,0.6,19.6,2.1,29.1,4.2c6.2,1.4,12.2,3,17,6.6
		c0.6,0.5,1.7,0.6,2.2,0.8c6.1-7.5,12-14.9,17.8-21.9c-0.5-2.5-1-4.7-1.2-6.9C250.4,480.4,251.5,478.1,249.4,475.2z M219.2,225.5
		c0.1-1.1,0.5-2,0.1-2.3c-4-3.1-8.2-6-12.2-9c-0.9-0.7-1.6-1.7-2.8-2.9c1.5,0.1,2.2,0,2.9,0.1c6.5,1.7,10,6.4,16.2,9
		c-1.7-4.9-3.2-9.6-4.9-14.6c-1.7-0.5-3.7-1.2-5.8-1.7c-13.5-3.1-24.1-9.4-32.7-17.7c-4.8-4.6-8.9-9.5-12.6-14.6
		c-5.9-8.3-10.3-17-11-26.7c-0.2-2.8-0.4-5.8-1.6-9.1c-2.1,2.8-2.1,5.2-2.3,7.6c-0.3,3.9-0.8,7.9-0.7,11.8c0,4.5-0.2,9.1,1,13.5
		c2.1,7.7,5,15.3,9.4,22.5c2.5,4.2,6,7.8,10.2,11c8.6,6.3,17.8,11.8,28.9,15.5C207.2,219.9,213.4,221.8,219.2,225.5z M164.8,484
		c1.4-2.1,2.7-3.9,3.9-5.8c3.1-4.8,6.5-9.3,11.7-12.9c4.8-3.4,8-7.3,8.8-12.5c0.7-4.8,3.1-9.5,3.8-14.3c1.2-7.5,3.4-14.8,6.7-21.9
		c0.1-0.3-0.2-0.7-0.4-1.4c-5.2,3.6-10.3,7.1-15.2,10.7c-5.2,3.9-12.2,5.6-17.8,8.4c-2.6,4.9-5.3,9.3-7.4,13.9
		c-3.6,7.9-5.2,16.1-2.3,24.4C158,476.8,160.6,480.6,164.8,484z M303,616.5c3.1-1.6,5.4-2.8,7.6-3.9c5.3-2.7,11.2-4.1,17.5-4.1
		c7.4,0,14.8,0.5,21.8,2.9c6.4,2.2,13,3.5,20.1,3.7c6.7,0.2,13.4,0.3,20,1.1c12.5,1.5,24.8,3.3,37.2,5c1.1,0.2,2.3,0.1,3.6,0.2
		c-0.2-0.7-0.2-1.1-0.5-1.3c-0.9-0.7-1.8-1.3-2.8-1.8c-6.9-3.5-14.7-5.3-22-8c-5.2-1.9-10.6-3.1-16.4-3.3c-1.7-0.1-3.4-0.4-5-0.9
		c-8.7-2.5-17.7-3.5-26.9-3.3c-7.8,0.2-15.3-0.5-22.7-2.2c-6.8-1.6-13.7-3.2-20.4-5c-3.1-0.8-6.2-1.2-9.5-1.2c-2.6,0-4.2,0.9-5,2.7
		c-1.4,3.1-1.8,6.3-0.6,9.4C300,609.6,301.5,612.8,303,616.5z M267.3,508.5c-0.7,4.2-1.4,8.7-2.2,13.1c-0.4,2-0.9,4.1-1.4,6.1
		c-2.2,10-4.4,20-6.7,29.9c-0.2,0.7-0.5,1.5-0.6,2.2c-0.6,2.4-1.2,4.8-1.7,7.2c-0.4,1.5-0.7,3-1.1,4.4c-0.5,1.7-1.5,3-4,3.6
		c-1.4,0.4-1.6,1.8,0.4,2.7c1.7-0.9,3.5-1.9,5.4-2.8c2.9-1.4,5.7-3,8.9-3.9c3.8-1.1,5.2-2.9,6-5.7c1.5-5.5,3.5-10.9,5.3-16.4
		c1.9-5.8,4.2-11.6,5.7-17.5c2.7-10.5,5-21,7.3-31.6c0.4-1.7,1.1-3.5,0.2-5.6C281.4,499.2,274.4,503.8,267.3,508.5z M248,569.4
		c2.9-2.5,1.6-5.2,2.5-7.5c1.1-3,0.5-5.9-0.5-8.8c-2.7-8-5.1-16-7.8-24c-2.3-6.5-2.6-13,0.9-19.3c0.3-0.5,0.9-1.5-1-1.7
		c-1.2,2.4-2.2,4.9-3.6,7.3c-0.5,0.9-1.8,1.5-2.6,2.2c-1-0.3-1.5-0.3-1.8-0.6c-8.2-6.3-18.6-9.1-29.8-10.5c-9.5-1.2-19.1-2.1-28.7-3
		c-8.9-0.8-17.8-0.8-26.6,0.9c-6.9,1.3-13.9,2.7-20.8,4c-0.2,0-0.3,0.6-0.4,0.9c0.1,0.1,0.2,0.4,0.4,0.5c14.2,5.8,29.6,7.1,45.4,6.2
		c4.9-0.3,9.8-0.9,14.8-1.2c7.4-0.5,14.9-0.4,22.2,0.8c3.4,0.5,6.8,1,10.2,1.3c8.5,0.7,14.1,4.2,17.2,10.1c1,1.9,1.5,4,2.2,6
		c1.3,3.8,2.4,7.7,3.9,11.5c3.1,7.4,5,14.9,3.8,22.8C247.6,567.6,247.8,568.2,248,569.4z M412.6,262.3c5.2,0.6,10,0.6,14.8-0.7
		c7-1.8,14-3.6,21.5-4.1c6.1-0.4,12.4-0.5,18.1-2.6c0.4-0.1,1-0.1,1.5-0.2c9.8-1.2,18.2-4.7,26.2-8.9c8.3-4.4,15.8-9.6,22.9-15.1
		c9.3-7.1,20.3-11.9,33.5-13.6c0.7-0.1,1.3-0.7,2.7-1.5c-2.6-0.5-4.3-0.8-5.9-1.1c-2.3-0.4-4.4-0.2-6.4,0.8
		c-11,5.4-22.3,10.4-33.9,15.1c-7.8,3.2-15.6,6.6-23.7,9.2c-9,3-18.5,5.3-27.8,7.8c-11.3,3-23,4.3-35.1,3.9c-1.5,0-2.9,0-4.2,0
		c-1.8,1.6-3.4,3.1-5.2,4.6C411.9,258.1,412.2,260.1,412.6,262.3z M400.7,244.8c2.2,0.9,3,1.5,3.9,1.6c6.6,0.4,13.3,0.8,20,1.1
		c1.7,0.1,3.5,0,5.2-0.2c7.4-0.7,14.6-1.5,21.6-3.6c8.8-2.5,17.8-4.5,26.6-6.9c7.5-2,14.4-4.8,21.2-7.9c9.1-4.1,18.8-7.6,27.9-11.7
		c7.8-3.6,15.8-7,24-10c1-0.4,1.7-0.7,1.2-1.9c-3.5-0.5-7.2-0.8-10.8-1.5c-3.9-0.7-7.3-0.2-10.5,1.6c-2,1.1-4.2,2.1-6,3.3
		c-3.7,2.5-7.4,5-10.9,7.6c-5.5,4.1-11.5,7.6-18.6,10c-8.4,2.9-17,5.1-25.6,7.3c-16.9,4.2-34.2,5.9-51.9,6.1
		c-5.2,0-10.4-0.5-15.5-0.6c-1.2,0-2.8-0.5-4,1c1.1,0.3,2,0.6,2.8,0.7c1.9,0.3,3.9,0.4,5.8,0.8c0.4,0.1,0.6,0.9,1.1,1.6
		C406,243.7,404.2,244.1,400.7,244.8z M227.4,588.1c-1.8-1.5-3.2-2.6-4.5-3.6c-8.4-6.8-19.2-8.8-30.9-9.3c-3.2-0.1-6.5,0.2-9.1,2
		c-5.7,3.8-9.6,8.6-11.4,14.2c-0.6,2,0,4.1-0.2,6.2c-0.2,2.2-0.8,4.3-1.2,6.5c1.1,0,1.9,0.1,2.5,0c6.8-0.7,12.6-3.2,18.7-5.3
		c11-3.8,21.8-8,33.8-9.8C225.9,588.8,226.3,588.5,227.4,588.1z M259.9,506.4c3.8-1.4,7.2-3.1,10.4-5.1c11.2-7,19.3-16,27.3-25.1
		c1.4-1.5,2.1-3.4,3.3-5c1.2-1.8,1-3.6,0.1-5.4c-1.6-3.3-3.2-6.7-4.8-10c-0.4-0.7-1.1-1.3-2-2.3c-4.4,6.5-6.8,13.2-12.6,18.4
		c-5.9,5.3-12.6,10.1-20.2,13.5C259.1,492.9,258.5,501.7,259.9,506.4z M387.7,98.3c-1.3,0.6-2.5,1.2-3.8,1.8
		c-8.5,3.9-9.7,6-8.1,13.4c0.7,3.3,1.3,6.7,1.9,10c0.6,3.6-0.2,7-1.6,10.5c-2,4.8-3.7,9.7-5.5,14.6c-0.2,0.7-0.2,1.4-0.4,3
		c2.9-2,4.9-3.6,7.1-5c2.4-1.6,5-3.1,7.5-4.6c2.3-1.4,4.6-2.8,6.8-4.1c1.2-7.1,3.1-13.9,2.3-20.9c-0.6-5.2-0.1-10.5,0.8-15.7
		c0.1-0.6,0-1.2,0-2.3c-5.9,3.2-6.4,8.8-11.5,11.8c-0.5-0.5-1.1-0.7-1.1-1C381.9,105.5,386.1,102.4,387.7,98.3z M249.2,86
		c-0.3,4.1-1.1,8.1,0.4,12.1c0.4,1.1,1.1,2.3,0.8,3.3c-1,3.7,0.9,6.5,3.5,9.4c1.9,2.2,3.3,4.6,5.2,6.8c3,3.5,4.8,7.6,8.6,10.9
		c2.6-4.7,5-9.2,7.6-13.9c-1.3-5.1-5.6-9.2-10.3-13.1c-5.6-4.7-12.1-8.9-14.7-15.3C250.2,86.1,249.8,86.1,249.2,86z M416.1,393.4
		c-1.2-2.3-1.6-3.5-2.4-4.6c-2.3-3.3-4.7-6.6-7.1-9.8c-1.4-1.9-2.8-3.9-4.6-5.7c-3.9-3.8-8.1-7.5-12.2-11.2
		c-0.6-0.6-1.2-1.2-1.9-1.7c-1.4-1-3-1.1-4.7-0.3s-2.3,2-1.5,3.3c1.5,2.5,3.3,5,4.8,7.6c2.7,4.6,6.4,8.8,10.7,12.7
		C401.8,388,407.8,390.8,416.1,393.4z M252.6,543.9c5-9.6,5.7-19.6,8.2-29.2c0.2-0.7-0.1-1.4-0.1-2.5c-2.3,0.7-4.3,1.3-6.3,1.8
		c-3.4-2.6-0.9-5.9-2.1-8.8c-1.6,0.5-2.1,1.4-2.5,2.2c-1,1.9-1.8,3.9-2.7,5.8c-1.7,3.7-1.7,7.4-0.9,11.1c0.8,3.5,1.8,7,2.9,10.5
		C250.1,537.8,251.4,540.8,252.6,543.9z M279.6,576.6c-2.7-3.7-4-4.4-7.6-3.2c-8.3,2.8-16.3,6.1-23.1,10.8c-0.7,0.5-0.9,1.2-1.5,1.9
		C258.8,586.2,273.6,581.7,279.6,576.6z M353.8,189.8c0.9-3.9,1.4-6.4,2-9c0.6-2.6,1.2-5.3,2-8.5c-5.3,5.1-10,9.6-14.8,14.1
		c-1.1,1.1-2,2.3-1.6,3.6c1.4,4.4,2.8,8.7,4.4,13.1c0.1,0.2,1.2,0.3,2.4,0.5c0.2-2.8,0.8-5.4,0.6-8c-0.1-2.8-0.4-5.6-0.4-8.4
		c0-0.6,0.7-1.2,1.3-2.3C351.1,186.5,351.9,187.5,353.8,189.8z M194.6,828.4c1.2-6.4,1.7-11.6,3.1-16.7c1.9-6.6,1-13.1-1.5-19.4
		c-2.5-6.2-3.7-12.4-3.7-18.8c0-0.7,0.3-1.5-1.3-1.9c-0.4,0.3-1.1,0.5-1.4,1c-3.1,4.2-0.8,8.3,0.7,12.4c0.5,1.2,1.2,2.4,1.6,3.7
		c0.8,2.7,1.1,5.6,2,8.3c1.8,5.3,1.9,10.7,1.2,16.2C194.7,817.7,193.4,822.3,194.6,828.4z M403.3,345c-1,1.8-3.3,3-3.7,5.3
		c8.2,1.5,15.8,3.8,24.9,4.8c-3.5-3-5.8-5.9-9.1-7.6c-2.9-1.5-6.9-1.8-10.5-2.6C404.7,344.8,404.5,344.9,403.3,345z M294.3,387.1
		c1.9,5.9,3.8,11.7,5.8,18.1c1.1-1.1,2-1.7,2.5-2.5c1.4-2.2,2.4-4.5,4.1-6.6c2-2.4,1.6-4.6,0.4-7c-0.5-0.9-1.2-1.6-3-1
		c0,1,0,2.1,0,3.2c0,0.9-0.1,1.9-0.4,2.8c-0.1,0.4-1,1-1.5,1c-0.5,0-1.4-0.4-1.6-0.8c-0.5-0.8-0.8-1.7-1-2.6
		c-0.3-1.3-0.3-2.6-0.9-3.9C298.2,386.6,296.8,386.4,294.3,387.1z M227,372.6c-0.3,0.5-0.9,0.9-1,1.5c-0.9,4.9-3.4,9.3-6,13.7
		c-0.1,0.2,0.4,0.5,0.7,1c2.1-1.2,4.2-2.5,6.4-3.7c4.1-2.2,6.4-5.1,6.1-9.3c-1.4-0.9-3.1-2-4.8-3C228.2,372.6,227.6,372.7,227,372.6
		z M473.7,350c7.1,3.9,14.6,6.9,19.1,7.7C489.7,351.1,482.8,349.5,473.7,350z M550.5,352.8c0.7-3,0-5.4-2-8.1
		c-2.2,0.6-4.4,1.2-6.9,2C543.8,349.6,546.9,351.1,550.5,352.8z M196.9,364.1c4.4-1,7.6-1.5,10.2-3.8c-1.8-1.3-3.3-2.4-5-3.6
		C199.7,358.9,198.1,360.9,196.9,364.1z M189.9,254.9c-3.2-1.1-6.2-1.3-9.7,0.1c2.5,1.8,4.6,3.2,6.8,4.8c0.7-1,1.6-2.1,2.3-3.1
		C189.6,256.1,189.7,255.6,189.9,254.9z M172.3,332.6c4.3,0,7.4,0.3,10.8-0.3c-0.4-1.4-0.8-2.6-1.2-4.1
		C178.4,329.3,174.9,329.4,172.3,332.6z M312.9,196c-0.3-2-0.5-3.5-0.8-4.9c-0.1-0.3-0.6-0.6-1-0.7c-0.3-0.1-0.9,0.2-1.1,0.4
		c-1.4,1.5-2.3,3.2-2.3,5.5C309.3,196.2,310.6,196.2,312.9,196z M336.2,194c-2.7,0.5-2.9,2.1-3.2,3.9c1.7,1.2,3.5,2.3,6.2,4.2
		C338.4,198.7,338.4,196.2,336.2,194z M233.3,212.5c-2.5-1.4-4.6-2.4-8-2.7c0.9,2,1.5,3.4,2.4,5.3
		C229.7,214.1,231.3,213.4,233.3,212.5z M178.8,308.6c-3.2,1.2-6.1,1-8.3,3.3c3.1,0.4,5.5,1.7,8.7,0.8
		C179,311.5,178.9,310.5,178.8,308.6z M207.6,226.2c-0.3,2.2,1.2,3.5,3.2,5.1c1.1-1.1,1.8-2,2.6-2.9
		C212,226.7,210.2,226.1,207.6,226.2z M173.2,274.5c1.4,1.8,3.2,2.7,5.9,2.6c0.4,0,1-0.4,1.1-0.6c0.1-0.5,0.1-1.3-0.3-1.5
		C177.9,274,175.9,273.6,173.2,274.5z M264.2,386.3c2.7-1.1,3.4-2.6,3.6-4.5c-1.4-0.2-2.5-0.3-4.1-0.5
		C263.9,383.1,264,384.5,264.2,386.3z M271.3,199c0.7,0,1.3-0.1,2-0.1c-0.6-2,0-4.2-3.4-6.5C270.5,195,270.9,197,271.3,199z
		 M366.3,212.4c0.2,1.5,0.9,2.3,2.7,2.4c1.3-1.1,2.3-2.3,0.9-4.1C368.5,211.3,367.4,211.9,366.3,212.4z M408.4,337.5
		c-0.8,2-1.8,3.2-1.4,3.9c0.6,1.1,2.2,1.2,3.5,0.3c0-0.4,0.1-0.8,0-1.1C410.1,340,409.6,339.3,408.4,337.5z M388.2,222.2
		c-2.3-0.4-3.7,0.6-5,1.7c-0.7,0.6-1.2,1.6,0.4,2.1C386.6,224.5,386.6,224.4,388.2,222.2z M379.6,368.4c-0.2-1.4-0.1-2-0.5-2.4
		c-0.5-0.6-1.2-1-1.9-1.4c0,0-0.5,0.2-0.5,0.3c0.1,0.7,0.1,1.4,0.5,2C377.5,367.3,378.3,367.6,379.6,368.4z M421.8,286.6
		c-0.6-0.7-0.8-1.2-1.3-1.4c-0.4-0.2-1.1,0.1-1.6,0.2c0.2,0.5,0.3,1.1,0.8,1.3C419.9,286.9,420.7,286.7,421.8,286.6z M252.5,206.6
		c0-1.5-1.3-1.9-3.1-2.3C250,206.8,250,206.8,252.5,206.6z M313.7,386.5c-0.4-0.3-0.8-0.6-0.9-0.6c-0.5,0.2-0.9,0.5-1.2,0.9
		c-0.1,0.1,0.4,0.5,0.6,0.7C312.6,387.2,313.1,386.9,313.7,386.5z M240.4,377.2c-0.4-0.2-0.7-0.4-1-0.5c-0.1,0-0.5,0.2-0.5,0.3
		c0.1,0.3,0.3,0.6,0.5,0.9C239.7,377.7,240,377.5,240.4,377.2z M294.2,608.5l0.2-0.3l-0.3-0.1L294.2,608.5z M260.9,589.3l-0.5,0.2
		l0.5,0.2L260.9,589.3z M422.9,307.2c-0.1-0.1-0.3-0.4-0.4-0.4c-0.4,0.1-0.8,0.2-1.1,0.3c0.1,0.1,0.3,0.4,0.4,0.4
		C422.1,307.5,422.5,307.3,422.9,307.2z"/>
	<path class="st0" d="M288.1,240.4c4.5-3.8,9.9-4.5,15.8-3.2c5,1.1,10,2.2,14.9,3.4c9.2,2.3,16.4,6.9,22.3,12.5
		c3.1,2.9,5.9,6.1,8.3,9.3c4,5.5,7,11.2,6.8,17.6c-0.1,3.4,0,6.8-0.2,10.1c-0.3,4.2-1.7,8.1-5.2,11.5c-2.4,2.4-4.2,5.1-6.2,7.6
		c-4.4,5.6-10.4,9.9-17.9,13.2c-1.7,0.7-3.6,1.3-5.1,2.3c-5.5,3.5-12.2,4.9-18.8,6.4c-6.5,1.5-13.2,0.8-19.9-0.2
		c-10.4-1.7-19.5-5.2-28.1-9.8c-5.6-3-8.9-7.1-11.3-14.1c1.9-1.2,2.8,0,3.2,1c2,4.2,5.6,7.5,10.5,9.9c10.5,5.2,21.9,8.6,34.4,9.9
		c7.5,0.7,14.2-1.4,20.6-3.8c5.5-2,10.6-4.8,15.7-7.4c6.1-3.1,10.6-7.2,13.8-12.2c0.8-1.2,1.7-2.3,2.7-3.3c3.2-3.1,4.7-6.6,5.2-10.4
		c2.3-15.4-4.2-28.5-18.8-39.2c-1.9-1.4-4.3-2.6-6.7-3.5c-7.3-2.8-14.9-5.1-22.5-7.1c-3.2-0.9-6.3-0.7-9.5,0.1
		C291.1,241.2,289.6,242.2,288.1,240.4z"/>
	<path class="st0" d="M243.7,303.8c-2.6-0.8-3.1-2.2-2.2-4c0.1-0.3,0.7-0.5,1.1-0.5c0.4,0,1,0.2,1.2,0.4
		C245,301,245.1,302.4,243.7,303.8z"/>
	<path class="st0" d="M123.5,357.5c-1.1,3-4,4.4-6.4,5.7c-7.1,3.9-12.4,9-18.2,13.9c-3.1,2.6-6.1,5.4-9.2,8c-0.4,0.3-1.3,0.3-2,0.4
		c-0.1-0.7-0.4-1.3-0.3-2c0-0.3,0.5-0.6,0.8-0.9c7.4-7,14.2-14.4,23.4-20c2.7-1.6,5.4-3.2,8.2-4.7
		C120.7,357.4,122.1,357.6,123.5,357.5z"/>
</g>
<path class="st0" d="M1501.9,925.5c1.7-7.3,4.6-14.2,5.8-21.7c1.2-7.4,3.2-14.7,4.3-22c1.4-8.7,2.2-17.5,3.4-26.3
	c0.6-4.2,1.3-8.3,2.1-13.3c-3.9-5.3-3.8-11.9-3.4-18.4c0.4-6.3,1.1-12.7,1.5-19c0.2-2.3,0.1-4.6-0.2-6.9c-0.9-6.8-2.7-13.4-5.3-19.9
	c-0.2-0.5-0.8-1-1.4-1.7c-1.4,1.3-2.8,2.5-4.1,3.6c-10,8.2-20.7,15.6-33,21.2c-6.2,2.8-11.9,6.3-18,9.3c-5.7,2.8-11.7,5.2-17.4,8
	c-7.8,3.8-15.2,8.2-21.9,13.4c-1.5,1.1-3.1,2.2-4.1,3.6c-4.5,6.2-10.3,11.7-14,18.3c-0.9,1.6-2.1,2.8-4,3.5
	c-2.7-1.5-3.7-3.6-4.3-6.2c-1.6-6.5-3.7-12.9-5.9-19.3c-2.6-7.7-5.6-15.4-8-23.2c-2.4-7.6-4.4-15.2-6.4-22.8c-1.4-5.4-1.2-10.7,0-16
	c2.3-10.1,8.1-18.3,15.6-25.8c6-6,12.3-11.7,19.1-17c6.4-5,13.8-8.7,22-11.2c6.1-1.8,12.6-2.3,19.3-0.6c4.1,1.1,7.7,2.7,10.3,5.7
	c0.5,0.6,1.1,1.2,1.8,1.9c4.5-1.5,8.7-2.8,12.7-4.9c4.1-2.1,8.6-3.8,13.2-5.2c7.1-2.1,14.8-2.3,22,0c11.5,3.7,19.2,11.6,19.9,22.8
	c0.1,1.5-0.1,3.1-0.1,4.6c-0.5,9.8-1.1,19.6-1.4,29.4c-0.2,5.2,0.5,10.4,2.7,15.4c1.9,0.3,2-0.8,2.1-1.6c0.9-6.7,1.7-13.3,2.6-20
	c0.7-5.3,1.4-10.7,2.3-16c1.2-6.8,2.2-13.7,3.9-20.3c2.3-8.8,2-18,3.7-26.8c0.6-3.2,1.1-6.5,2.1-9.5c2.8-8.6,4.2-17.6,5.5-26.5
	c1.1-7.2,1.9-14.5,2.9-21.7c1.5-10.9,1.2-21.9,1.1-32.9c0-2.9-0.1-5.8-0.4-8.7c-0.2-2.1-0.9-4.2-1.5-6.7c-1.7,0.4-3,0.5-4.1,1
	c-3,1.2-5.8,2.6-8.8,3.9c-7.9,3.5-16.4,5.5-25.5,6.2c-5.3,0.4-10.5,0-15.4-1.8c-5.7-2.1-11.1-4.9-16.6-7.5c-1.1-0.5-2.4-1.3-2.2-3
	c1.5,0,3,0,4.5,0c2.6,0,4.8-0.8,6.8-2c1.7-1,2.9-2.3,2.7-4.3c-0.1-0.8,0-1.5,0-2.3c-0.9-9.1,4.1-15.7,10.9-21.7
	c2.6-2.3,5.8-3.3,9.5-3.4c14.9-0.1,27.7,4,37.3,14.9c0.4,0.5,0.8,1,1.2,1.5c1.5,1.5,2.8,3.4,5.6,2.9c3.4-0.7,5.7-3.1,5.7-6
	c0-2.7-0.2-5.4-0.2-8.1c-0.1-4-0.2-8.1-0.3-12.1c0-1.3-0.1-2.7-0.4-4c-2.6-10.5-6.5-20.8-10.1-31.2c-1.5-4.2-4.6-6-9.4-6.7
	c-9.7-1.3-19.4-1.8-29.2-2c-0.9,0-1.8-0.1-2.7,0.1c-8.7,1.5-17.5,0.4-26.3-0.1c-5.5-0.3-10.7-1.5-15.8-3.6c-6-2.5-12.2-4.7-18.3-7.1
	c-3.3-1.4-6.6-2.9-9-5.5c-0.7-0.7-1.1-1.6-1.9-2.9c2-0.3,3.4-0.7,4.9-0.6c8.7,0.7,17.1-0.1,25.2-2.5c4.2-1.2,8.7-1.6,13.1-2.4
	c1.1-0.2,2.2-0.3,3.3-0.5c5.4-0.8,9.9-2.8,13.4-6.6c3.4-3.7,7.9-6.5,13.8-8c-0.5-2.7-1.1-5.4-1.5-8.1c-0.4-2.5-0.6-4.9-0.9-7.9
	c-3.4,1-5.2,2.8-6.7,4.8c-3.7,5.1-7.8,10-9.3,16.1c-0.7,2.8-3.7,3.4-6.2,1.3c-1.8-1.5-3.5-3.2-4.8-5.1c-6.5-9-8.9-18.5-7.2-28.6
	c0.8-4.5,1.7-9.1,3.8-13.3c0.8-1.5,1.2-3.2,1.8-4.6c-1.4-1.2-2.4-0.4-3.3-0.1c-4.9,2.1-9.9,4.2-14.6,6.6c-7.3,3.6-15.3,5.8-23.7,7.1
	c-4.3,0.6-6.6-1.1-6-4.9c0.4-2.6,1.2-5.2,2-7.8c1.8-5.5,3.9-10.9,5.7-16.4c1.1-3.3,2.4-6.5,4.4-9.4c1.2-1.9,2.6-3.8,2.6-6.3
	c-2.1-0.6-3.6,0.4-5.3,0.6c-1.6,0.2-3.1,0.6-4.6,0.8c-4.8,0.7-9.7,1.5-14.6,1.8c-10.2,0.6-19.9,2.6-28.9,6.3c-2,0.9-4.2,0-4.9-1.9
	c-0.4-1.1-0.5-2.3-0.3-3.4c0.3-2,0.4-3.8-1.4-5.5c-1.4-1.4-1.1-2.9-0.4-4.4c0.3-0.5,0.4-1.1,0.8-1.5c4.8-5,7.1-11.2,11.1-16.6
	c1.2-1.6,2.6-3,4-4.5c4.7-4.9,9.2-10,14.3-14.7c4.3-3.9,9.4-7.2,14.2-10.8c2.6-2,5.3-3.8,8.5-6.1c-1.2-0.5-1.8-1-2.6-1.1
	c-6.9-1.3-13.8-2.8-20.8-3.8c-4.9-0.7-9.9-0.7-14.9-1c-3.8-0.2-7.7-0.2-11.6-0.4c-5.3-0.3-10.1-2.5-14.8-4.6
	c-1.2-0.5-2.2-1.5-3.1-2.4c-1.5-1.6-1.2-3.4,0.7-4.5c1.2-0.8,2.7-1.3,3.9-2c2.1-1.3,4.5-2.4,5.5-4.9c-0.8-1.6-2.5-2.1-4.3-2.1
	c-1.6,0-3.1,0.2-4.6,0.5c-2.8,0.6-5.4,0.3-8.1-1.2c-1.1-2.2-0.9-4.4,0.4-6.5c4.6-7.3,9.8-14.3,17.2-19.8c2.8-2,6.2-3.5,9.3-5.2
	c1.8-1,3.8-1.7,5.5-2.5c0.1-1.7-1.3-1.9-2.2-2.3c-7.3-3.4-14.9-6.4-22.1-10.1c-5.6-2.8-10.9-6.1-16-9.5c-3.3-2.2-5.7-5.3-7.1-8.7
	c-1.3-3.1-0.3-4.8,3.3-5.6c4.9-1.1,9.5-3.1,14.9-3.1c0.6,0,1.1-0.6,1.9-1.1c-1.6-0.9-2.9-1.6-4.2-2.3c-2.1-1.2-4.2-2.4-6.3-3.7
	c-2.1-1.3-2.8-3.2-2.5-5.2c0.2-1.8,1.1-3.3,3.4-3.7c3.1-0.6,6.1-1.2,9.2-1.6c8.4-1.2,16.4-3.3,24.3-5.9c6.4-2.1,13.3-2.9,20.4-3.2
	c1.3-0.1,2.7,0,4-0.1c0.7-1.5-0.7-2.3-1.5-3.1c-5.6-5.3-11.5-10.4-17-15.9c-3-3-5.5-6.4-8.2-9.7c-2.7-3.2-5.5-6.4-8-9.8
	c-2.7-3.6-6.4-6.3-10.2-8.9c-1.4-1-2.9-2-4.1-3.2c-1.9-1.9-1.1-4.3,1.7-5c1.2-0.3,2.6-0.4,4-0.4c7.5,0.1,14.9,1.4,22.3,2.6
	c4.5,0.7,9,1.5,13.4,2.5c4.4,1,8.7,2.4,13.8,3.8c-2.1-5-5.8-8.6-8.3-12.6c-2.6-4.2-6.2-7.9-7.8-12.9c0.9-0.5,1.9-1.3,3-1.6
	c6.1-1.6,12.5-0.8,18.8-0.1c3.6,0.4,7.2,0.9,10.8,1.3c7.3,0.7,14.3,2.6,21.1,5.1c0.8,0.3,1.7,0.6,2.5,0.9c0.2,0.1,0.4,0,1-0.1
	c0.1-2.6,0.1-5.2,0.3-7.9c0.4-5.4,0.7-10.8,1.6-16.1c0.9-4.9,2.5-9.7,4.1-14.4c0.4-1.3,2.1-2.3,3.7-4.1c0.1-0.7,0.1-2.2,0.3-3.7
	c0.3-1.8,2.7-2.8,4.6-1.7c1.5,0.9,3,2,3.8,3.3c3.7,5.7,10,8.9,16.3,11.7c9.7,4.3,18.9,9.2,28,14.4c0.1,0.1,0.4,0,0.6,0
	c0.3-0.3,0.7-0.5,0.8-0.8c1-4.5,1.9-9,3-13.5c2.5-10.3,5.1-20.5,7.8-30.7c0.7-2.6,1.5-5.2,2.8-7.6c0.9-1.7,2.4-3.1,3.9-4.4
	c1.3-1.1,3.8-0.4,4.4,1.2c0.5,1.3,0.7,2.6,0.9,4c0.3,2,0.3,4,0.6,6.1c1.9-0.3,1.4-1.3,1.5-1.9c0.2-3.7,0.3-7.3,0.7-11
	c0.3-2.5,1.5-4.8,4-6.3c1.9-1.1,4.2-0.5,4.9,1.4c0.7,1.7,1.4,3.4,1.6,5.1c0.4,4.4,3.1,7.8,6.7,10.8c5.4,4.5,9.8,9.5,14,14.8
	c0.2,0.3,0.7,0.5,1.4,1c0.6-0.7,1.5-1.3,1.8-2.1c1.3-3,2.6-6,3.7-9.1c2.3-6.2,6.1-11.7,11.7-16.1c2.2-1.7,4.7-2.8,7.6-3.2
	c4.5-0.8,6.9,0.5,7.8,4.5c1.3,5.9,3.9,11.2,7.8,16.3c2.4,3.1,3.8,6.7,5.7,10.2c1.1,0.3,1.5-0.7,2.2-1.4c2.3-2.2,5-4.3,7-6.7
	c2.8-3.3,5.2-6.9,7.6-10.5s4.5-7.3,6.8-11c3.4-5.4,9.5-11.3,14.5-14.3c1.7,1,2.1,2.5,2.1,4c0.1,2.9,0.3,5.8-0.1,8.7
	c-1,6.7-0.9,13.4,0.2,20.2c0.2,1.5,0.3,2.9,0.5,5c5.3-2.9,10.1-5.4,14.8-8.1c2.6-1.5,5.2-2.8,8.6-2.7c2.8,0,3.9,1.1,3.4,3.2
	c-0.1,0.4-0.2,0.7-0.3,1.1c-3,8.4-3.8,17.2-3.2,26.2c0.2,2.1,0.2,4.3,0.2,6.4c0,2.9-0.4,5.8-1.8,8.4c-0.4,0.8-0.5,1.8-0.9,3.3
	c5.9-2.3,10.8-4.5,15.2-7.6c5.2-3.7,10.6-7.2,16.2-10.6c3.4-2.1,7.1-3.6,11.4-4.4c3.4-0.6,6.6-1.9,10.4-3.1c0.2,1.4,0.7,2.3,0.5,3.1
	c-1.1,4.5-2.1,9-3.6,13.4c-0.8,2.5-2.3,4.9-3.8,7.2c-1.1,1.8-2.4,3.6-4,5.2c-4.2,4.3-5.8,9.7-8,14.8c-0.1,0.3,0.1,0.7,0.3,1.4
	c6.4-2,11.4-5.4,15.8-9.5c7.4-6.7,16.4-10.6,27.7-10.3c5.2,0.1,10.4,0.5,15.6,1c2.8,0.3,3.9,1.4,4.4,3.8c0.6,3.1-0.7,5.6-2.5,8.1
	c-1.2,1.6-2.6,3.1-3.2,4.9c-2.8,7.6-8.8,12.9-16,17.4c-5.2,3.2-10.4,6.3-15.7,9.2c-10.4,5.8-19.5,12.8-27.1,21.1
	c-0.4,0.4-0.6,0.9-1.3,2c3.7-0.9,6.8-1.7,10-2.4c3.2-0.8,6.4-1.5,9.7-2.2c3.2-0.7,6.4-1.5,9.7-2.1c3.3-0.6,6.6-1.2,9.8-1.6
	c3.3-0.5,6.7-0.9,10-1.1c3.6-0.3,7.2-0.4,10.8-0.5c3.4-0.1,6.7-0.4,10.1-0.4s6.8,0.2,10.2,0.5c3.4,0.3,6.8,0.7,10.2,1
	s6.8,0.5,10.2,0.9c3.3,0.4,6.9-0.4,10,2.4c-1.6,4.2-5.9,6.6-10,9.8c1.8,0.6,3,1.1,4.2,1.3c4.6,0.8,8.7,2.6,12.7,4.7
	c1.6,0.8,3.4,1.5,3.3,3.4c-0.1,1.9-1.7,2.5-3.5,2.8c-1.1,0.2-2.1,0.5-4.3,1c2.6,0.7,4,1.1,5.4,1.4c6,1.2,10.9,4.3,15.5,7.7
	c1.5,1.1,3.1,2.6,2.3,5c-1.2-0.2-2.6-0.1-3.6-0.6c-7.6-4.2-15.8-4-23.8-3.5c-6.2,0.4-11.2,3.4-16.5,5.7c-2.5,1.1-4.5,2.8-6.5,4.6
	c-5.4,4.9-10.9,9.8-16.8,14.1c-4.5,3.3-9.4,6.1-15.1,7.9c-1,0.3-1.9,0.7-2.8,1.1c0.1,1.5,1.3,1.3,2,1.3c11,0.4,21.5-1.1,31.6-4.2
	c3.9-1.2,8-2.4,12.2-2.9c3.2-0.4,6.8-0.1,10.1,0.6c7,1.5,13.9,2.4,20.9,2.1c1.8-0.1,3.7-0.3,4.9,1.8c-0.4,0.5-0.8,1.1-1.3,1.7
	c-1.4,1.7-3.3,3.1-4.2,5c-2,4.5-6,7.3-10.6,9.6c-6,3.1-12,6.2-18.8,8.2c-3.5,1.1-6.7,2.6-9.5,5c-4.1,3.5-9.8,4.9-14.9,7.2
	c-1.1,0.5-2.3,1-3.9,1.6c7.6,5.8,15.6,10.6,21.6,17.3c6,6.7,10.3,14.1,15.1,21.7c4.3,1.6,9,2.9,14.1,2.8c2,0,2,0.1,4.6,2.3
	c-1.7,5.3-7.3,7.7-11.5,11.3c1.2,4.4,2.3,8.8,1.6,13.2c-0.1,0.8-0.1,1.5-0.3,2.3c-0.3,1.8-1.4,3-2.5,2.9c-1.7-0.1-2.1-1.3-2.9-2.2
	c-4.1-5-9.8-8.5-15.4-12c-0.9-0.5-2.1-0.8-3.2-0.9c-4.3-0.4-8.6-0.7-12.9-1.1c-0.4,0-0.9-0.1-1.4,0c-6.1,0.7-12.3,1.5-18.3,2.2
	c0,0.8-0.2,1.2,0.1,1.5c4.2,5.8,8.8,11.1,14.6,15.9c4.4,3.7,9.5,6.4,14.8,8.8c8.5,4,15.6,9.3,22.2,15.3c2.6,2.3,4.6,5,5,8.2
	c-0.8,0.4-1.3,0.9-1.9,0.9c-7-0.2-14-0.3-21-0.9c-6.6-0.6-12.6-3.1-18.1-6.7c-7-4.6-13.7-9.5-19.8-15c-3.6-3.3-8.4-4.9-13.3-6
	c-0.6-0.1-1.2,0.1-2.1,0.2c1.8,2.5,3.5,4.9,5.3,7.1c4.7,5.7,7.7,12.2,11.5,18.3c1.3,2.1,2.4,4.3,3.6,6.4c4.8,9,9,18.1,9.8,28
	c0.3,3.5,1.3,6.9,1.9,10.4c0.4,2.4-0.8,3.6-3.6,3.8c-2.7,0.1-5.4,0.2-8.1,0.1c-4.1-0.1-8.1-0.9-11.5-3c-1.8,0.9-0.8,2.1-0.9,3.1
	c-0.1,3.3,0.1,6.6-0.1,9.8c-0.1,2-0.4,3.9-3.1,4.6c-0.6-0.1-1.3-0.1-1.9-0.5c-5.2-3.1-10.9-5.1-16.5-7.5c-4.3-1.8-8.4-4.2-12.2-6.9
	c-3.8-2.7-6.3-6.4-7.9-10.4c-1.4-3.7-2.5-7.5-3.8-11.3c-1.8-5.1-3.7-10.1-5.6-15.2c-1.6-4.1-3.4-8.1-5.1-12.4
	c-4-1.7-8.2-3.4-12.7-5.2c0,0.8-0.2,1.4,0.1,1.8c2.3,4.7,2.9,9.5,2.7,14.3c-0.2,5.8,0.3,11.6,1.6,17.4c0.7,2.9,0.7,5.8,1.5,8.6
	c0.9,3.4,2.4,6.8,3.5,10.1c1.9,5.7,4.5,11.3,5.5,17c1.6,9.1,1,18.1-3.3,26.6c-1,2-2.3,3.6-4.8,4.4c-1.6-1-2-2.5-2.3-4
	c-1.4-7.2-6.5-12.5-12.9-17.1c-0.3-0.2-0.8-0.2-1.3-0.3c-1.3,0.4-1.1,1.5-1.1,2.4c-0.1,2.1,0,4.2,0,6.4c0,7.3-1.9,14-7.1,19.8
	c-1.9,2.1-3.3,4.5-5.1,6.6c-0.7,0.9-1.8,1.5-3.3,2.5c-0.7-1.5-1.7-2.5-1.6-3.4c0.5-6-2.1-11.5-4.5-17c-2.2-5-4.3-10-6.3-15
	c-1.2-3.2-2.9-6.2-5.8-8.6c-1.5-0.2-1.8,0.9-2.2,1.7c-1.8,2.8-3.6,5.6-5.1,8.5c-1.8,3.2-3.5,6.5-4.9,9.9c-2.3,5.3-4.8,10.6-8.4,15.3
	c-1.2,1.6-2.6,3.1-4.2,4.3c-2.2,1.5-4.4,3-6.1,5c-0.4,0.5-1.6,0.8-2.4,0.8c-1.3-0.1-1.7-1.2-1.8-2.2c-0.4-2.3-1.1-4.6-1.3-6.9
	c-1-9.2-4.1-18-9.3-26.8c-3.2,3.9-6.8,7.2-7.6,12.2c-1.9,11.4-3.9,22.7-5.9,34c-1.8,10-3.6,20.1-7.1,29.7c-1.6,4.3-3.6,8.5-4.4,13.1
	c-0.1,0.8-0.2,1.5-0.3,2.6c0.7,0.4,1.4,0.8,2.2,1.1c8.6,3.5,8.9,9,5.2,14.4c-2.1,3.2-5.3,5.5-8.9,7.3c-3.2,1.5-4.6,3.6-5.1,6.7
	c-1.4,10.1-5,19.7-6.9,29.7c-2.1,11.1-4.8,22.1-5.4,33.5c-0.2,3.7-0.8,7.3-1.2,10.9c-0.1,0.7,0,1.3,0.9,2.3c1.3-1.9,2.6-3.7,3.8-5.7
	c5.7-9.1,11.2-18.3,17-27.4c2-3.1,4.4-6.1,6.6-9.1c1-1.4,2-2.9,2.9-4.4c2.7-4.6,3-9.5,1.5-14.6c-0.7-2.5-1.5-5-1.6-7.5
	c-0.4-10,7.4-15.2,19.2-13.5c3.1,0.4,6.2,1.5,9.2,2.5c5.6,1.8,11.2,3.6,16.8,5.5c4.3,1.5,8.8,2.3,13.4,2.4
	c11.7,0.2,22.9,2.8,34.2,5.4c8.3,2,16,4.9,23.8,7.8c8.3,3,16.1,7,22,13.3c1.4,1.5,3.4,2.7,5.2,4c3.6,2.6,4.8,4.1,7.1,8.7
	c-2.2,0.8-4-0.5-5.7-1.2c-9.8-3.9-19.9-5.9-30.5-5.3c-15.1,0.9-30.3-0.7-45.5-1.4c-8.1-0.4-16.2-2-24.3-3
	c-9.4-1.2-18.5-0.2-27.5,1.3c-4,0.7-6.5,3-8.3,5.9c-4.3,6.6-8.5,13.2-12.7,19.8c-1.2,1.8-2.4,3.6-3.6,5.3c-2.8,4.2-5.6,8.5-8.4,12.8
	c-3.9,6.1-7.8,12.2-11.4,18.5c-2.1,3.5-3.9,7.2-5.4,11c-4.1,10-8.4,19.9-10.1,30.6c-1.3,8.5-4.1,16.8-5.8,25.2
	c-1.1,5.1-1.4,10.3-2.3,15.4c-2.5,14.8-4.1,29.7-5.7,44.6c-0.6,5.2-1.7,10.2-2.5,15.4c-1.6,9.7-3.3,19.3-4.9,29
	c-1.5,8.9-3,17.8-4.4,26.7c-0.5,3-0.5,6.2-1.1,9.2c-1.7,9-3.6,18.1-5.5,27.1c-0.5,2.3-1.1,4.5-1.6,6.7c-1.4-0.1-2.7-0.1-4.1-0.2
	c0.6-3.8,1.1-7.6,1.7-11.4c1.4-7.9,3.3-15.8,4.3-23.8c1.1-9.4,2.1-18.7,4.1-27.9c1.9-8.4,3.1-17,4.5-25.5c1.6-10,3.4-20.1,4.5-30.2
	c1.6-14.3,3.8-28.6,6.1-42.8c1.3-7.8,3.1-15.4,4.2-23.2c2.4-16.8,7.9-32.8,14.7-48.5c1.3-3,2.7-6,4.4-8.8c4.9-8,9.8-15.9,15-23.8
	c6-9.2,12.2-18.3,18.3-27.4c2.8-4.1,5.6-8.1,9.6-11.4c0.7-0.6,0.9-1.7,1.3-2.5c1.5,0,3-0.1,4.5-0.2c2.1-0.5,4.2-1.2,6.3-1.6
	c7.7-1.2,15.6-1.4,23.5-0.6c14.7,1.6,29.3,2.8,44,3.5c2.3,0.1,4.5,0.3,6.8,0.3c2,0,4.1,0.5,7.4-0.4c-6.9-1.1-12.4-2.3-18.1-2.4
	c-10.5-0.2-20.6-2.5-30.5-5.8c-8.5-2.8-17.2-3.9-26-2.5c-5.7,1-10.3,3.3-13.6,7.3c-0.3,0.4,0.1,1.3,0.2,2c-1.6,0-3.1,0-4.6,0.1
	c-0.8,0-1.5,0-2.9,0.1c2.6-4.6,2.7-8.8-1-13.3c-0.3,7.8-0.1,7.9-4.2,14.6c-3.9,6.3-8.3,12.4-12.2,18.7c-7.1,11.5-14,23-20.9,34.6
	c-2.5,4.2-4.8,8.5-7.3,12.7c-0.6,1-1.4,2-3.6,1c0.5-4.2,1.1-8.6,1.6-13c1.6-11.6,3.6-23.1,4.3-34.9c0.2-2.7,0.8-5.3,1.4-7.9
	c0.8-4,1.7-7.9,2.6-11.8c0.6-2.8,1.2-5.6,1.9-8.4c1.8-6.9,3.7-13.7,5.4-20.6c0.3-1,0-2.2,0-3.7c-5.1,1-9.8,2-14.8,3
	c-0.3,2.3-0.8,4.4-0.7,6.5c0.2,6.2,0.7,12.4,1,18.6c0.2,4.8,0.3,9.7,0,14.5c-0.4,6.3-1.1,12.6-1.8,19c-0.7,6.5-1.8,13-2.1,19.5
	c-0.4,7.9-2.6,15.5-3.7,23.3c-0.1,0.6-0.3,1.2-0.6,1.6c-0.3,0.4-1,0.8-1.5,0.8c-0.5,0-1.3-0.5-1.5-1c-1.4-3-1.1-6.1-0.4-9.1
	c0.5-2.6,1.5-5.2,1.8-7.8c0.7-5.1,1.2-10.3,1.7-15.5c0.9-9,2.4-17.9,2.7-26.9c0.4-11.2-0.1-22.4-0.2-33.6c0-2.7-0.1-5.3-0.1-7.9
	c-2.4-0.6-4.1-0.3-4.9,0.9c0.9,4.5,2.4,8.7,2.6,12.9c0.6,15.1,0.8,30.2-1.9,45c-1,5.5-1.8,11-2.8,16.5c-1.1,6-2.2,12.1-3.6,18
	c-2.2,9.4-4.4,18.7-4.7,28.4c-0.1,2.9-0.6,5.7-1.2,8.6c-1.7,8.3-3.7,16.5-5.2,24.8c-1,5.3-1.3,10.7-1.9,16c-0.8,7-1.4,14.2-2.6,21.2
	c-1.7,10-3.8,20-5.6,30c-0.6,3.4-0.6,6.9-1.1,10.3c-1.5,9.7-3.2,19.3-4.7,29c-0.3,1.7-0.5,3.4-0.6,5.2c-0.6,11.2-2.4,22.1-4.7,33
	c-2.5,11.4-4.8,22.9-8.2,34.2C1505.5,925.7,1503.7,925.6,1501.9,925.5z M1709.5,439.9c0-0.3-0.1-0.6-0.1-0.9
	C1709.4,439.2,1709.5,439.5,1709.5,439.9c0.4,0.1,0.8,0.4,1.2,0.6c0-0.2-0.1-0.5-0.1-0.5C1710.3,439.9,1709.9,439.9,1709.5,439.9z
	 M1562.1,97.3c0-0.3,0-0.6,0-0.9c0-0.2-0.2-0.3-0.3-0.5c0.1,0.2,0.2,0.3,0.3,0.5C1562,96.7,1562,97,1562.1,97.3
	c1.3,0.5,1.6,1.3,1.3,2.4c1.3,0.5,1.3,1.4,1.2,2.4c3.6,4.8,4.2,6.6,3.7,10.8c-2.7-1.2-3-3.5-4.2-5.3c-1.2-1.9-2.4-3.8-3.6-5.8
	c-1.2-1.9-2.2-3.9-3.3-5.9c-1-1.8-2-3.6-2.9-5.4c-1-2-2.1-3.9-3-6c-0.9-2-1.4-4.2-2.3-6.2c-0.9-1.9,0.1-4.1-2.2-6.5
	c-1.7,6.6-4.1,12.2-5,18.3c-1.2,7.6-2.9,15.1-4.9,22.5c-1.8,6.7-1.6,13.3,0.7,20c1.8,5.5,3.9,10.9,5.1,16.5
	c1.8,8.3,6.6,15.5,12.2,22.4c0.3,0.4,1,0.6,2,1.3c-0.5-2.5-0.9-4.6-1.2-6.7c-0.1-0.7,0-1.6,1.7-1.3c1.5,3.5,2.9,7.2,4.8,10.8
	c3.5,6.6,4.2,7.2,8.1,9.6c-0.5-1.6-0.8-3-1.3-4.2c-3.1-6.3-4.4-12.8-4.6-19.4c-0.1-4.8-0.3-9.7,1.4-14.2c0.3-1,1.1-1.6,3.2-0.8
	c-0.8,11.8-1.2,23.9,4.8,35.5c1.7,0.2,2.5-0.3,2.6-1.4c0.1-0.6-0.1-1.2-0.4-1.7c-2.3-5.4-2-10.7-1.1-16.1c1.9-11,4.6-21.8,1.8-33.2
	c0.7-6.1-1.4-11.9-4.2-17.5c-0.3-0.5-0.4-1.1-0.7-1.7c-1.6-3-3.3-6.1-5-9.1c-1,0.3-1.6,0.4-2.2,0.6c0.7-1.1-0.1-1.8-1.1-2.4
	C1562.8,99.1,1561.7,98.5,1562.1,97.3z M1595.3,171.4c0.1,0.1,0.2,0.3,0.1,0.4c0,0.1-0.1,0.2-0.2,0.3c0.1-0.2,0.1-0.5,0.2-0.8
	c-0.7-0.7-1.5-1.1-2.6-0.9c0.1-0.5,0.1-1,0.2-1.5c0.2-0.8-0.1-1.3-1-1.6c0-0.4,0.2-0.8,0-1.1c-2.7-4.4-5.4-8.7-8.2-13
	c-0.2-0.3-0.8-0.3-1.5-0.6c-1.8,5.4-2.6,10.8,1.1,16.2c1.7,2.4,3.1,4.9,3.8,7.6c0.2,0.7,0.6,1.5,1.2,2.1c1.1,1.2,2.3,1,3.4,0.1
	c0.5-4.3-4.1-7.9-3.5-12.5c1.4,0.4,2.7,0.8,3.9,1.2c0.2,1.1,0.4,2.1,0.6,3.2C1593.6,170.8,1594.4,171.1,1595.3,171.4z M1539.9,463
	c3-3.7,7.6-4.9,12.6-5.1c3.9-0.1,8,0.3,12.4,0.5c-0.2-6.6-1.5-13-3.9-19.9c-1,1-1.6,1.4-2.1,2c-3,3-6,5.9-8.9,8.9
	c-3.5,3.6-6.8,7.3-10.2,10.9C1538.8,461.2,1539.4,462.1,1539.9,463c-0.3-0.2-0.7-0.6-1-0.7c-0.2-0.1-0.5,0.2-0.8,0.4
	c0.2,0,0.4,0,0.7,0C1539.1,462.8,1539.5,462.9,1539.9,463z M1563.6,583.6c-11.4-0.2-22.4,0.9-32.9,4.4c-10.4,3.5-20.8,6.7-31.8,10.3
	c2,0.4,3.5,1.1,4.9,1c9.1-0.2,18-1,26-4.6c9.8-4.5,20.2-7.6,31-9.8c1-0.2,1.7-0.9,2.6-1.3c1.7,0.1,3.3,0.1,4.9,0.2
	c-0.8-0.8-1.7-0.9-2.5-0.8C1565.1,582.9,1564.4,583.3,1563.6,583.6z M1742.7,358.3c-0.3-0.3-0.6-0.6-0.9-0.9
	c-0.1,0.1-0.3,0.2-0.4,0.3C1741.8,357.9,1742.3,358.1,1742.7,358.3c0.2,0.5,0.2,1.2,0.6,1.5c10,9.4,16.8,20.4,22.3,32
	c2.6,5.5,4.9,11,5.2,16.9c0.4,6,1.2,12,1.8,18c0.2,1.9,0.1,3.9,1.7,5.7c5.9,3,12.1,4.2,18.8,2.7c-0.2-2-0.4-3.7-0.5-5.4
	c-0.7-8.4-2.6-16.5-7-24.3c-2.5-4.4-4.8-9-7.1-13.5c-4-7.8-8.8-15.2-14.9-22c-3.3-3.8-7-6.8-12.3-8.2c-2.1-0.6-4.1-1.9-6.1-2.7
	C1744.5,358.5,1743.6,358.5,1742.7,358.3z M1819.1,377.8c0.4,0.3,0.8,0.6,1.2,0.8c0.1-0.1,0.2-0.3,0.2-0.4c-0.5-0.1-1-0.2-1.5-0.3
	c0-1.5-1.5-1.9-2.6-2.4c-7.1-3.4-14-7-20.3-11.4c-4.5-3.1-9.2-6.1-14.2-8.6c-8.2-4.2-16.6-7.9-24.9-11.8c-2-1-4.1-1.9-6-3
	c-7.6-4.2-14.7-9-22.6-12.8c-4.4-2.1-8.5-4.8-12.7-7.3c-1.6-1-2.5-0.6-3,1.1c1.9,1.6,3.8,3.2,5.8,4.9c2.2,1.8,4.4,3.6,6.6,5.4
	c1.9,1.6,4.3,2.8,5.3,6c-4.3-1.4-6.8-3.6-9.5-5.8c-2.8-2.2-5.2-4.9-10.2-7.1c2.3,3.1,3.7,5,5.2,6.9c0.8,1,1.6,2,2.4,3
	c3.3,4.4,7.8,7.8,12.6,11.1c5,3.4,10.7,5.6,16,8.4c3.8,2.1,7.9,3.2,12.1,4.2c5.3,1.2,10.6,2.6,15.9,3.9c4.5,1.2,8.4,3.2,11.8,6.1
	c1.6,1.4,3.3,2.8,4.9,4.2c7.4,6.4,15.3,12.2,25.3,15.4c4,1.3,8.9,1.7,13.7,0.6c-0.4-0.5-0.7-1.1-1.2-1.4c-6.4-3.6-12.9-7-20.1-9.4
	c-7.7-2.6-14.3-6.4-19.4-12.1c-0.6-0.6-0.9-1.4,0-2c0.2,0,0.5-0.1,0.6,0c0.9,0.5,1.9,1.1,2.8,1.7
	C1800.7,371.5,1809.4,375.5,1819.1,377.8z M1658.8,358.5c3.5-0.2,6.6-0.9,9.2-2.9c0.9-0.7,2.4-0.8,3.6-1.3c1.4-0.6,2.8-1.2,4-1.9
	c4.2-2.6,7.2-6.6,12.7-7.7c0.2,0,0.4-0.2,0.5-0.3c3.2-3.3,6.5-6.5,9.6-9.9c1.8-2.1,3.3-4.4,4.8-6.7c1.1-1.8,1.9-3.8,3-5.6
	c1.8-2.9,2.8-5.9,3.3-9.2c0.2-1.7,0.5-3.5,1.4-4.9c2-3.4,4.2-6.6,3.5-10.8c-0.1-0.5,0.2-1.1,0.5-1.6c1-2,0.8-4.1,0.8-6.2
	c0.1-4.7-2.3-9.1-3.3-13.6c-1.3-5.7-3.3-11.4-4.9-17c-0.2-0.6-0.2-1.2-0.2-1.7c-0.3-5.6-1.3-11.1-4.3-16.4c-0.7-1.3-1.3-2.5-3-3
	c-2.4-0.7-3.8-2-4.2-4.2c-0.5-2.7-2.6-4.7-5.3-5.9c-3-1.3-4.8-3.2-5.8-5.7c-0.8-2.1-2.2-3.7-3.9-5.4c-2.3-2.4-4.6-4.8-7.6-6.7
	c-2.5-1.6-4.4-4-6.6-6.1c-0.9-0.9-1.7-2.1-2.8-2.7c-4.4-2.4-8.8-4.9-12.8-8c-2.1-1.6-5.4-2.2-8.2-3c-2-0.6-3.8-1.2-5.3-2.6
	c-2.5-2.4-5.7-3.4-9.3-2.8c-2.3,0.4-4.4,0.2-6.6-0.7c-0.8-0.3-1.8-0.5-2.7-0.4c-3,0.3-5.8-0.3-8.7-0.9c-3.1-0.6-6.3-0.9-9.4-1.1
	c-1.5-0.1-3.4-0.2-4.6,0.5c-4.1,2.2-8.8,2.6-13.3,3.4c-3.9,0.6-7.2,1.8-9.9,4.1c-2.6,2.2-5.7,3.4-9.5,3.3c-0.9,0-1.8,0-2.7,0.1
	c-7.7,1.2-14.3,3.6-18.2,9.8c-2.4,3.8-5.6,7-9.9,9.6c-3,1.7-5.4,4.4-7.1,7.2c-1.4,2.3-2.6,4.7-4.7,6.7c-0.6,0.5-1.3,1.2-1.3,1.9
	c-0.4,3.5-3.1,5.6-5.4,8.1c-3.2,3.5-5.8,7.5-6.2,12.2c-0.3,3.1-1.1,6-2.9,8.7c-0.8,1.1-1.1,2.5-1.5,3.7c-1.2,3.4-2.5,6.9-1.6,10.6
	c-1.8,4.9-1.2,9.8,1.2,14.6c0.5,1.1,0.5,2.3,0.8,3.4c0.4,1.7,0.8,3.4,1.1,5.1c0.2,1.3,0.6,2.7,0.4,4c-0.6,4.9,2.7,9.5,2.4,14.3
	c0,0.3,0.3,0.7,0.6,1c2.2,2.8,4,5.8,4.5,9.2c0.1,0.7,0.8,1.4,1.4,2c4.1,4.3,6.8,9.4,11.7,13.2c1.4,1,2.4,2.3,4.2,3
	c2.9,1,5.1,2.8,6.7,5.1c0.9,1.3,1.8,2.3,3.5,2.8c1.4,0.4,2.1,1.5,3.1,2.1c3.6,2.3,6.9,5.1,11.7,5.9c4.2,0.7,8.3,2.3,12.2,3.9
	c2.4,0.9,4.6,1.4,7.2,1.7c5.2,0.6,10.8-0.3,15.4,3.4c0.8,0.6,2.1,0.6,3.2,0.9c1.5,0.4,3.1,0.6,4.6,1c7.5,1.6,15,3.4,22.7,1.5
	c1.4-0.3,3.1-0.2,4.7,0c2.3,0.2,4.5,0.6,6.3-1c1-0.9,2.4-0.7,3.8-0.3c1.1,0.3,2.2,0.4,3.2,0.5c1.3-1.2,2.5-2.2,3.6-3.2
	c4.1,1.4,4.1,1.4,6.9-0.3c0.7-0.4,1.4-1.1,2.2-1.2C1655.1,363.7,1657.1,361.3,1658.8,358.5z M1400.4,837.6c0.3,0.1,0.7,0.3,1,0.4
	c0.9-1,1.9-2,2.8-3c4.7-5.5,10.7-10,17.2-13.7c8.5-4.9,17.7-9,26.6-13.5c13.7-7,28.1-13,40.7-21.6c9.6-6.5,18.1-13.6,23-23.4
	c2.6-5.2,5-10.6,5.3-16.4c0.3-5-0.5-10-0.4-15.1c0.1-6-7.4-13-14.6-14.2c-8.4-1.3-16.8-1.6-24.4,1.7c-4.3,1.9-8.3,4.2-12.5,6.3
	c-2.5,1.2-4.8,2.8-7.5,3.4c-3.2,0.8-5.3,2.4-7.5,4.3c-7.6,6.6-13,14.6-17.9,22.8c-5.1,8.5-9.9,17.2-14.6,26
	c-3,5.7-6.1,11.4-7.8,17.4C1406.2,811.8,1403.5,824.7,1400.4,837.6z M1511.3,329.2c-3-1.1-3.1-1.2-4.1-1c-10.4,2-20.7,4.5-30.2,8.6
	c-2.9,1.3-6.1,2.2-9.2,3.2c-0.5,0.2-1.2,0-2.4-0.1c0.7-0.9,1.1-1.5,1.6-2c3.4-2.7,7.2-4.8,11.5-6.5c8.5-3.3,17.3-5.8,26.7-6.8
	c0.6-0.1,1.2-0.5,2.1-0.8c-0.3-1.5-0.7-2.9-0.9-4c-0.7-0.4-0.9-0.6-1.1-0.6c-1.8-0.2-3.6-0.4-5.4-0.5c-10-0.8-19.2,0.4-27.2,5.5
	c-4.2,2.7-8.9,4.9-14.3,5.6c-5.1,0.6-9.1,2.7-13.2,5c-1.4,0.8-2.9,1.7-4.2,2.6c-6.7,4.5-13.9,8.5-19.6,14.1
	c-3.9,3.8-7.7,7.7-11.4,11.6c-2.1,2.2-4.3,4.3-5.9,6.7c-4.2,6-8,12-12,18c0.9,2.5,1.8,4.9,2.8,7.6c2.6-0.7,5.1-1,7.2-1.9
	c4.6-2,9.7-2.6,14.8-3.2c5.3-0.6,10.7-1,16-1.7c3.3-0.5,6.5-1.3,9.6-2.2c3.6-1,7-2.4,10.6-3.4c2.7-0.7,4.5-2,6.3-3.8
	c4.4-4.2,8.2-8.7,12.9-12.6c8.9-7.5,19.1-13.1,31.2-16.3c2.3-0.6,3.9-1.6,5.1-3.3c2.3-3.4,4.7-6.8,6.9-10.2c1.2-1.9,1.1-2.1-2.3-4.3
	c-2.6,1.4-5.5,2.7-8.1,4.4c-4,2.6-7.7,5.5-11.6,8.2c-1,0.7-2.2,1.2-3.4,1.7c-0.3,0.1-0.8-0.2-1.1-0.3
	C1491.8,341.3,1497.3,337,1511.3,329.2z M1451.5,725.8c-2.9-4.2-3.6-4.8-7.4-6c-6.4-2-12.4-1.5-18.6,0.2c-8.2,2.2-15,6.3-21.1,11.2
	c-8.3,6.6-15.9,13.9-22.8,21.7c-8.3,9.4-10.7,20.1-9,31.9c1.3,9.1,4.1,18,7.4,26.8c3.8,10.1,7.2,20.2,9.3,30.6
	c0.4,2.1,1.1,4.2,1.8,6.3c0.1,0.2,0.6,0.4,0.9,0.6c0.4-0.2,1-0.3,1.1-0.5c1.9-6.2,4-12.5,5.5-18.8c2.2-9.1,4-18.4,6.1-27.5
	c0.5-2,1.1-4.1,1.9-6c6.8-17,15.7-33.2,25.4-49.1c3.7-6,8.5-11.3,13.7-16.5C1447.4,729,1449.4,727.5,1451.5,725.8z M1632.8,179.7
	c0.5-0.8,1-1.5,1.5-2.3c2.2-3.3,4.2-6.7,7.5-9.2c3.7-2.7,6.7-5.9,9.1-9.5c1.2-1.8,2.4-3.6,4-5.2c6.1-6,8.5-13.5,11.1-21
	c1.7-4.9,2.9-10,4.7-14.9c1.6-4.4,2.1-8.8,1.2-13.6c-1-5.6-1.5-11.2-1.9-16.8c-0.4-4.8-0.1-9.7-0.9-14.5c-0.7-4.3-0.9-8.5-0.3-12.7
	c0.3-2,0.9-4,0-6c-2.4-0.2-3,1.2-3.8,2.2c-2.6,3.9-5.3,7.8-7.6,11.9c-3.7,6.4-8,12.5-13.8,17.8c-2.7,2.4-5.1,5.1-7.4,7.9
	c-2.9,3.5-5.7,7.1-8.4,10.7c-2.6,3.3-4.7,6.8-5.3,10.9c-1.2,7.2-2.6,14.4-3.4,21.6c-1,8.1-0.9,16.2,2,24.2
	c1.9,5.3,2.5,10.7,2.8,16.1c0.1,0.9-0.2,1.9,1,2.6c2.2,0.4,2.1-1,2.2-2.1c1.6-8.9,6.4-16.5,12.5-23.4c0.5-0.5,1-1.3,2.4-0.3
	c-0.6,2.9-2.9,5.2-4.2,8c-1.4,2.8-2.8,5.5-4,8.4C1632.8,173.4,1631.4,176.2,1632.8,179.7z M1531,346.8c-3.9,1.6-7.3,3.1-11,4.4
	c-6.8,2.2-13.8,4.2-20.6,6.4c-9.6,3.2-17.9,8.1-24.8,14.5c-5.4,4.9-10.3,10.2-15.4,15.3c-4.6,4.6-8.3,9.6-10.7,15.4
	c-3.5,8.6-7,17.1-10.4,25.7c-0.3,0.8,0,1.8,0,2.9c5.1-0.8,9.5-1.8,13.7-3.6c10.4-4.5,20.9-8.9,31.3-13.4c9.6-4.1,19.3-8.1,26.8-15
	c2.8-2.6,5.8-5.1,7.8-8.2c2.6-4.2,5.3-8.2,8.6-12c1.2-1.3,2.2-2.8,3.1-4.3c3.6-6.7,6.6-13.6,8.4-20.9c0.1-0.3-0.3-0.7-0.5-1
	c-2.1,0.4-2.1,0.4-2.5,1.1c-4.3,8.4-10.4,15.6-18.5,21.6c-0.7,0.5-1.5,0.9-2.7-0.2c6.2-8.6,15.1-15.9,19.3-26.2
	C1532.4,348.6,1531.7,347.7,1531,346.8z M1693.3,221.4c5.4,0.5,10.8,1,16.2,1.4c3.4,0.3,6.8,0.8,10.1,0.6c8.5-0.4,17-1.2,25.5-1.9
	c1.8-0.1,3.5-0.5,5.2-0.9c7.5-1.7,15-3.4,22.5-5.2c10.3-2.5,19.9-6,27.4-12.9c2.9-2.7,6.6-4.9,10.4-6.8c5.8-2.8,11.1-6.1,16.3-9.5
	c1-0.6,1.7-1.6,3.1-2.9c-3-0.5-5.1-1-7.3-1.1c-8.8-0.5-17.7-1.2-26.4-1.1c-18.1,0.2-35.7,2.8-52.9,6.8c-11.4,2.6-22.2,6.5-31.7,12.4
	c-5.5,3.4-10.7,7.2-16,10.8c-2.1,1.4-4.2,2.7-6.2,4.2c-0.5,0.4-0.6,1.2-1.1,2.3c8.8,0.8,16.1-2.3,24.3-3.1
	C1707.3,219.5,1700.5,220.8,1693.3,221.4z M1742.3,101.4c-4.9,0.1-6.7,0.3-10.5,2.5c-4.8,2.9-9.6,5.9-14,9.2
	c-5.6,4.3-11.5,8.2-18.6,10.5c-6.1,2-11.1,5.4-16.2,8.5c-3.5,2.1-6.4,5.1-9.1,8c-7,7.6-8.8,17.1-11.1,26.4
	c-0.9,3.5-1.6,7.1-2.4,10.6c-1,4.1-2.2,8.2-3.2,12.3c-0.3,1-0.1,1.9,1.3,2.6c1.9-1.5,3.1-3.5,4.4-5.3c3.6-4.8,8.4-8.6,13.8-11.9
	c0.5-0.3,1.5-0.2,3-0.3c-2.4,3.3-5.3,5.3-7.9,7.6c-3.6,3.1-6.4,6.6-8.6,10.6c-0.4,0.8-1,1.7,0.3,2.5c0.4-0.1,1-0.1,1.2-0.3
	c3.9-3.7,8.9-6,14-8.3c12.4-5.6,23.1-12.9,32-22.1c2.8-2.9,5-6.1,6.6-9.7c3.6-7.9,7.3-15.8,10.5-23.9c2.1-5.2,5-10,8.9-14.4
	C1740.6,112.3,1742.9,107.3,1742.3,101.4z M1518.2,473c0.9-1,1.8-1.6,2.2-2.4c2.2-4,5.8-7,10-9.5c1.4-0.9,2.7-1.9,3.9-3
	c6.2-6,12.6-12,18.5-18.2c3.6-3.8,6.3-8.2,6.2-13.4c-0.2-14.9,2.9-29,11.6-41.6c3.5-5.1,2.1-10.7,1.4-16.3c0-0.2-0.2-0.4-0.3-0.5
	c-0.3-0.2-0.8-0.6-1.1-0.6c-0.6,0-1.3,0.1-1.8,0.5c-0.4,0.4-0.7,1-0.8,1.5c-1.4,5-3,10-4.1,15c-1.1,4.9-3.4,9.4-6,13.8
	c-0.4,0.6-0.5,1.9-2.1,1.4c2.9-11.5,5.9-23,8.8-34.5c-1.3-0.6-2.3-1-3.2-1.5c-3.6,2.5-6.8,5.1-10.4,7.1c-6.9,3.9-12.2,9.1-16.2,15.2
	c-3.6,5.4-6.8,11-9.9,16.6c-1.4,2.5-2.8,5.1-3.6,7.9c-1.2,4.4-2,9-2.9,13.5c-0.7,3.8-0.9,7.7-2.1,11.3c-2.8,8.6-2.4,17.5-1.4,26.4
	C1515.2,465.2,1515.9,469,1518.2,473z M1707.4,434.1c-1.2-7.4-2.3-14.5-2.7-21.7c-0.2-4.6-0.4-9.3-0.4-13.9c0-2.9-0.3-5.9-2-8.5
	c-2.9-4.5-5.8-9-9.3-13.2c-4-4.9-8.5-9.4-12.8-14.1c-1.3-1.4-2.5-2.8-3.9-4.1c-0.3-0.3-1.5-0.5-1.8-0.3c-0.6,0.4-1.3,1.3-1.1,1.7
	c0.7,1.6,1.6,3.3,2.6,4.8c3.1,4.5,6.4,8.8,9.3,13.3c1.4,2.2,2.2,4.7,3.2,7.1c0.2,0.6,0.3,1.6-1.7,1.7c-3.5-3.6-5-8.5-8.1-12.6
	c-3.3-4.2-6-8.8-10.3-13.8c0.8,5.9,2.1,10.6,2,15.3c-0.1,4.7,0.6,9.5-0.7,14.2c-2.1-0.9-2.2-2.3-2.3-3.6c-0.2-2.5-0.2-5-0.4-7.5
	c-0.4-4.5-0.9-8.9-1.5-13.3c-0.1-1.1-0.3-2.4-2.1-2.5c-0.2,0.3-0.6,0.6-0.7,0.9c-1.5,12.2-2.9,24.5-1.9,36.9
	c0.4,6,1.7,11.9,4.7,17.6c4.8,9,10.7,17.5,16.7,26c0.8,1.2,1.9,2.2,3,3.3c4.7,5,10.8,8.8,16.3,13c5.1,4,9.3,8.3,12.4,13.5
	c0.4,0.7,0.8,1.4,2.2,1c0.4-3.4,1-6.8-0.2-10.3c-1.8-5.5-3.8-10.9-6-16.3c-2.3-5.6-4.9-11-7.1-16.6c-0.7-1.8-0.6-3.8-0.7-5.7
	c0-0.4,0.8-1.2,1.1-1.1c0.7,0.2,1.7,0.6,1.9,1.2c0.5,1.1,0.6,2.3,1,3.4C1706.2,431.2,1706.8,432.7,1707.4,434.1z M1629.9,93.8
	c-1.4-6.1-3.3-11.7-7.2-16.8c-3.2-4.2-5.1-8.8-5.7-13.8c-0.1-0.7-0.5-1.4-0.8-2.1c-4.8,0.5-4.7,0.6-6.9,2
	c-5.5,3.5-8.8,8.5-10.6,13.9c-2.7,8.3-7,15.9-11.5,23.4c-1.2,2-2.1,4.2-2.7,6.3c-0.9,3.1-1.5,6.3-2,9.6c-0.3,2.1-0.6,4.2-0.5,6.3
	c0.1,3.3,0.4,6.6,0.7,9.9c0.5,5.2,1.3,10.5,4,15.4c2.6,4.8,5.7,9.5,8.8,14.1c3,4.3,5.2,8.8,6.3,13.7c0.1,0.6,1.1,1,2.2,2.1
	c0.8-2.6,1.6-4.6,2-6.6c1.2-6.5,0.4-13-1.2-19.6c-0.5-1.9-0.7-3.8-0.9-5.7c0-0.2,0.5-0.6,0.8-0.7c0.4-0.1,1,0.1,1.2,0.4
	c0.5,0.6,1,1.3,1.2,2.1c2.7,7.4,4.1,14.8,3.4,22.4c-0.1,0.8-0.9,1.6,0.4,2.4c4.6-4.4,6.2-9.2,3.6-15.3c-1.9-4.4-2.4-9.1-2-13.8
	c1.1-10.7,2.8-21.3,6.1-31.6c0.8-2.5,2.1-5,3.6-7.2C1624.5,101,1627.2,97.6,1629.9,93.8z M1586.5,370c-2.5,3.6-4.9,7.4-7.4,11.1
	c-6.3,9.4-10.9,19.2-13.2,30c-1.5,7-2.5,14-0.4,21.2c3.6,12.2,5.7,24.5,6.8,36.9c0,0.3,0.5,0.6,1.1,1.1c8.7-3.5,15.7-8.7,20.6-15.8
	c5.3-7.6,8.6-16,11.2-24.7c2.6-8.6,2.8-17.4,2.4-26.3c-0.1-2.7-0.6-5.4-1.3-8.1c-1.5-6.1-3.3-12.2-5-18.2c-0.3-1-0.5-2-1.1-2.8
	c-0.4-0.5-1.3-0.8-2.1-1c-0.2,0-0.9,0.8-0.9,1.2c0.1,2.9,0.4,5.8,0.4,8.7c0,2.2,0.5,4.7-1.9,6.4c-1.9-2.6-2-2.6-2.2-4.7
	c-0.2-3.1-0.3-6.2-0.6-9.3C1592.6,371.6,1592.4,371.5,1586.5,370z M1362.6,220.8c0.8,0.7,1.3,1.4,2,1.7c6.3,2.9,12.6,5.8,19,8.7
	c2.8,1.3,5.8,2.5,8.7,3.6c6.3,2.6,12.4,5.4,18.1,8.8c0.9,0.6,2.1,0.8,3.2,1.1c6.9,2.3,13.7,4.6,20.6,6.8c4.6,1.4,9.2,2.5,14,2.5
	c5.9,0,11.7-0.1,17.6-0.1c4.4,0,8.4-0.8,12.3-2.3c7.2-2.8,14.8-3.9,22.9-2c0.1,0,0.2-0.2,0.8-0.6c-4.2-2.2-8.2-4.5-12.7-5.7
	c-4.6-1.2-9.2-2.4-13.9-3.2c-4.6-0.9-9.4,0.2-14.7-1c0.7-0.9,1.1-1.7,1.7-1.8c1.9-0.4,3.9-0.6,5.9-0.8c10.5-0.6,20.2,2.3,29.6,6.3
	c1.4,0.6,2.5,1.8,4.7,1.4c-3.2-3.8-6.7-7-11.3-9.4c-1.1,0-2.2,0-3.3,0.1c-6.8,0.7-13.5-0.3-20.2-1.7c-5.4-1.2-10.4-3.1-15.4-5.1
	c-8.8-3.4-16.6-7.9-22.8-14.3c-2.4-2.5-5.3-3.7-8.9-3.9c-9.2-0.5-18,0-26.2,3.4c-1.8,0.7-3.7,1.3-5.6,1.7
	C1380.1,216.9,1371.6,218.8,1362.6,220.8z M1515.6,224c0.2-0.4,0.4-0.8,0.6-1.2c-0.7-0.4-1.3-1-2.1-1.2c-2.1-0.8-4.3-1.5-6.4-2.1
	c-14.9-4-29.5-8.8-43-16.1c-5.9-3.2-11.3-6.9-15.4-11.9c-0.9-1.1-2-2.2-3.1-3.3c-3.9-4.2-7.6-8.5-10-13.5c-1.1-2.2-2.4-4.3-3.5-6.4
	c-1-1.9-2.7-3.2-4.9-4c-3.2-1.1-6.3-2.4-9.6-3.4c-12.2-3.9-24.8-5.4-37.5-6.2c-0.3,0-0.7,0.3-1,0.5c-0.3,1,0.8,1.3,1.4,1.8
	c4.4,3.3,8,7.1,11.2,11.4c6.3,8.3,13.1,16.4,21.2,23.6c6.5,5.7,13.3,11.2,19.2,17.3c6.3,6.6,14.5,10.6,23,14
	c11.7,4.6,23.9,7.1,36.5,5.1c6-1,12.1-0.5,18,1.9c0.8,0.3,1.7,0.5,2.4,0.7c1.6-2.2,1.6-2.8,0-3.3c-6-2-11.7-4.8-18.2-5.3
	c-4.6-0.4-9-1.5-13-3.6c-0.9-0.4-1.4-1.3-2.9-2.8c2.2,0.3,3.2,0.3,4.2,0.5c3.6,0.7,7.1,1.6,10.6,2.3c4.2,0.9,8.5,1.6,12.7,2.6
	C1509.2,222.2,1512.4,223.1,1515.6,224z M1556.9,189.1c-0.9-5.7-2-10.6-6.8-14.8c-6.7-5.8-10.9-12.8-12.4-20.8
	c-1.1-5.8-2.5-11.5-5.4-17c-0.8-1.6-1.3-3.4-1.5-5.1c-0.5-4.5-3.5-7.6-7.8-10c-3.5-1.9-7-3.9-10.6-5.7c-3.4-1.7-6.9-3.3-10.3-5
	c-3.6-1.8-7.3-3.5-10.7-5.6c-3.3-2-6.3-4.4-10-7c-0.2,2.9-0.2,5.6-0.6,8.2c-1.2,10.5,1.3,20.8,5.1,30.9c3.1,8.4,9.1,15.6,15.7,22.2
	c5.6,5.6,11.4,11.3,19.2,14.6c9.2,3.9,17.7,8.7,25.9,13.9c0.7,0.5,1.5,1,2.3,1.4c0.7,0.3,1.5,1,2.2-0.2c-4.1-3.8-8.4-7.7-10.2-13.8
	C1548.3,178.8,1550.4,185.4,1556.9,189.1z M1628.4,408.1c-0.7-1.3-1.3-2-1.3-2.6c0-2.5-0.3-5.1,0.3-7.5c1.6-7.5,3.6-14.9,5.3-22.4
	c0.1-0.5-0.2-1.1-0.3-1.8c-1.8,0.3-3.6,0.5-5.1,0.8c-0.9,1.6-1.6,2.9-2.3,4.3c-3.4,6.3-6.8,12.7-10.2,19c-1.7,3.1-2.2,6.5-2.2,10
	c-0.1,5.6-0.4,11.2-1.2,16.7c-0.7,4.3-0.5,8.4,0.4,12.7c1.6,8,5.8,15.3,9,22.9c0.1,0.2,0.5,0.2,1.1,0.5c-0.2-1.1-0.2-2.1-0.5-3
	c-1.2-3.6-2.6-7.1-3.8-10.7c-0.6-2-1-4.2-1.2-6.3c-0.1-0.6,0.6-1.2,1.3-2.4c0.9,1.5,1.7,2.2,1.9,3.1c0.8,2.3,1.1,4.6,2.1,6.8
	c2.9,6.6,3.7,13.3,4.1,20.1c0.3,4.2,1.2,8.5,2,12.7s2.1,8.4,3.2,12.6c0.1,0.5,0.7,1,1.1,1.6c2.1-0.9,3.6-2.3,4.7-3.9
	c1.8-2.8,3.7-5.6,5-8.6c2.8-6.8,5.8-13.5,10.5-19.4c1.6-2,2.5-4.4,3.7-6.6c1.3-2.6,1.4-5-0.6-7.7c-2-2.6-3.8-5.5-5.3-8.3
	c-4.5-8.1-7.6-16.5-9.3-25.2c-1.5-7.7-2.7-15.4-1.1-23.1c1-4.7,1.6-9.5,2.3-14.2c0.3-2,0.7-4-0.2-5.9c-2.9-0.1-4.2,0.8-4.5,2.9
	c-0.5,3.2-1,6.5-1.9,9.6c-1.9,6.6-4.2,13.2-5.2,20.1C1630.1,405.6,1629.2,406.5,1628.4,408.1z M1694.8,349.8c0.7,1,0.8,1.4,1.1,1.7
	c3.3,3.1,6.7,6.1,9.8,9.3c6.3,6.7,10.9,14.2,15.5,21.8c3.4,5.7,4.9,11.8,7.3,17.8c3,7.4,5.6,15,7.8,22.6c2.6,8.4,8.9,14.1,17.3,18.6
	c3.9,2.1,7.9,4.1,11.8,6.2c1.1,0.6,2.2,1.2,4,2.2c0.1-1.7,0.5-2.8,0.2-3.8c-1.5-5.3-2.3-10.7-4.8-15.9c-3-6.2-5.2-12.6-4.7-19.4
	c0.1-0.9-0.1-2,1.5-2.5c1.4,1,1.8,2.5,2,4c0.3,1.9,0.5,3.9,1,5.8c0.2,0.7,0.1,2,2.2,1.9c-0.3-4.8-0.3-9.6-1.4-14.4
	c-3.3-13.4-10.1-25.7-19.5-37c-6.6-7.9-14.6-14.5-25.6-17.7c-6.1-1.8-12.2-3.5-18.1-5.8c-1.8-0.7-3.8-1.2-6.2-1.9
	c-0.1,0.9-0.5,1.9-0.1,2.2c1.3,1.1,2.7,2.2,4.3,2.9c3.5,1.5,7.2,2.7,10.8,4c6,2.1,11.4,5.2,16.5,8.8c1,0.7,2.1,1.7,0.8,3.3
	c-1.3-0.6-2.7-1.2-4-1.9c-3.6-1.8-7-3.9-10.7-5.4C1707.6,354.5,1701.5,352.4,1694.8,349.8z M1518.6,218.1
	c-3.3-4.9-10.6-6.6-14.5-12.9c3.7,1.6,6.1,2.6,8.5,3.7c2.4,1.2,4.1,3.6,7.4,4.1c-0.9-2.8-1.5-5.2-2.4-7.6c-0.8-2-1.5-4.2-4.2-5.2
	c-6.7-2.4-12.2-6.5-18.2-9.8c-6.3-3.5-11.4-8.1-15.7-13.4c-4.3-5.4-6.6-11.3-8.1-17.5c-1-4.1-3.3-6.7-7.7-8.4s-8.6-3.9-12.8-6
	c-1.5-0.8-3.6-1.1-4.2-3.7c7.8,1,14,4.8,20.8,7.9c0.8-2.3,0.6-4.1-1.8-5.3c-2.4-1.2-4.8-2.3-7.4-3.3c-8.6-3.2-17.6-4.4-26.6-5.3
	c-4.5-0.4-9-0.6-13.6-0.9c-1-0.1-1.9,0.4-3.4,0.6c3.3,4.7,6.1,9,9.4,13.1c7,8.9,13.4,18.1,18.7,27.8c0.5,0.9,1,1.8,1.7,2.6
	c6.3,8,14.2,14.8,23.9,19.8c6.4,3.2,12.9,6.3,19.4,9.3c2.2,1,4.5,2.1,6.9,2.7C1502.6,212.6,1510.5,215.2,1518.6,218.1z
	 M1715.7,267.6c5.2,2.9,9.6,5.4,14.1,7.8c4,2,8,4.2,12.5,5c8.5,1.5,17.1,2.6,25.7,1.6c8.4-0.9,16.9-1.8,25.3-2.8
	c2.2-0.3,4.3-1,6.2-1.8c4.7-2.1,9.2-4.4,13.8-6.6c3.7-1.7,7.3-3.6,11.3-4.7c7.9-2.1,14.8-5.7,21.5-9.7c0.7-0.4,2.3-0.4,1.8-1.8
	c-4,1.1-7.9,2.4-11.9,3.4c-4,1-8.2,1.7-12.2,2.8c-5.9,1.6-8.8,2.1-12,1.6c5.3-4.4,12.1-6.1,19.2-7c5.4-0.7,10.2-2.4,15.1-4.3
	c0.7-0.3,1.7-0.6,1.4-2.1c-6.1-0.3-12.3-2.1-18.6-2c-3.1,0.1-6.3,0.5-9.3,1.1c-5.2,1.1-10.2,2.5-15.3,3.8
	c-7.5,1.9-15.3,2.5-23.3,2.3c-5.6-0.1-11.3-0.9-16.9-1.3c-11.6-0.7-23.1-0.6-34.1,2c-5.4,1.3-10.3,3.3-14.6,6.4
	c-0.4,0.3-0.6,0.9-1,1.8c3.4,0.5,5.7-1.3,8.5-1.3c2.7,0,5.4-0.3,8.1-0.3c2.9,0,5.9,0.2,8.8,0.4c4.2,0.4,4.7,0.6,7.8,3.3
	c-3,0.8-5.9,0.3-8.7,0.2c-3.8-0.1-7.7-0.4-11.5-0.3C1723.5,265.2,1719.6,265.3,1715.7,267.6z M1789.4,124.8
	c-6.7-0.3-12.7-0.8-18.7-0.2c-9.8,1-17.4,5.4-24.1,10.9c-2.9,2.4-6,4.4-9.4,6.1c-2.7,1.3-5.2,2.8-7.7,4.3c-1.4,0.9-2.8,1.8-3,3.5
	c-0.4,3.7-2.3,6.9-4.1,10.2c-4.1,7.7-9.7,14.4-17.8,19.1c-6.7,3.9-13.7,7.5-20.7,11c-2.4,1.2-4.2,2.4-4.8,4.9
	c-0.4,1.9-1.5,3.6-2.2,5.3c-0.3,0.8-0.4,1.6-0.6,2.4c1.4-0.4,2.1-1.1,2.8-1.8c3.4-2.9,6.7-5.9,10.2-8.8c0.8-0.6,2-1.6,3.5,0
	c-0.7,2.3-3.1,3.5-4.8,5.1c-1.7,1.7-3.7,3.2-5.4,4.9c-1.6,1.6-3.6,3.1-3.8,6.3c1.4-0.6,2.1-0.8,2.8-1.1c1.8-0.8,3.4-1.8,5.3-2.2
	c11-2.7,20.5-7.8,29.8-13.1c1.6-0.9,3.1-2.2,4.3-3.5c2.9-3.3,5.6-6.7,8.5-10c2.1-2.4,4.1-4.9,6.6-7c10.3-8.4,21.4-16,34.1-21.9
	c4.9-2.3,8.9-5.4,11.3-9.9c2.1-3.7,4.6-7.3,6.8-10.9C1788.7,127.5,1788.8,126.4,1789.4,124.8z M1472,287.8c1.1-2.3,3.2-2.9,5-3.8
	c1.9-0.9,3.8-1.9,5.8-2.6c2.1-0.7,4.3-1,6.4-1.4c2.1-0.4,4.3-0.7,7.2-1.2c-1.2-1-1.8-1.9-2.3-1.9c-1.3-0.1-2.7,0.1-3.9,0.5
	c-5.3,1.4-10.6,2.9-15.8,4.4c-6.6,2-13.5,2.6-20.6,1.7c-3.8-0.5-7.6-1.3-11.4-1.9c-10.6-1.7-21.1-3.2-31.2-6.8
	c-2.1-0.7-4.3-1.2-6.7-0.6c-9,2.1-16.8,5.9-23,11.6c-4,3.7-7.1,8.1-10.4,12.2c-0.8,1-2.1,2-0.9,3.8c1.6-0.3,3.3-0.7,5-0.9
	c2-0.2,4.1-0.4,5.9,0.7c3.3,2,6.9,2.2,10.5,1.9c7.2-0.6,14.4,0,21.7,0.2c8.6,0.3,17.2,1.9,25.7,1c12.7-1.3,25.4-2.6,35.4-10
	c2-1.5,4.4-2.5,6.4-3.9c3.4-2.5,7.4-3.9,11.8-4.8c1.1-0.2,2.1-0.5,3.1-0.8c0.3-0.1,0.6-0.7,0.5-0.9c-0.2-0.5-0.7-1.3-1.1-1.4
	c-1.3-0.2-2.8-0.4-4,0c-3.8,0.9-7.6,2.1-11.4,3.2C1477.7,286.8,1475.4,288,1472,287.8z M1355,239.6c1.1,2.7,2.7,4.6,4.8,6.2
	c3.7,2.8,7.8,5,12.1,6.9c7.8,3.5,15.7,6.7,23.3,10.4c10,4.9,20.6,7.9,31.6,9.9c7.4,1.4,14.8,2.1,22.2,3.5c9.9,1.9,19.3,1,28.6-1.4
	c5.9-1.5,12-2.7,18-4c0.3-0.1,0.4-0.5,0.6-0.8c-0.3-0.3-0.6-0.7-1-0.8c-5.8-1.3-11.5-2.8-17.4-1.8c-2.6,0.4-5.3,0.5-8.1,0.6
	c-8.2,0.2-16.3,0.1-24.1-3c-0.8-0.3-1.6-0.8-2.3-1.3c-0.3-0.2-0.4-0.7-0.3-1s0.5-0.6,0.8-0.7c0.4-0.1,0.9-0.1,1.3,0
	c8.4,2.7,16.9,2.8,25.5,2.4c7.6-0.4,15.2-1.4,22.9,0.6c0.4,0.1,0.9,0.2,1.3,0.1c0.6-0.1,1.5-0.4,1.6-0.7c0.2-0.6,0.1-1.8-0.3-2.1
	c-2.9-2-6-3.7-9-5.6c-2.1-1.3-4-1.6-6.3-0.7c-4,1.6-8.4,2.3-13,2.5c-2,0.1-4,0.5-5.9,1c-7.4,2-15.1,2-22.7,0
	c-6.3-1.7-12.5-3.9-18.7-6c-2.8-0.9-5.7-1.7-8.2-3.1c-9.7-5.5-20.6-9-30.5-14.1c-1.3-0.7-3.1-1.3-4.5-1.1
	C1370,236,1362.3,236.4,1355,239.6z M1715.6,311.6c-1.5,2-1,3.7,1,5.2c1.2,0.9,2.5,1.8,3.9,2.5c9.8,4.8,19.5,10,29.9,13.8
	c12.3,4.5,25,6.5,38,5.4c9.8-0.8,19.7-1.4,29.7-0.7c8.8,0.6,16.8-1.8,24.5-4.7c1.1-0.4,2.6-0.7,2.5-2.2c-3.8-1.2-7.9-1.9-11.5-3.6
	c-7.7-3.5-15.9-5.1-24.2-6.6c-6.7-1.2-13.4-2.1-20.2-1.3c-5.5,0.6-11.1,1-16.8,0c-9.7-1.7-18.9-4.7-27.5-9.2c-3.8-2-7.5-4-11.2-5.9
	c-1-0.5-2.1-1-3.1-1.1c-3.6-0.3-7.2-0.4-10.7-0.5c-0.6,1-1,1.6-1.3,2.4c-0.3,0.8-0.5,1.7-0.7,2.8c2.2,0.8,4.2,1.4,6.1,2.1
	c3.8,1.3,7.7,2.7,11.5,4.1c1.5,0.6,2.8,1.4,2.9,3.4c-4.1,0.2-7.2-2.4-10.8-3.2C1723.5,313.1,1719.7,311.6,1715.6,311.6z
	 M1719.8,282.5c4.1,1.4,8.4-0.3,11.9,3.1c-2.5,0.4-4.5,0.7-7.8,1.2c3.6,1.2,5.8,1.9,8.1,2.7c2.3,0.8,4.7,1.7,7,2.6
	c2.3,0.9,4.5,2,5.5,4.5c-1.1,0-2.1,0.2-2.8,0c-2.8-0.9-5.6-1.8-8.3-3c-3.3-1.5-6.9-2.3-10.5-2.9c-0.5-0.1-1.6,0.3-1.6,0.6
	c-0.1,0.7,0.1,1.7,0.6,2c2.7,1.5,5.7,2.8,8.3,4.3c8.3,4.9,17.1,8.8,26,12.6c9.4,4,19,5.7,29.2,5.1c8.8-0.5,17.6-0.2,26.4,1.7
	c3.1,0.7,6.2,1,10.4,1.8c-3.4-3.5-5.9-6.2-8.7-8.9c-2.8-2.8-6.6-4.9-9-7.9c1.1-1.5,2.2-1.1,3.1-0.4c2.8,2.1,5.4,4.3,8.2,6.5
	c0.5,0.4,1.2,1.4,2.1,0.2c-2.1-3.5-4.9-6.6-8.3-9.4c-3.8-3-7.7-5.8-11.3-9c-3.8-3.4-8.1-4.2-13.1-3.6c-8.7,1.1-17.4,1.6-26.3,0.8
	c-3.8-0.4-7.6-1-11.5-1.5c-6.1-0.7-12.1-1.9-17.6-4.8C1726.4,279.1,1724.3,279.6,1719.8,282.5z M1691,460.2c-2.2-1.9-4.1-3.6-6-5.3
	c-6.5-5.8-12.2-12-15.8-19.4c-2-4.2-4.5-8.2-6.6-12.4c-1.7-3.2-3.6-6.4-4.7-9.8c-1.3-4.1-2-8.4-2.6-12.6c-1.3-9.7,0-19.2,1.4-28.8
	c0.2-1.5,1-2.9-0.2-4.7c-1.1,0.1-2.1,0.3-3.5,0.5c0,3,0.1,5.9,0.1,8.8c0,1.7-0.3,3.2-2.1,4.5c-3.1-3.3-0.3-7.1-2.6-10
	c-1.4,0-1.6,0.7-1.7,1.5c-0.8,5.9-1.7,11.7-2.3,17.6c-0.4,4.6-0.6,9.2-0.6,13.8c0.1,8.4,2.9,16.5,5.9,24.5
	c2.1,5.6,4.5,11.1,8.2,16.2c3.3,4.5,6.3,9.2,9.8,13.7c2.3,3,3.8,6.3,5.2,9.6c3.1,7.2,6.2,14.4,9.2,21.6c0.1,0.3,0.6,0.5,1.2,1
	c1.8-2.9,3.6-5.6,4.1-8.8C1688.7,474.7,1689.8,467.7,1691,460.2z M1378.6,317.9c2,1.7,4.4,1.8,6.6,2c4.3,0.3,8.6,0.5,12.9,0.6
	c8.8,0.2,17.8-0.2,26.4,2.1c11.1,2.9,21.9,3.1,32.8,1.3c1.5-0.2,3.1-0.4,4.6-0.7c1.3-0.3,2.6-0.7,3.7-1.2c6.7-3.6,13.3-7.3,19.9-11
	c4-2.3,7.9-4.8,12.7-5.8c0.8-0.2,1.8-0.4,1-1.7c-0.8,0-1.7,0-2.5,0.1c-3.7,0.8-7.3,1.5-11,2.4c-2.1,0.5-4.1,1.3-7.1,0
	c4.4-4.1,10.7-4.3,16.3-6.5c-3.5-1.6-6.6-2.9-9.9-4.4c-1.7,0.9-3.5,1.6-5,2.7c-3.8,2.9-8.3,4.9-12.5,7.2c-7.9,4.3-16.9,5.7-26.1,5.8
	c-7.8,0.1-15.8-0.8-23.7-1.7c-10-1.1-19.9-1.7-29.2-0.3C1385,311.9,1381.8,314.9,1378.6,317.9z M1565.3,463.6
	c-7.9-1.9-15.6-2.4-22.3,2.1c-4,2.7-8.5,3.8-13.7,2.5c-4.5,4.6-8.1,9.4-11.3,15c-1.2-1.1-2.2-1.7-2.6-2.5c-0.8-1.8-1.3-3.7-2-5.6
	c-0.3-0.9-0.8-1.7-1.2-2.5c-9.6,3.8-9.1,4.7-15.2,11.6c3.4,1.5,7,1.7,10.6,2.1c9.1,1,17.9,2.9,26.6,5.5c5.7,1.7,11.2,3.6,15.6,7.5
	c0.6,0.5,1.6,0.7,2.1,0.9c5.5-7.5,10.8-14.8,15.9-21.8c-0.5-2.6-1-4.8-1.2-7.1C1566.3,468.9,1567.3,466.6,1565.3,463.6z
	 M1534.2,205.7c0.1-1.2,0.4-2.1,0.1-2.4c-3.7-3.3-7.6-6.5-11.3-9.8c-0.9-0.8-1.5-1.8-2.6-3.1c1.4,0.1,2.1,0.1,2.6,0.3
	c5.9,2,9.3,7,15,9.9c-1.6-5.1-3.1-10-4.7-15.2c-1.6-0.6-3.4-1.4-5.3-2c-12.4-3.7-22.1-10.6-30.1-19.5c-4.4-4.9-8.3-10.1-11.7-15.5
	c-5.5-8.8-9.6-17.9-10.4-27.8c-0.2-2.9-0.4-5.9-1.6-9.4c-1.8,2.8-1.8,5.3-2,7.7c-0.2,4-0.6,8.1-0.5,12.1c0.1,4.6,0,9.3,1.1,13.9
	c2,8,4.8,15.9,8.9,23.5c2.4,4.4,5.6,8.3,9.5,11.7c7.9,6.8,16.5,12.8,26.6,17.1C1523.2,199.4,1528.9,201.7,1534.2,205.7z
	 M1488.2,469.3c1.3-2.1,2.4-3.9,3.5-5.8c2.7-4.8,5.8-9.3,10.5-12.8c4.4-3.3,7.2-7.2,7.8-12.5c0.6-4.9,2.7-9.6,3.3-14.6
	c1-7.7,2.8-15.1,5.8-22.2c0.1-0.3-0.2-0.7-0.4-1.5c-4.7,3.5-9.3,6.9-13.7,10.4c-4.7,3.8-11.1,5.3-16.2,7.9c-2.3,4.9-4.7,9.4-6.6,14
	c-3.2,8-4.5,16.3-1.8,25C1481.8,461.6,1484.2,465.6,1488.2,469.3z M1616.3,610.9c2.9-1.5,4.9-2.6,6.9-3.7c4.8-2.6,10.2-3.8,15.9-3.5
	c6.8,0.3,13.6,1.1,19.9,3.8c5.9,2.5,11.9,4.1,18.4,4.6c6.1,0.5,12.2,0.8,18.3,1.9c11.4,2,22.7,4.4,34.1,6.6c1,0.2,2.1,0.2,3.3,0.3
	c-0.2-0.7-0.2-1.2-0.5-1.4c-0.8-0.7-1.7-1.4-2.6-2c-6.3-3.8-13.5-6.1-20.3-9.1c-4.8-2.1-9.7-3.6-15-4.1c-1.6-0.1-3.1-0.5-4.6-1.1
	c-8-2.9-16.2-4.3-24.7-4.5c-7.1-0.1-14-1.1-20.8-3.2c-6.3-1.9-12.6-3.8-18.8-6c-2.8-1-5.7-1.5-8.7-1.6c-2.4-0.1-3.8,0.8-4.5,2.6
	c-1.2,3.1-1.6,6.4-0.4,9.7C1613.5,603.7,1614.8,607,1616.3,610.9z M1582.2,498.5c-0.6,4.3-1.2,8.9-1.8,13.4
	c-0.3,2.1-0.8,4.1-1.2,6.2c-1.9,10.2-3.8,20.3-5.7,30.5c-0.1,0.8-0.4,1.5-0.6,2.2c-0.5,2.4-1,4.9-1.5,7.3c-0.3,1.5-0.6,3-0.9,4.5
	c-0.4,1.7-1.3,3-3.6,3.6c-1.3,0.3-1.5,1.7,0.4,2.8c1.6-0.8,3.2-1.8,4.9-2.6c2.7-1.3,5.2-2.9,8.1-3.7c3.4-1,4.7-2.8,5.4-5.7
	c1.3-5.6,3-11.1,4.6-16.6c1.7-5.9,3.7-11.7,5-17.7c2.3-10.7,4.3-21.4,6.2-32.2c0.3-1.8,1-3.6,0.1-5.7
	C1594.9,489.5,1588.6,494,1582.2,498.5z M1565.3,560.3c2.6-2.5,1.4-5.3,2.2-7.6c1-3.1,0.3-6-0.6-9.1c-2.6-8.3-4.9-16.7-7.5-25
	c-2.2-6.8-2.5-13.4,0.6-19.8c0.2-0.5,0.8-1.5-0.9-1.8c-1,2.4-2,5-3.2,7.3c-0.5,0.9-1.6,1.5-2.4,2.2c-0.9-0.3-1.4-0.4-1.7-0.7
	c-7.6-6.8-17.1-10.1-27.4-12c-8.7-1.6-17.5-3-26.3-4.2c-8.1-1.1-16.3-1.5-24.3-0.1c-6.3,1.1-12.7,2.2-19,3.3c-0.2,0-0.3,0.6-0.4,0.9
	c0.1,0.2,0.2,0.4,0.4,0.5c13.1,6.5,27.1,8.5,41.5,8.1c4.5-0.1,9-0.6,13.5-0.7c6.8-0.2,13.6,0.1,20.3,1.6c3.1,0.7,6.2,1.3,9.3,1.8
	c7.8,1.1,13,4.9,15.9,11.1c0.9,2,1.4,4.1,2.1,6.2c1.2,4,2.3,8,3.7,11.9c2.9,7.8,4.8,15.5,3.8,23.5
	C1565,558.4,1565.2,559,1565.3,560.3z M1711.4,251.1c4.8,0.8,9.2,1,13.5-0.1c6.4-1.6,12.8-3.2,19.6-3.4c5.6-0.1,11.3-0.1,16.5-1.9
	c0.4-0.1,0.9-0.1,1.3-0.1c8.9-0.8,16.6-4.1,23.8-8.1c7.6-4.2,14.2-9.3,20.7-14.6c8.4-6.9,18.4-11.4,30.4-12.7
	c0.7-0.1,1.2-0.7,2.5-1.4c-2.4-0.6-3.9-1-5.4-1.4c-2.1-0.5-4-0.3-5.8,0.6c-10,5.1-20.2,9.8-30.8,14.2c-7.1,3-14.1,6.2-21.6,8.6
	c-8.2,2.7-16.8,4.7-25.3,6.9c-10.3,2.6-21,3.5-32,2.6c-1.3-0.1-2.7-0.1-3.9-0.2c-1.7,1.6-3.1,3-4.7,4.6
	C1710.7,246.7,1711.1,248.8,1711.4,251.1z M1700.3,232.6c2.1,1.1,2.8,1.7,3.6,1.8c6.1,0.7,12.2,1.4,18.3,1.9c1.6,0.1,3.2,0.1,4.7,0
	c6.7-0.4,13.3-1,19.7-2.8c8-2.3,16.2-3.9,24.2-6.1c6.8-1.8,13.1-4.4,19.3-7.3c8.3-3.9,17.1-7,25.3-10.9c7.1-3.4,14.3-6.6,21.8-9.3
	c0.9-0.3,1.5-0.7,1.1-1.9c-3.2-0.6-6.6-1.1-9.8-1.9c-3.6-0.9-6.7-0.5-9.6,1.2c-1.8,1.1-3.8,1.9-5.4,3.1c-3.4,2.4-6.7,4.8-9.9,7.4
	c-5,4-10.4,7.3-16.9,9.6c-7.6,2.6-15.4,4.6-23.3,6.5c-15.3,3.6-31.2,4.8-47.3,4.2c-4.7-0.2-9.5-0.9-14.2-1.2
	c-1.1-0.1-2.6-0.6-3.7,0.9c1.1,0.4,1.8,0.7,2.6,0.8c1.8,0.4,3.6,0.6,5.3,1.1c0.4,0.1,0.6,0.9,1,1.7
	C1705.1,231.7,1703.5,232,1700.3,232.6z M1546.8,578.7c-1.7-1.6-2.9-2.8-4.2-3.9c-7.7-7.3-17.7-9.8-28.3-10.7
	c-2.9-0.2-5.9,0-8.3,1.7c-5.2,3.7-8.7,8.4-10.2,14.1c-0.5,2,0.1,4.2-0.1,6.3c-0.2,2.2-0.6,4.4-1,6.7c1.1,0,1.7,0.1,2.3,0.1
	c6.2-0.4,11.5-2.8,17-4.7c10-3.5,19.8-7.4,30.8-8.8C1545.4,579.4,1545.8,579.2,1546.8,578.7z M1575.3,496c3.5-1.3,6.5-2.9,9.4-4.9
	c10.2-6.8,17.4-15.7,24.6-24.7c1.2-1.5,1.9-3.4,2.9-5c1.1-1.8,0.9-3.6,0.1-5.6c-1.5-3.5-3-7-4.6-10.5c-0.3-0.8-1.1-1.4-1.9-2.5
	c-3.9,6.5-6,13.3-11.3,18.4c-5.3,5.2-11.4,9.9-18.2,13.1C1574.4,482.1,1574,491.1,1575.3,496z M1686.4,81.5
	c-1.2,0.6-2.3,1.1-3.4,1.7c-7.7,3.7-8.8,5.8-7.3,13.5c0.7,3.4,1.3,6.9,1.8,10.3c0.6,3.7-0.1,7.2-1.3,10.7c-1.8,4.9-3.2,9.8-4.8,14.8
	c-0.2,0.7-0.2,1.4-0.3,3.1c2.6-2,4.4-3.5,6.4-4.8c2.2-1.5,4.5-2.9,6.8-4.4c2.1-1.3,4.2-2.7,6.1-3.9c1-7.2,2.6-14.2,1.8-21.4
	c-0.6-5.4-0.2-10.8,0.5-16.1c0.1-0.6,0-1.3-0.1-2.3c-5.4,3.1-5.8,8.8-10.3,11.7c-0.5-0.5-1-0.8-1-1.1
	C1681.2,88.7,1684.9,85.7,1686.4,81.5z M1559.7,63.5c-0.2,4.2-0.9,8.3,0.6,12.5c0.4,1.1,1,2.4,0.8,3.4c-0.9,3.7,0.9,6.7,3.3,9.8
	c1.8,2.3,3.1,4.9,4.8,7.2c2.8,3.7,4.5,8,8,11.5c2.3-4.8,4.4-9.3,6.7-14c-1.3-5.3-5.2-9.7-9.6-13.9c-5.2-5-11.2-9.6-13.6-16.3
	C1560.6,63.6,1560.2,63.6,1559.7,63.5z M1716.4,386c-1.1-2.4-1.5-3.7-2.2-4.8c-2.1-3.5-4.4-6.9-6.6-10.4c-1.3-2-2.6-4.2-4.3-6
	c-3.7-4.1-7.5-8-11.3-12c-0.6-0.6-1.1-1.3-1.8-1.8c-1.3-1.1-2.8-1.2-4.3-0.5c-1.5,0.8-2.1,2-1.3,3.4c1.4,2.7,3.1,5.3,4.5,8
	c2.6,4.9,6,9.3,9.9,13.5C1703.3,379.9,1708.8,383,1716.4,386z M1569.2,534.2c4.5-9.7,4.9-19.9,7.1-29.7c0.2-0.7-0.1-1.5-0.2-2.6
	c-2.1,0.6-3.9,1.1-5.7,1.6c-3.2-2.8-0.9-6.1-2-9.2c-1.4,0.5-1.9,1.3-2.3,2.2c-0.8,1.9-1.6,3.9-2.4,5.9c-1.5,3.7-1.5,7.5-0.6,11.4
	c0.8,3.6,1.7,7.3,2.8,10.9C1566.8,528,1568.1,531.1,1569.2,534.2z M1594.3,568.9c-2.5-3.9-3.7-4.7-7-3.6c-7.6,2.5-14.8,5.7-21,10.2
	c-0.6,0.4-0.8,1.2-1.3,1.9C1575.5,578,1588.9,574,1594.3,568.9z M1656.7,174.2c0.7-4,1.2-6.6,1.7-9.2c0.5-2.7,1.1-5.4,1.7-8.7
	c-4.8,5-9,9.5-13.3,14c-1,1.1-1.8,2.3-1.4,3.7c1.3,4.6,2.7,9.1,4.2,13.6c0.1,0.2,1.1,0.3,2.2,0.6c0.2-2.9,0.6-5.5,0.5-8.2
	c-0.2-2.9-0.4-5.8-0.5-8.7c0-0.6,0.6-1.2,1.2-2.3C1654.2,170.7,1655,171.8,1656.7,174.2z M1520.2,824.4c1-6.6,1.4-11.9,2.6-17
	c1.6-6.8,0.7-13.5-1.7-20c-2.3-6.5-3.6-12.9-3.6-19.5c0-0.7,0.2-1.6-1.2-2c-0.4,0.3-1,0.5-1.3,0.9c-2.7,4.2-0.6,8.5,0.8,12.8
	c0.4,1.3,1.2,2.5,1.5,3.8c0.7,2.8,1.1,5.8,2,8.6c1.7,5.6,1.9,11.1,1.3,16.7C1520.2,813.5,1519,818.2,1520.2,824.4z M1704.1,335.7
	c-0.9,1.8-3,3-3.3,5.3c7.5,1.8,14.5,4.5,22.8,5.9c-3.2-3.2-5.3-6.3-8.4-8.2c-2.7-1.7-6.4-2.1-9.6-3.1
	C1705.4,335.5,1705.2,335.6,1704.1,335.7z M1605.1,374.8c1.8,6.2,3.6,12.2,5.6,18.8c1-1.1,1.8-1.7,2.2-2.4c1.3-2.2,2.1-4.6,3.6-6.6
	c1.8-2.4,1.4-4.7,0.3-7.1c-0.4-1-1.2-1.7-2.7-1.1c0,1,0.1,2.2,0,3.3c0,1,0,1.9-0.3,2.8c-0.1,0.4-0.9,0.9-1.4,0.9
	c-0.5,0-1.3-0.5-1.5-0.9c-0.5-0.9-0.8-1.8-1-2.8c-0.3-1.3-0.3-2.7-0.8-4C1608.7,374.4,1607.3,374.1,1605.1,374.8z M1543.4,357.2
	c-0.3,0.5-0.8,0.9-0.9,1.5c-0.7,5-3,9.4-5.3,13.9c-0.1,0.2,0.3,0.6,0.7,1.1c1.9-1.2,3.8-2.5,5.8-3.5c3.8-2.1,5.8-5,5.5-9.3
	c-1.3-1-2.8-2.2-4.4-3.3C1544.5,357.3,1543.9,357.3,1543.4,357.2z M1768.5,343.7c6.5,4.3,13.4,7.7,17.5,8.6
	C1783.1,345.4,1776.8,343.5,1768.5,343.7z M1838.7,349.5c0.6-3.1,0-5.6-1.9-8.4c-2,0.6-4,1.1-6.3,1.7
	C1832.5,346,1835.4,347.7,1838.7,349.5z M1515.8,347.3c4-0.8,7-1.2,9.2-3.5c-1.7-1.4-3.1-2.6-4.6-3.9
	C1518.3,342,1516.9,344,1515.8,347.3z M1507.9,234.7c-2.9-1.2-5.7-1.5-8.9-0.3c2.3,1.9,4.2,3.5,6.3,5.2c0.7-1,1.4-2.1,2-3.1
	C1507.7,236,1507.7,235.5,1507.9,234.7z M1492.9,313.9c3.9,0.2,6.8,0.6,9.8,0.2c-0.4-1.4-0.7-2.7-1.2-4.3
	C1498.4,310.8,1495.2,310.7,1492.9,313.9z M1619.4,179c-0.3-2.1-0.5-3.6-0.8-5.1c-0.1-0.3-0.6-0.7-0.9-0.8c-0.3-0.1-0.8,0.1-1.1,0.4
	c-1.3,1.5-2.1,3.2-2.1,5.5C1616.1,179.1,1617.3,179.1,1619.4,179z M1640.7,177.9c-2.4,0.4-2.6,2.1-2.9,3.9c1.6,1.3,3.2,2.5,5.8,4.5
	C1642.7,182.8,1642.7,180.2,1640.7,177.9z M1546.9,192.8c-2.3-1.5-4.2-2.7-7.4-3.1c0.8,2.1,1.5,3.6,2.2,5.5
	C1543.7,194.4,1545.1,193.7,1546.9,192.8z M1498.4,289.5c-2.9,1.1-5.5,0.8-7.6,3c2.9,0.5,5,2,8,1.2
	C1498.7,292.5,1498.6,291.5,1498.4,289.5z M1523.6,206c-0.2,2.3,1.1,3.7,3,5.3c0.9-1.1,1.7-2,2.3-2.8
	C1527.7,206.7,1526,205.9,1523.6,206z M1492.9,254.3c1.3,1.9,3,2.9,5.4,2.9c0.3,0,0.9-0.4,0.9-0.6c0.1-0.5,0.1-1.3-0.3-1.6
	C1497.2,253.9,1495.3,253.4,1492.9,254.3z M1577.6,372.7c2.5-1.1,3-2.5,3.2-4.5c-1.3-0.2-2.3-0.4-3.8-0.7
	C1577.3,369.4,1577.4,370.9,1577.6,372.7z M1581.4,180.5c0.6,0,1.2,0,1.8,0c-0.6-2.1-0.1-4.4-3.2-6.8
	C1580.6,176.4,1581,178.4,1581.4,180.5z M1668.5,197.9c0.2,1.6,0.8,2.4,2.5,2.5c1.2-1.1,2.1-2.3,0.7-4.1
	C1670.5,196.9,1669.4,197.5,1668.5,197.9z M1708.7,328.2c-0.7,2-1.6,3.2-1.2,4c0.5,1.1,2,1.4,3.2,0.4c0-0.4,0.1-0.8,0-1.1
	C1710.3,330.8,1709.8,330.1,1708.7,328.2z M1688.6,208.9c-2.1-0.5-3.4,0.5-4.5,1.5c-0.7,0.6-1.1,1.6,0.4,2.2
	C1687.1,211.2,1687.1,211.1,1688.6,208.9z M1682.8,358.9c-0.2-1.4-0.1-2-0.4-2.5c-0.4-0.6-1.1-1-1.8-1.5c0,0-0.5,0.2-0.5,0.3
	c0.1,0.7,0.1,1.4,0.4,2C1680.8,357.7,1681.6,358,1682.8,358.9z M1720.2,276.5c-0.5-0.7-0.8-1.3-1.2-1.5c-0.4-0.2-1,0.1-1.5,0.1
	c0.2,0.5,0.3,1.1,0.7,1.4C1718.5,276.7,1719.2,276.5,1720.2,276.5z M1564.4,187.5c0-1.6-1.2-2-2.9-2.5
	C1562.1,187.7,1562.1,187.7,1564.4,187.5z M1622.8,374.9c-0.4-0.3-0.8-0.7-0.8-0.7c-0.4,0.2-0.8,0.5-1.1,0.8
	c-0.1,0.1,0.3,0.5,0.5,0.8C1621.9,375.5,1622.3,375.2,1622.8,374.9z M1555.7,362.5c-0.3-0.2-0.6-0.4-0.9-0.5c-0.1,0-0.5,0.2-0.4,0.3
	c0.1,0.3,0.3,0.6,0.4,0.9C1555.1,363,1555.4,362.7,1555.7,362.5z M1608.2,602.3l0.2-0.3l-0.3-0.1L1608.2,602.3z M1577.4,581.2
	l-0.5,0.2l0.5,0.2L1577.4,581.2z M1721.5,297.7c-0.1-0.1-0.3-0.4-0.4-0.4c-0.3,0-0.7,0.2-1,0.3c0.1,0.1,0.3,0.4,0.4,0.4
	C1720.8,297.9,1721.1,297.8,1721.5,297.7z"/>
<path class="st0" d="M1604.6,236.2c2.5-4.6,6.4-6.1,11.4-5.8c4.2,0.3,8.4,0.6,12.5,1c7.8,0.8,14.6,4.3,20.8,9.1
	c3.2,2.5,6.2,5.2,9,8.1c4.6,4.9,8.5,10.2,10.1,16.8c0.9,3.4,1.9,6.9,2.6,10.3c0.9,4.3,0.9,8.5-0.9,12.6c-1.2,2.8-1.9,5.8-2.8,8.8
	c-1.9,6.4-5.4,11.8-10.3,16.3c-1.1,1-2.4,1.9-3.4,3.1c-3.3,4.4-8.2,7-12.9,9.6c-4.7,2.6-10.1,3-15.5,3c-8.5,0-16.6-2.1-24.5-5.4
	c-5.2-2.2-8.8-5.7-12.6-12.5c1.1-1.6,2.2-0.4,2.8,0.5c2.7,4,6.4,6.7,10.9,8.4c9.6,3.6,19.4,5.2,29.4,4.4c6-0.5,10.7-3.8,15-7.2
	c3.8-3,6.9-6.6,10.2-10.1c3.9-4.1,6.3-9.1,7.4-14.7c0.3-1.3,0.7-2.6,1.2-3.8c1.6-3.6,1.8-7.5,1.2-11.4c-2.4-16-11-28.2-25.3-36.8
	c-1.9-1.1-4-1.9-6.2-2.5c-6.4-1.7-12.9-2.7-19.5-3.6c-2.7-0.4-5.1,0.4-7.3,1.6C1607.2,236.6,1606.4,237.8,1604.6,236.2z"/>
</svg>
