<?xml version="1.0" encoding="utf-8"?>
<!-- Generator: Adobe Illustrator 25.0.1, SVG Export Plug-In . SVG Version: 6.00 Build 0)  -->
<svg version="1.1" id="Layer_1" xmlns="http://www.w3.org/2000/svg" xmlns:xlink="http://www.w3.org/1999/xlink" x="0px" y="0px"
	 viewBox="0 0 1920 1080" style="enable-background:new 0 0 1920 1080;" xml:space="preserve">
<style type="text/css">
	.st0{fill:#FFFFFF;}
</style>
<g>
	<image style="overflow:visible;" width="1980" height="1320" xlink:href="blue_wood.jpg"  transform="matrix(1 0 0 1 -44 -135)">
	</image>
	<path class="st0" d="M168.6,1011.5c2-7.2,5.3-14,6.7-21.3c1.4-7.2,3.7-14.4,5.1-21.6c1.6-8.5,2.7-17.2,4.1-25.8
		c0.7-4.1,1.6-8.2,2.5-13c-4.2-5-3.9-11.4-3.4-17.8c0.5-6.2,1.4-12.4,1.9-18.6c0.2-2.2,0.2-4.5-0.1-6.7c-0.9-6.5-2.8-12.9-5.5-19.2
		c-0.2-0.5-0.8-0.9-1.6-1.6c-1.6,1.3-3.1,2.5-4.6,3.7c-11.1,8.4-22.9,16-36.4,22c-6.8,3-13.2,6.7-19.9,9.8c-6.3,3-12.9,5.6-19.2,8.6
		c-8.6,4.1-16.8,8.6-24.2,13.9c-1.6,1.2-3.4,2.3-4.6,3.7c-5.1,6.2-11.4,11.8-15.6,18.4c-1,1.6-2.3,2.9-4.4,3.6
		c-2.9-1.4-4-3.3-4.6-5.9c-1.7-6.2-3.9-12.4-6.1-18.6c-2.7-7.4-5.8-14.8-8.4-22.2c-2.5-7.3-4.6-14.6-6.6-22
		c-1.4-5.2-1.2-10.3,0.2-15.6c2.6-9.9,9.2-18.2,17.5-25.8c6.6-6.1,13.6-11.9,21.2-17.4c7.1-5.1,15.2-9.1,24.2-11.8
		c6.8-2.1,13.8-2.8,21.1-1.3c4.5,0.9,8.3,2.3,11.2,5.1c0.6,0.6,1.2,1.1,2,1.8c4.9-1.6,9.6-3.1,14-5.3c4.5-2.2,9.5-4.1,14.6-5.6
		c7.8-2.3,16.2-2.8,24.1-0.9c12.6,3.1,20.9,10.5,21.5,21.4c0.1,1.5-0.1,3-0.2,4.5c-0.7,9.6-1.4,19.1-2,28.7
		c-0.3,5.1,0.4,10.1,2.7,14.8c2.1,0.2,2.2-0.9,2.4-1.7c1.1-6.5,2.1-13.1,3.1-19.6c0.9-5.2,1.7-10.4,2.8-15.6
		c1.4-6.7,2.6-13.4,4.6-20c2.6-8.7,2.5-17.5,4.4-26.2c0.7-3.1,1.3-6.3,2.4-9.4c3.2-8.5,4.9-17.3,6.4-26c1.3-7.1,2.3-14.2,3.5-21.2
		c1.8-10.7,1.6-21.4,1.7-32.1c0-2.8,0-5.7-0.3-8.5c-0.2-2-0.9-4-1.6-6.5c-1.9,0.5-3.3,0.6-4.4,1.1c-3.3,1.3-6.4,2.8-9.7,4.2
		c-8.7,3.7-18,6.1-28,7.1c-5.8,0.6-11.5,0.4-16.9-1.1c-6.2-1.8-12.1-4.3-18-6.6c-1.2-0.5-2.6-1.2-2.3-2.8c1.6-0.1,3.3-0.2,4.9-0.2
		c2.9-0.1,5.2-1,7.5-2.3c1.9-1.1,3.2-2.4,3-4.3c-0.1-0.8,0.1-1.5,0-2.3c-0.8-8.8,4.7-15.5,12.3-21.5c2.9-2.4,6.4-3.5,10.5-3.7
		c16.3-0.7,30.3,2.8,40.7,12.9c0.4,0.5,0.8,1,1.3,1.4c1.6,1.3,3,3.2,6.1,2.6c3.8-0.8,6.3-3.2,6.4-6.1c0.1-2.6-0.1-5.3-0.1-7.9
		c-0.1-3.9-0.1-7.9-0.1-11.8c0-1.3,0-2.7-0.4-3.9c-2.7-10.2-6.8-20-10.6-29.9c-1.6-4.1-4.9-5.7-10.2-6.1
		c-10.6-0.9-21.3-0.9-31.9-0.7c-1,0-2,0-3,0.2c-9.5,1.9-19.2,1.2-28.9,1c-6-0.1-11.7-1-17.3-2.8c-6.6-2.2-13.3-4-19.9-6.2
		c-3.7-1.2-7.2-2.6-9.8-5c-0.7-0.7-1.1-1.5-2-2.8c2.2-0.3,3.8-0.8,5.4-0.8c9.5,0.3,18.7-0.8,27.6-3.4c4.6-1.3,9.6-1.9,14.4-2.8
		c1.2-0.2,2.4-0.4,3.6-0.6c6-1,10.9-3.1,14.7-7c3.8-3.8,8.7-6.6,15.2-8.4c-0.5-2.6-1.1-5.2-1.5-7.8c-0.4-2.4-0.6-4.8-0.9-7.6
		c-3.7,1.1-5.8,3-7.4,5c-4.1,5.1-8.7,10-10.5,16.1c-0.8,2.8-4.1,3.4-6.8,1.5c-2-1.4-3.8-3-5.2-4.7c-7-8.5-9.4-17.7-7.4-27.6
		c0.9-4.5,2-8.9,4.3-13.1c0.9-1.5,1.4-3.1,2-4.6c-1.6-1.1-2.6-0.3-3.6,0.1c-5.4,2.3-10.9,4.5-16.1,7c-8.1,3.8-16.8,6.3-26.1,7.9
		c-4.7,0.8-7.2-0.8-6.5-4.5c0.5-2.6,1.4-5.2,2.3-7.7c2.1-5.4,4.4-10.8,6.5-16.2c1.2-3.3,2.7-6.4,4.9-9.4c1.4-1.9,2.9-3.8,2.9-6.2
		c-2.3-0.5-4,0.5-5.9,0.8c-1.7,0.2-3.3,0.7-5.1,1c-5.3,0.8-10.6,1.9-16,2.4c-11.2,1-21.8,3.3-31.7,7.4c-2.2,0.9-4.6,0.2-5.3-1.7
		c-0.4-1-0.5-2.2-0.3-3.3c0.4-1.9,0.5-3.7-1.4-5.3c-1.5-1.3-1.1-2.8-0.3-4.2c0.3-0.5,0.5-1.1,1-1.5c5.3-5,8-11.2,12.4-16.6
		c1.3-1.6,2.9-3,4.4-4.5c5.2-5,10.2-10.2,15.9-14.9c4.8-4,10.4-7.5,15.7-11.1c2.9-2,5.9-4,9.4-6.3c-1.3-0.5-2-0.9-2.8-1
		c-7.6-1-15.1-2.2-22.7-2.9c-5.4-0.5-10.9-0.3-16.3-0.4c-4.2,0-8.4,0.1-12.6,0.1c-5.8-0.1-11-2.1-16.1-3.9c-1.3-0.5-2.4-1.4-3.3-2.2
		c-1.6-1.5-1.3-3.2,0.8-4.4c1.4-0.8,3-1.4,4.3-2.2c2.3-1.4,5-2.5,6.1-5c-0.9-1.5-2.7-2-4.7-1.9c-1.7,0.1-3.4,0.4-5.1,0.7
		c-3,0.7-5.9,0.5-8.8-0.8c-1.2-2.1-1-4.2,0.5-6.3c5.2-7.3,10.9-14.3,19.1-20c3.1-2.1,6.8-3.7,10.3-5.5c2-1,4.2-1.9,6.1-2.7
		c0.1-1.7-1.4-1.8-2.4-2.1c-8-3-16.2-5.6-24-8.9c-6.1-2.5-11.8-5.5-17.4-8.6c-3.5-2-6.1-4.9-7.6-8.2c-1.4-3-0.3-4.6,3.7-5.6
		c5.4-1.2,10.5-3.4,16.3-3.7c0.6,0,1.2-0.6,2.2-1.1c-1.7-0.8-3.1-1.4-4.5-2.1c-2.3-1.1-4.6-2.2-6.9-3.3c-2.3-1.2-3-3-2.7-4.9
		c0.2-1.8,1.3-3.2,3.8-3.8c3.4-0.7,6.7-1.4,10.1-2c9.2-1.5,18-3.9,26.7-6.8c7-2.3,14.7-3.4,22.3-4c1.5-0.1,2.9-0.1,4.4-0.2
		c0.8-1.5-0.7-2.2-1.6-2.9c-6.1-4.9-12.4-9.7-18.3-14.7c-3.3-2.8-5.9-6-8.8-9.1s-6-6-8.6-9.2c-2.9-3.4-6.9-5.9-11-8.3
		c-1.6-0.9-3.2-1.8-4.5-2.9c-2.1-1.8-1.1-4.1,2-4.9c1.4-0.4,2.9-0.5,4.3-0.5c8.2-0.2,16.3,0.7,24.4,1.6c4.9,0.5,9.8,1.1,14.7,1.9
		c4.8,0.8,9.5,1.9,15,3.1c-2.2-4.8-6.2-8.1-8.9-12c-2.8-3.9-6.6-7.4-8.3-12.2c1-0.5,2.1-1.3,3.3-1.7c6.7-1.8,13.7-1.3,20.6-0.9
		c3.9,0.2,7.9,0.6,11.8,0.8c8,0.3,15.6,1.9,23.1,4.1c0.9,0.3,1.8,0.5,2.8,0.7c0.2,0.1,0.5-0.1,1.1-0.1c0.1-2.5,0.1-5.1,0.4-7.7
		c0.6-5.2,0.9-10.5,2-15.7c1.1-4.8,2.9-9.5,4.7-14.2c0.5-1.3,2.3-2.3,4.1-4.1c0.1-0.7,0.1-2.2,0.4-3.6c0.3-1.8,3-2.9,5.1-1.9
		c1.6,0.8,3.2,1.8,4.2,3.1c4,5.4,10.9,8.2,17.7,10.7c10.5,3.8,20.6,8.1,30.4,12.9c0.1,0.1,0.4,0,0.7-0.1c0.3-0.3,0.8-0.5,0.9-0.8
		c1.2-4.4,2.2-8.9,3.5-13.2c2.9-10.1,5.9-20.2,9-30.2c0.8-2.6,1.8-5.1,3.2-7.5c1-1.7,2.6-3.1,4.3-4.4c1.5-1.2,4.1-0.6,4.9,1
		c0.6,1.2,0.8,2.5,0.9,3.8c0.3,1.9,0.3,3.9,0.6,5.9c2.1-0.4,1.6-1.3,1.6-1.9c0.3-3.6,0.4-7.1,0.9-10.7c0.3-2.5,1.7-4.7,4.5-6.3
		c2.1-1.2,4.6-0.7,5.4,1.1c0.7,1.6,1.5,3.2,1.7,4.9c0.4,4.3,3.3,7.5,7.2,10.2c5.9,4.1,10.6,8.9,15.1,13.8c0.3,0.3,0.8,0.5,1.5,0.9
		c0.7-0.7,1.6-1.3,2-2.1c1.5-3,2.9-6,4.2-9c2.6-6.2,6.8-11.6,13.1-16.1c2.4-1.7,5.2-2.9,8.4-3.5c5-1,7.6,0.2,8.5,4.1
		c1.3,5.7,4.1,10.7,8.3,15.5c2.6,2.9,4,6.3,6.1,9.7c1.2,0.3,1.6-0.8,2.4-1.4c2.6-2.3,5.5-4.4,7.8-6.8c3.1-3.4,5.8-7,8.5-10.6
		c2.7-3.6,5-7.3,7.6-10.9c3.9-5.4,10.5-11.4,16.1-14.6c1.8,0.9,2.2,2.3,2.2,3.8c0,2.8,0.3,5.7-0.2,8.4c-1.2,6.6-1.2,13.1,0,19.7
		c0.2,1.4,0.3,2.8,0.5,4.8c5.8-3,11.1-5.7,16.3-8.5c2.9-1.5,5.7-2.9,9.4-3c3-0.1,4.2,0.9,3.7,3c-0.1,0.4-0.2,0.7-0.4,1.1
		c-3.5,8.4-4.5,16.9-3.8,25.6c0.1,2.1,0.2,4.1,0.1,6.2c-0.1,2.8-0.5,5.6-2,8.3c-0.5,0.8-0.6,1.7-1,3.2c6.5-2.4,11.9-4.8,16.8-8.1
		c5.8-3.8,11.7-7.5,17.9-11c3.7-2.1,7.9-3.8,12.5-4.8c3.7-0.8,7.3-2.2,11.5-3.4c0.2,1.3,0.7,2.2,0.5,3c-1.2,4.4-2.4,8.8-4.1,13.2
		c-1,2.5-2.6,4.8-4.2,7.2c-1.3,1.8-2.7,3.6-4.4,5.2c-4.6,4.4-6.5,9.6-8.9,14.7c-0.1,0.3,0.1,0.7,0.3,1.4c7-2.2,12.5-5.8,17.5-9.9
		c8.2-6.8,18.1-11,30.5-11.2c5.7-0.1,11.4,0.1,17.1,0.3c3.1,0.1,4.2,1.2,4.7,3.6c0.6,3-0.8,5.5-2.8,8c-1.3,1.6-2.9,3.1-3.6,4.9
		c-3.2,7.5-9.8,12.9-17.8,17.6c-5.7,3.3-11.5,6.5-17.4,9.7c-11.4,6.1-21.5,13.2-30,21.7c-0.4,0.4-0.7,0.9-1.4,2
		c4.1-1,7.5-1.9,11-2.8s7.1-1.7,10.6-2.5c3.5-0.8,7.1-1.7,10.6-2.5c3.5-0.8,7.2-1.4,10.8-2s7.3-1.1,11-1.5c3.9-0.4,7.9-0.6,11.8-0.9
		c3.7-0.3,7.4-0.7,11.1-0.8c3.7-0.1,7.4-0.1,11.1,0.1c3.7,0.1,7.4,0.4,11.1,0.6c3.7,0.2,7.4,0.2,11.1,0.5c3.6,0.3,7.5-0.7,10.9,1.9
		c-1.9,4.1-6.6,6.6-11.1,10c2,0.5,3.2,0.9,4.6,1.1c5,0.6,9.5,2.2,13.8,4c1.7,0.7,3.7,1.3,3.5,3.2c-0.2,1.8-1.8,2.5-3.9,2.9
		c-1.2,0.2-2.3,0.6-4.8,1.1c2.8,0.6,4.3,0.9,5.9,1.2c6.5,1,11.8,3.7,16.8,6.8c1.6,1,3.3,2.4,2.5,4.8c-1.3-0.1-2.8,0-3.9-0.5
		c-8.2-3.8-17.2-3.2-26-2.4c-6.8,0.6-12.3,3.7-18.1,6.2c-2.8,1.2-5,2.9-7.2,4.7c-6,5-12,10-18.6,14.5c-4.9,3.4-10.4,6.4-16.7,8.4
		c-1.1,0.3-2.1,0.8-3.1,1.1c0.1,1.4,1.4,1.2,2.2,1.2c12-0.1,23.5-2,34.7-5.4c4.3-1.3,8.8-2.6,13.4-3.3c3.5-0.5,7.5-0.4,11,0.1
		c7.6,1.2,15.2,1.7,22.9,1.2c2-0.1,4-0.4,5.3,1.6c-0.4,0.5-0.9,1.1-1.4,1.7c-1.6,1.7-3.7,3.2-4.7,5c-2.3,4.5-6.7,7.3-11.8,9.8
		c-6.7,3.3-13.3,6.5-20.7,8.8c-3.9,1.2-7.4,2.9-10.4,5.2c-4.5,3.6-10.8,5.2-16.4,7.6c-1.2,0.5-2.5,1-4.3,1.7
		c8.2,5.3,16.9,9.6,23.4,15.9c6.5,6.2,11,13.2,16.2,20.5c4.7,1.4,9.8,2.4,15.4,2.1c2.2-0.1,2.2,0,5,2c-1.9,5.2-8.1,7.8-12.8,11.5
		c1.3,4.2,2.3,8.5,1.5,12.8c-0.1,0.7-0.2,1.5-0.3,2.2c-0.4,1.7-1.5,3-2.8,3c-1.8,0-2.3-1.2-3.2-2.1c-4.4-4.7-10.5-7.9-16.7-11
		c-1-0.5-2.3-0.6-3.5-0.7c-4.7-0.2-9.4-0.4-14.1-0.5c-0.5,0-1-0.1-1.5,0c-6.7,1-13.5,2-20,2.9c0,0.8-0.2,1.2,0,1.5
		c4.5,5.4,9.5,10.5,15.8,14.9c4.8,3.4,10.3,5.8,16.1,8c9.2,3.5,17,8.4,24.1,13.9c2.8,2.2,4.9,4.6,5.3,7.8c-0.9,0.4-1.5,0.9-2,0.9
		c-7.7,0.1-15.4,0.3-23,0c-7.3-0.3-13.8-2.5-19.8-5.8c-7.6-4.2-14.9-8.6-21.5-13.8c-3.9-3.1-9.1-4.4-14.5-5.3
		c-0.6-0.1-1.4,0.2-2.4,0.3c2,2.3,3.7,4.6,5.7,6.7c5.1,5.4,8.2,11.5,12.3,17.3c1.4,2,2.6,4.1,3.8,6.1c5.1,8.6,9.6,17.3,10.4,26.9
		c0.3,3.4,1.3,6.7,1.9,10c0.4,2.3-0.9,3.6-4,3.8c-3,0.2-5.9,0.4-8.9,0.5c-4.5,0.1-8.8-0.6-12.5-2.5c-2,0.9-1,2.1-1,3.1
		c-0.1,3.2,0,6.4-0.2,9.6c-0.1,1.9-0.5,3.8-3.5,4.6c-0.6-0.1-1.5-0.1-2-0.4c-5.6-2.8-11.9-4.6-18-6.6c-4.7-1.5-9.2-3.8-13.3-6.2
		c-4.1-2.5-6.8-5.9-8.5-9.8c-1.5-3.6-2.6-7.2-4-10.8c-1.9-4.9-3.9-9.7-5.9-14.5c-1.7-3.9-3.6-7.8-5.4-11.9c-4.4-1.5-8.9-3-13.8-4.6
		c0,0.8-0.2,1.3,0,1.7c2.5,4.4,3,9.1,2.8,13.8c-0.3,5.6,0.2,11.2,1.5,16.8c0.7,2.8,0.7,5.6,1.5,8.4c1,3.3,2.5,6.5,3.7,9.7
		c2,5.4,4.7,10.8,5.7,16.3c1.6,8.8,0.8,17.6-4,26c-1.1,2-2.5,3.6-5.4,4.5c-1.8-0.9-2.2-2.4-2.5-3.8c-1.5-7-6.9-11.9-13.9-16.1
		c-0.3-0.2-0.9-0.2-1.4-0.3c-1.5,0.5-1.2,1.5-1.2,2.4c-0.1,2.1,0,4.1,0,6.2c-0.1,7.1-2.3,13.7-8,19.5c-2.1,2.1-3.7,4.5-5.6,6.6
		c-0.8,0.9-2,1.5-3.6,2.6c-0.8-1.4-1.8-2.4-1.7-3.3c0.6-5.8-2.1-11.1-4.7-16.4c-2.3-4.8-4.6-9.5-6.6-14.4c-1.3-3.1-3.1-5.9-6.2-8.2
		c-1.7-0.1-1.9,1-2.5,1.7c-2,2.8-4,5.6-5.8,8.5c-2,3.2-3.9,6.5-5.5,9.8c-2.6,5.3-5.4,10.5-9.4,15.3c-1.3,1.6-2.9,3.1-4.7,4.3
		c-2.4,1.6-4.9,3.1-6.8,5.1c-0.5,0.5-1.7,0.9-2.6,0.8c-1.5-0.1-1.8-1.1-2-2c-0.5-2.2-1.1-4.5-1.3-6.7c-1-8.9-4.2-17.3-9.8-25.7
		c-3.5,3.9-7.5,7.3-8.5,12.2c-2.2,11.1-4.6,22.3-7,33.4c-2.1,9.8-4.2,19.7-8.2,29.2c-1.8,4.3-4.1,8.5-5,13c-0.1,0.7-0.2,1.5-0.4,2.5
		c0.8,0.3,1.5,0.7,2.4,1c9.3,3.1,9.6,8.4,5.5,13.8c-2.4,3.2-5.9,5.6-9.9,7.5c-3.5,1.6-5.1,3.7-5.6,6.8c-1.6,9.9-5.8,19.4-8,29.2
		c-2.5,10.9-5.6,21.8-6.4,32.9c-0.3,3.6-1,7.1-1.4,10.7c-0.1,0.7,0,1.3,1,2.2c1.4-1.9,2.9-3.7,4.3-5.7c6.4-9.1,12.6-18.3,19-27.4
		c2.2-3.1,4.9-6.1,7.3-9.1c1.1-1.5,2.3-2.9,3.2-4.4c3-4.6,3.5-9.3,1.8-14.3c-0.8-2.3-1.5-4.8-1.6-7.2c-0.2-9.7,8.4-15.1,21.2-14
		c3.4,0.3,6.7,1.2,10,2c6.1,1.5,12.2,3,18.3,4.7c4.7,1.3,9.6,1.9,14.6,1.7c12.8-0.3,25,1.7,37.4,3.9c9,1.6,17.5,4.1,26,6.6
		c9,2.6,17.5,6.1,23.9,12c1.5,1.4,3.7,2.5,5.6,3.7c3.9,2.4,5.2,3.8,7.7,8.2c-2.4,0.8-4.4-0.3-6.3-0.9c-10.7-3.4-21.7-4.9-33.4-3.9
		c-16.5,1.5-33.2,0.6-49.8,0.6c-8.9,0-17.8-1.2-26.6-1.9c-10.3-0.8-20.2,0.6-30.1,2.5c-4.4,0.8-7.1,3.2-9.2,6.1
		c-4.8,6.6-9.5,13.2-14.2,19.8c-1.3,1.8-2.7,3.6-4,5.4c-3.1,4.3-6.3,8.5-9.3,12.8c-4.3,6.1-8.7,12.2-12.8,18.4
		c-2.3,3.5-4.3,7.2-6.1,10.9c-4.6,9.9-9.5,19.7-11.6,30.2c-1.6,8.3-4.7,16.5-6.8,24.8c-1.2,5-1.7,10.1-2.8,15.1
		c-3,14.5-4.9,29.1-6.9,43.7c-0.7,5-2,10-3,15c-1.9,9.5-3.9,18.9-5.8,28.4c-1.8,8.7-3.5,17.5-5.2,26.2c-0.6,3-0.7,6-1.3,9
		c-2,8.9-4.2,17.8-6.4,26.6c-0.6,2.2-1.2,4.4-1.9,6.6c-1.5,0-3,0-4.5,0c0.7-3.7,1.3-7.4,2.1-11.1c1.7-7.8,3.9-15.5,5.1-23.3
		c1.3-9.2,2.6-18.3,4.9-27.3c2.2-8.3,3.7-16.7,5.3-25c1.9-9.8,4-19.7,5.3-29.6c1.9-14,4.6-28,7.3-41.9c1.5-7.6,3.6-15.2,5-22.8
		c2.9-16.5,9.2-32.3,16.8-47.8c1.5-3,3-6,4.9-8.8c5.5-8,11-15.9,16.8-23.8c6.7-9.2,13.6-18.3,20.5-27.4c3.1-4.1,6.2-8.1,10.6-11.5
		c0.8-0.6,1-1.7,1.5-2.5c1.6-0.1,3.3-0.2,4.9-0.3c2.3-0.6,4.6-1.4,7-1.8c8.5-1.5,17.1-2,25.8-1.5c16,0.9,32,1.5,48.1,1.6
		c2.5,0,5,0.1,7.4,0c2.2-0.1,4.5,0.3,8.1-0.7c-7.5-0.8-13.5-1.7-19.7-1.5c-11.5,0.3-22.5-1.6-33.3-4.4c-9.2-2.4-18.8-3.1-28.5-1.3
		c-6.2,1.2-11.3,3.7-15,7.7c-0.4,0.4,0.1,1.3,0.2,1.9c-1.7,0.1-3.4,0.2-5,0.2c-0.8,0-1.7,0.1-3.2,0.2c3-4.6,3.1-8.7-0.9-12.9
		c-0.4,7.6-0.2,7.7-4.8,14.4c-4.3,6.3-9.3,12.4-13.7,18.7c-8,11.5-15.7,23-23.5,34.5c-2.8,4.2-5.4,8.5-8.1,12.6
		c-0.7,1-1.6,2-3.9,1.1c0.6-4.1,1.3-8.4,2-12.7c1.9-11.4,4.3-22.7,5.2-34.1c0.2-2.6,1-5.2,1.6-7.8c0.9-3.9,2-7.7,3-11.6
		c0.7-2.8,1.4-5.5,2.2-8.3c2-6.8,4.2-13.5,6.2-20.3c0.3-1,0-2.1,0-3.5c-5.6,1.2-10.7,2.4-16.2,3.6c-0.3,2.3-0.9,4.3-0.9,6.3
		c0.1,6,0.6,12,0.8,18c0.1,4.7,0.2,9.4-0.2,14.1c-0.5,6.2-1.4,12.3-2.2,18.5c-0.8,6.3-2.1,12.7-2.6,19c-0.6,7.7-3.1,15.2-4.4,22.8
		c-0.1,0.5-0.3,1.1-0.7,1.6c-0.4,0.4-1.1,0.9-1.6,0.9c-0.6,0-1.4-0.5-1.6-0.9c-1.5-2.9-1.1-5.9-0.4-8.9c0.6-2.6,1.7-5.1,2.1-7.7
		c0.9-5,1.4-10.1,2.1-15.1c1.2-8.8,2.9-17.5,3.4-26.3c0.6-10.9,0.2-21.8,0.3-32.7c0-2.6,0-5.2,0-7.7c-2.7-0.5-4.4-0.2-5.4,1
		c1,4.3,2.6,8.4,2.7,12.5c0.4,14.7,0.4,29.3-2.8,43.8c-1.2,5.4-2.1,10.8-3.3,16.2c-1.3,5.9-2.6,11.8-4.2,17.7
		c-2.5,9.2-5.1,18.4-5.6,27.8c-0.1,2.8-0.7,5.6-1.4,8.4c-2,8.1-4.3,16.2-6.1,24.3c-1.1,5.2-1.6,10.4-2.4,15.7
		c-1,6.9-1.8,13.8-3.2,20.7c-2,9.8-4.4,19.6-6.5,29.4c-0.7,3.3-0.8,6.8-1.4,10.1c-1.8,9.5-3.7,19-5.6,28.4c-0.3,1.7-0.6,3.3-0.8,5
		c-0.8,10.9-2.9,21.7-5.7,32.3c-2.9,11.2-5.6,22.5-9.5,33.6C172.6,1011.5,170.6,1011.5,168.6,1011.5z M403.2,530.1
		c0-0.3,0-0.6-0.1-0.8C403.2,529.5,403.2,529.8,403.2,530.1c0.4,0.1,0.9,0.3,1.3,0.5c0-0.2,0-0.5-0.1-0.5
		C404.1,530.1,403.7,530.1,403.2,530.1z M246.9,202.9c0-0.3,0-0.6,0-0.9c0-0.2-0.2-0.3-0.4-0.4c0.1,0.2,0.2,0.3,0.3,0.4
		C246.9,202.3,246.8,202.6,246.9,202.9c1.4,0.4,1.8,1.2,1.4,2.3c1.4,0.5,1.4,1.4,1.3,2.3c3.8,4.5,4.5,6.2,3.8,10.4
		c-2.9-1-3.2-3.3-4.5-5c-1.4-1.8-2.6-3.6-3.9-5.4c-1.2-1.8-2.4-3.7-3.6-5.6c-1.1-1.7-2.1-3.4-3.1-5.1c-1.1-1.9-2.3-3.8-3.2-5.7
		c-0.9-1.9-1.5-4-2.5-5.9c-0.9-1.8,0.1-4-2.2-6.2c-2,6.4-4.6,12.1-5.8,18c-1.4,7.4-3.4,14.8-5.7,22.1c-2.1,6.6-1.9,13,0.5,19.5
		c1.9,5.2,4.1,10.5,5.3,15.8c1.9,8,7,14.8,13.1,21.2c0.4,0.4,1.1,0.6,2.2,1.2c-0.5-2.4-0.9-4.4-1.2-6.4c-0.1-0.7,0-1.5,1.9-1.3
		c1.6,3.4,3.1,6.9,5.1,10.3c3.8,6.3,4.5,6.8,8.7,9c-0.5-1.6-0.8-2.9-1.4-4c-3.2-6-4.6-12.3-4.7-18.7c-0.1-4.7-0.2-9.4,1.7-13.9
		c0.4-0.9,1.2-1.6,3.5-0.9c-1,11.5-1.6,23.3,4.8,34.4c1.9,0.1,2.8-0.4,2.9-1.5c0.1-0.5-0.1-1.1-0.4-1.6c-2.5-5.1-2.1-10.4-1-15.6
		c2.2-10.8,5.4-21.4,2.5-32.4c0.9-6-1.3-11.5-4.4-16.9c-0.3-0.5-0.4-1.1-0.7-1.6c-1.7-2.9-3.5-5.8-5.3-8.7c-1.1,0.3-1.8,0.5-2.4,0.6
		c0.8-1.1,0-1.7-1.1-2.3C247.7,204.6,246.5,204.1,246.9,202.9z M282.2,273.6c0.1,0.1,0.2,0.3,0.1,0.4c0,0.1-0.1,0.2-0.2,0.3
		c0.1-0.2,0.1-0.5,0.2-0.7c-0.8-0.7-1.7-1-2.9-0.7c0.1-0.5,0.1-1,0.3-1.5c0.2-0.8-0.1-1.3-1-1.6c0-0.4,0.2-0.8,0-1.1
		c-2.9-4.1-5.8-8.2-8.8-12.3c-0.2-0.2-0.8-0.3-1.6-0.6c-2,5.4-3,10.6,1,15.7c1.8,2.3,3.3,4.6,4,7.2c0.2,0.7,0.6,1.5,1.2,2
		c1.2,1.1,2.5,0.9,3.8,0c0.6-4.2-4.4-7.5-3.7-12c1.6,0.4,2.9,0.7,4.2,1c0.2,1,0.4,2.1,0.6,3.1C280.4,273.1,281.3,273.4,282.2,273.6z
		 M217.2,559.7c3.3-3.7,8.4-5.1,13.8-5.5c4.3-0.3,8.7-0.1,13.5-0.1c-0.1-6.5-1.4-12.5-4-19.2c-1.1,1-1.8,1.5-2.3,2
		c-3.3,3-6.7,6-9.9,9c-3.9,3.6-7.6,7.4-11.4,11.1C216.1,558,216.7,558.9,217.2,559.7c-0.4-0.2-0.7-0.5-1.1-0.7
		c-0.2-0.1-0.6,0.3-0.9,0.4c0.2,0,0.5,0,0.7,0C216.3,559.6,216.7,559.7,217.2,559.7z M241.3,676.1c-12.5,0.3-24.6,1.8-36.1,5.7
		c-11.4,3.8-22.9,7.4-34.9,11.3c2.1,0.3,3.8,0.9,5.4,0.8c9.9-0.6,19.8-1.7,28.5-5.6c10.8-4.8,22.2-8.2,34.1-10.9
		c1.1-0.2,1.9-1,2.9-1.4c1.8,0,3.6,0,5.4,0c-0.9-0.7-1.8-0.8-2.7-0.7C243,675.4,242.2,675.8,241.3,676.1z M440.9,449.3
		c-0.3-0.3-0.7-0.6-1-0.9c-0.1,0.1-0.3,0.2-0.4,0.4C439.9,449,440.4,449.2,440.9,449.3c0.2,0.5,0.2,1.1,0.7,1.5
		c10.9,8.8,18,19.2,24,30.2c2.8,5.2,5.2,10.5,5.5,16.3s1.1,11.6,1.7,17.4c0.2,1.9,0,3.8,1.8,5.4c6.4,2.7,13.2,3.6,20.5,1.8
		c-0.2-1.9-0.4-3.6-0.5-5.3c-0.6-8.1-2.6-16-7.4-23.4c-2.7-4.2-5.1-8.5-7.6-12.8c-4.3-7.4-9.5-14.4-16-20.8
		c-3.6-3.6-7.6-6.3-13.4-7.5c-2.3-0.5-4.4-1.6-6.7-2.4C442.8,449.5,441.8,449.5,440.9,449.3z M524.2,465.1c0.4,0.3,0.8,0.5,1.3,0.8
		c0.1-0.1,0.2-0.3,0.3-0.4c-0.5-0.1-1.1-0.1-1.7-0.2c0.1-1.5-1.6-1.8-2.8-2.2c-7.7-3-15.2-6.2-22.1-10.3c-4.9-2.9-10-5.6-15.4-7.8
		c-8.9-3.7-18.1-7-27.1-10.5c-2.2-0.9-4.4-1.7-6.5-2.6c-8.3-3.8-16-8.1-24.6-11.5c-4.8-1.9-9.2-4.3-13.8-6.6
		c-1.8-0.9-2.7-0.5-3.3,1.1c2,1.5,4.1,3,6.3,4.5c2.4,1.7,4.7,3.3,7.1,5c2,1.4,4.7,2.5,5.7,5.6c-4.6-1.2-7.4-3.3-10.3-5.2
		c-3-2-5.7-4.5-11-6.5c2.5,2.9,4,4.7,5.6,6.5c0.8,0.9,1.7,1.8,2.5,2.8c3.6,4.2,8.4,7.3,13.6,10.3c5.4,3.1,11.6,5,17.4,7.5
		c4.2,1.9,8.6,2.8,13.2,3.6c5.8,1,11.6,2.1,17.3,3.2c4.9,1,9.1,2.8,12.8,5.5c1.8,1.3,3.6,2.6,5.4,3.9c8.1,5.9,16.6,11.2,27.5,13.9
		c4.3,1.1,9.7,1.3,15,0.1c-0.5-0.5-0.8-1-1.3-1.3c-6.9-3.3-14.1-6.3-21.8-8.3c-8.3-2.2-15.6-5.6-21.1-10.9c-0.6-0.6-1-1.3,0-2
		c0.2,0,0.5-0.1,0.7-0.1c1,0.5,2.1,1,3,1.5C504.2,459.8,513.7,463.3,524.2,465.1z M349,453c3.8-0.3,7.2-1.1,10.1-3.2
		c1-0.7,2.7-0.9,4-1.5c1.5-0.6,3-1.2,4.4-2c4.7-2.7,8-6.8,14.1-8c0.2,0,0.4-0.2,0.6-0.3c3.6-3.3,7.3-6.6,10.6-10
		c2-2.1,3.7-4.4,5.3-6.7c1.3-1.8,2.1-3.8,3.4-5.6c2-2.9,3.2-5.9,3.8-9.1c0.3-1.6,0.6-3.4,1.6-4.9c2.3-3.4,4.7-6.6,3.9-10.6
		c-0.1-0.5,0.3-1.1,0.5-1.6c1.1-2,0.9-4,1-6.1c0.2-4.6-2.3-8.7-3.4-13.1c-1.4-5.5-3.4-10.9-5.1-16.4c-0.2-0.5-0.2-1.1-0.2-1.7
		c-0.2-5.5-1.3-10.7-4.4-15.7c-0.8-1.3-1.4-2.4-3.2-2.8c-2.7-0.6-4.1-1.8-4.6-3.9c-0.5-2.6-2.8-4.5-5.8-5.5
		c-3.3-1.1-5.2-2.9-6.2-5.3c-0.9-2-2.4-3.5-4.2-5.1c-2.5-2.3-4.9-4.5-8.2-6.2c-2.8-1.5-4.8-3.8-7.1-5.7c-1-0.8-1.8-1.9-3-2.5
		c-4.8-2.2-9.6-4.4-13.9-7.2c-2.3-1.5-5.9-1.9-8.9-2.6c-2.2-0.5-4.2-1-5.8-2.3c-2.7-2.2-6.2-3.1-10.1-2.3c-2.5,0.5-4.9,0.3-7.2-0.4
		c-0.9-0.3-2-0.4-2.9-0.3c-3.3,0.4-6.4-0.1-9.5-0.5c-3.4-0.4-6.9-0.6-10.3-0.6c-1.7,0-3.7,0-5,0.6c-4.5,2.3-9.7,2.9-14.6,3.9
		c-4.3,0.8-7.9,2-10.9,4.4c-2.9,2.3-6.3,3.6-10.5,3.6c-1,0-2,0.1-2.9,0.2c-8.4,1.5-15.8,4.1-20.1,10.3c-2.6,3.8-6.2,7.1-11,9.7
		c-3.3,1.8-6,4.6-7.9,7.3c-1.6,2.3-2.9,4.7-5.2,6.7c-0.6,0.6-1.4,1.2-1.5,1.9c-0.5,3.4-3.5,5.6-6,8.1c-3.6,3.5-6.4,7.5-7,12.2
		c-0.4,3-1.3,5.9-3.3,8.6c-0.9,1.1-1.2,2.5-1.7,3.7c-1.4,3.4-2.9,6.8-1.9,10.4c-2.1,4.8-1.4,9.5,1.1,14.2c0.5,1,0.5,2.2,0.8,3.3
		c0.4,1.6,0.8,3.3,1.1,5c0.2,1.3,0.6,2.6,0.4,3.9c-0.7,4.8,2.8,9.1,2.5,13.8c0,0.3,0.4,0.7,0.6,1c2.3,2.7,4.3,5.4,4.8,8.7
		c0.1,0.7,0.9,1.3,1.5,1.9c4.4,4,7.2,8.9,12.6,12.4c1.5,1,2.6,2.2,4.5,2.7c3.1,0.9,5.5,2.5,7.2,4.7c0.9,1.2,2,2.1,3.8,2.5
		c1.5,0.3,2.3,1.4,3.4,2c3.9,2.1,7.4,4.7,12.8,5.2c4.6,0.5,9,1.9,13.3,3.3c2.6,0.8,5,1.2,7.8,1.4c5.7,0.4,11.9-0.7,16.8,2.7
		c0.8,0.5,2.3,0.5,3.5,0.7c1.7,0.3,3.4,0.5,5,0.8c8.2,1.3,16.4,2.6,24.8,0.6c1.6-0.4,3.4-0.3,5.1-0.2c2.5,0.1,4.9,0.4,6.9-1.3
		c1.1-0.9,2.6-0.8,4.2-0.5c1.2,0.2,2.4,0.3,3.5,0.4c1.5-1.2,2.8-2.3,4-3.2c4.5,1.2,4.5,1.2,7.5-0.5c0.8-0.4,1.5-1.1,2.4-1.2
		C344.8,458.2,347,455.9,349,453z M58.8,930.2c0.3,0.1,0.7,0.2,1.1,0.3c1-1,2.1-2,3.1-3.1c5.2-5.6,11.9-10.2,19.1-14.1
		c9.4-5.1,19.6-9.5,29.3-14.3c15.1-7.4,31-13.9,44.9-22.8c10.6-6.8,20-14,25.6-23.7c3-5.2,5.6-10.5,6.1-16.2
		c0.4-4.9-0.4-9.8-0.2-14.6c0.2-5.9-7.9-12.3-15.8-13.2c-9.2-1-18.4-0.9-26.8,2.7c-4.7,2-9.1,4.4-13.8,6.6c-2.7,1.3-5.3,2.9-8.3,3.7
		c-3.5,0.9-5.8,2.6-8.3,4.5c-8.4,6.8-14.4,14.8-19.9,23c-5.7,8.5-11.1,17.2-16.3,25.9c-3.3,5.6-6.8,11.3-8.8,17.3
		C65.6,904.8,62.4,917.5,58.8,930.2z M187.8,430.7c-3.3-1-3.3-1-4.5-0.8c-11.5,2.4-22.7,5.2-33.1,9.6c-3.2,1.4-6.7,2.4-10.1,3.5
		c-0.6,0.2-1.4,0-2.6,0c0.8-0.9,1.2-1.5,1.8-2c3.8-2.8,8-5,12.7-6.8c9.3-3.5,19-6.4,29.4-7.7c0.7-0.1,1.3-0.5,2.3-0.9
		c-0.3-1.4-0.7-2.8-0.9-3.9c-0.7-0.4-0.9-0.5-1.1-0.6c-2-0.1-3.9-0.2-5.9-0.3c-10.9-0.4-21,1.2-29.9,6.5c-4.6,2.8-9.9,5.1-15.8,6
		c-5.6,0.8-10.1,3-14.5,5.5c-1.6,0.9-3.2,1.8-4.7,2.8c-7.4,4.7-15.4,8.9-21.7,14.5c-4.3,3.9-8.5,7.8-12.7,11.8
		c-2.3,2.2-4.7,4.4-6.6,6.8c-4.6,6-9,12.1-13.4,18c1,2.4,1.9,4.7,3,7.2c2.8-0.8,5.6-1.1,7.9-2.1c5.1-2.2,10.6-3,16.2-3.7
		c5.8-0.8,11.8-1.4,17.5-2.3c3.6-0.6,7.1-1.5,10.6-2.5c3.9-1.1,7.7-2.6,11.6-3.7c2.9-0.8,5-2.1,7-3.9c4.8-4.2,9.1-8.8,14.4-12.8
		c9.9-7.7,21.1-13.5,34.4-17.2c2.5-0.7,4.3-1.7,5.6-3.4c2.6-3.4,5.2-6.8,7.8-10.3c1.4-1.9,1.2-2-2.5-4.1c-2.9,1.5-6.1,2.9-8.9,4.6
		c-4.4,2.7-8.5,5.7-12.9,8.5c-1.1,0.7-2.5,1.2-3.8,1.8c-0.3,0.1-0.8-0.1-1.2-0.2C166.3,443.3,172.5,438.8,187.8,430.7z M116.4,819.2
		c-3.1-4-3.9-4.5-8-5.5c-6.9-1.7-13.6-0.9-20.3,1c-9.1,2.5-16.6,6.8-23.3,11.8c-9.2,6.8-17.6,14.2-25.2,22.1
		c-9.2,9.5-12,20-10.3,31.4c1.3,8.8,4.2,17.4,7.7,25.8c4,9.7,7.6,19.4,9.8,29.4c0.5,2,1.2,4,1.8,6c0.1,0.2,0.7,0.4,1,0.5
		c0.4-0.2,1.1-0.3,1.2-0.6c2.2-6.2,4.5-12.3,6.3-18.5c2.6-9,4.7-18,7.1-27c0.5-2,1.2-4,2.1-6c7.7-16.9,17.7-33,28.5-48.8
		c4.1-6,9.5-11.4,15.2-16.6C111.9,822.5,114.1,821,116.4,819.2z M323.2,280.1c0.6-0.8,1.1-1.5,1.7-2.3c2.4-3.3,4.6-6.7,8.4-9.2
		c4.1-2.8,7.4-6.1,10.1-9.6c1.4-1.8,2.7-3.6,4.4-5.2c6.8-6.1,9.5-13.5,12.4-20.9c1.9-4.9,3.4-9.8,5.3-14.7c1.8-4.4,2.4-8.7,1.5-13.3
		c-1-5.4-1.4-10.8-1.9-16.3c-0.4-4.7,0-9.4-0.7-14.1c-0.7-4.2-0.9-8.2-0.1-12.3c0.4-1.9,1-4,0.1-5.9c-2.6-0.1-3.4,1.3-4.1,2.3
		c-2.9,3.9-5.9,7.8-8.5,11.9c-4.2,6.4-8.9,12.5-15.3,17.9c-3,2.5-5.7,5.2-8.3,8c-3.3,3.5-6.3,7.2-9.4,10.8c-2.9,3.3-5.2,6.8-6,10.8
		c-1.4,7.1-3,14.1-4.1,21.2c-1.1,7.8-1.1,15.8,1.9,23.4c2,5.1,2.6,10.3,2.9,15.6c0,0.9-0.3,1.9,1,2.5c2.4,0.3,2.3-1.1,2.5-2.1
		c1.9-8.8,7.2-16.3,14.1-23.3c0.5-0.5,1.1-1.3,2.7-0.4c-0.6,2.9-3.2,5.2-4.8,7.9c-1.6,2.8-3.2,5.5-4.5,8.3
		C323.2,274,321.7,276.8,323.2,280.1z M209.2,447c-4.3,1.7-8.1,3.4-12.1,4.7c-7.5,2.5-15.1,4.6-22.6,7.1
		c-10.6,3.5-19.7,8.6-27.4,15.1c-5.9,5-11.5,10.3-17.1,15.5c-5.1,4.7-9.3,9.7-11.9,15.5c-3.9,8.5-7.9,17-11.7,25.5
		c-0.3,0.8-0.1,1.7-0.1,2.8c5.6-1,10.4-2.1,15-4c11.5-4.8,23-9.5,34.5-14.3c10.6-4.4,21.3-8.7,29.6-15.7c3.2-2.7,6.4-5.2,8.6-8.4
		c2.9-4.2,5.9-8.2,9.6-12c1.3-1.3,2.5-2.8,3.4-4.3c4.1-6.6,7.4-13.5,9.5-20.7c0.1-0.3-0.4-0.6-0.6-1c-2.3,0.5-2.3,0.5-2.7,1.2
		c-4.9,8.4-11.6,15.7-20.5,21.8c-0.7,0.5-1.6,0.9-3-0.1c6.9-8.7,16.8-16.1,21.5-26.3C210.7,448.7,210,447.8,209.2,447z M388.8,318.2
		c5.9,0.2,11.8,0.5,17.8,0.7c3.7,0.1,7.5,0.5,11.1,0.2c9.3-0.8,18.6-1.9,27.9-2.9c1.9-0.2,3.9-0.7,5.7-1.1c8.2-2,16.5-3.9,24.7-6
		c11.3-2.9,21.9-6.7,30.2-13.6c3.3-2.7,7.3-5.1,11.5-7c6.4-2.9,12.2-6.4,18-9.9c1.1-0.7,1.9-1.6,3.4-2.9c-3.2-0.4-5.6-0.8-8-0.8
		c-9.6-0.1-19.3-0.4-28.9,0c-19.8,0.9-39.1,4.2-58,8.8c-12.6,3-24.4,7.2-34.9,13.3c-6.1,3.5-11.8,7.4-17.6,11.1
		c-2.3,1.4-4.6,2.8-6.8,4.3c-0.6,0.4-0.7,1.2-1.3,2.3c9.6,0.4,17.6-2.9,26.7-4C404.1,315.8,396.6,317.3,388.8,318.2z M444.2,199.3
		c-5.4,0.3-7.4,0.5-11.6,2.9c-5.3,3-10.6,6.1-15.5,9.6c-6.2,4.4-12.8,8.4-20.5,11c-6.7,2.2-12.2,5.7-17.9,9c-3.9,2.2-7,5.2-10.1,8.2
		c-7.8,7.7-9.9,17.1-12.6,26.2c-1,3.5-1.8,7-2.8,10.5c-1.2,4-2.5,8.1-3.7,12.1c-0.3,1-0.2,1.9,1.4,2.5c2.1-1.5,3.4-3.5,5-5.4
		c4-4.8,9.4-8.7,15.3-12.2c0.6-0.4,1.6-0.2,3.3-0.4c-2.7,3.3-5.9,5.4-8.8,7.7c-4,3.1-7.1,6.7-9.6,10.7c-0.5,0.8-1.2,1.7,0.3,2.4
		c0.5-0.1,1.1-0.1,1.3-0.3c4.3-3.7,9.9-6.2,15.5-8.6c13.6-6,25.5-13.5,35.4-22.9c3.1-3,5.6-6.2,7.4-9.7c4-7.9,8.2-15.7,11.9-23.7
		c2.4-5.2,5.7-10,10-14.4C442.2,210,444.8,205.1,444.2,199.3z M193.2,570.4c1-1,2-1.6,2.5-2.4c2.5-4,6.5-7,11.1-9.7
		c1.6-0.9,3-2,4.3-3.1c6.9-6.1,14-12.2,20.5-18.5c3.9-3.8,7-8.2,7-13.3c0-14.5,3.6-28.3,13.4-41c3.9-5.1,2.4-10.5,1.8-15.9
		c0-0.2-0.2-0.4-0.3-0.5c-0.4-0.2-0.8-0.5-1.2-0.5c-0.7,0-1.5,0.2-1.9,0.5c-0.5,0.4-0.8,1-0.9,1.5c-1.6,4.9-3.4,9.8-4.8,14.8
		c-1.3,4.8-3.8,9.3-6.8,13.6c-0.4,0.6-0.6,1.9-2.3,1.5c3.4-11.3,6.8-22.6,10.2-34c-1.4-0.5-2.5-0.9-3.5-1.3c-4,2.6-7.5,5.2-11.5,7.4
		c-7.6,4.1-13.5,9.3-18,15.4c-4,5.4-7.6,11-11.1,16.5c-1.6,2.5-3.2,5.1-4.1,7.8c-1.4,4.4-2.4,8.8-3.4,13.2
		c-0.9,3.7-1.1,7.5-2.4,11.1c-3.2,8.5-2.9,17.1-2,25.7C190.1,562.9,190.9,566.5,193.2,570.4z M401,524.7c-1.1-7.2-2.4-14-2.6-21
		c-0.2-4.5-0.3-9-0.3-13.5c0-2.9-0.2-5.7-2-8.2c-3.1-4.3-6.3-8.5-10-12.5c-4.3-4.6-9.2-8.8-13.9-13.2c-1.4-1.3-2.7-2.6-4.3-3.9
		c-0.4-0.3-1.6-0.5-2-0.2c-0.6,0.4-1.4,1.3-1.2,1.7c0.7,1.6,1.7,3.1,2.8,4.6c3.3,4.2,6.9,8.3,10,12.5c1.5,2.1,2.4,4.5,3.3,6.8
		c0.2,0.6,0.4,1.6-1.9,1.7c-3.8-3.4-5.3-8.1-8.7-11.9c-3.5-4-6.4-8.3-11.1-13c0.8,5.7,2.1,10.2,1.9,14.8c-0.2,4.6,0.5,9.2-1,13.9
		c-2.3-0.8-2.4-2.1-2.5-3.4c-0.2-2.4-0.1-4.9-0.3-7.3c-0.4-4.3-0.9-8.6-1.4-12.9c-0.1-1.1-0.3-2.3-2.3-2.4c-0.3,0.3-0.7,0.6-0.7,0.9
		c-1.9,12-3.5,23.9-2.7,36c0.4,5.8,1.7,11.5,4.9,17c5.1,8.6,11.5,16.6,17.9,24.7c0.9,1.1,2.1,2.1,3.2,3.1c5.1,4.7,11.7,8.1,17.7,12
		c5.5,3.6,10,7.7,13.4,12.6c0.5,0.6,0.9,1.4,2.4,0.9c0.5-3.3,1.2-6.7,0-10c-1.9-5.2-4-10.4-6.4-15.6c-2.4-5.3-5.2-10.5-7.6-15.9
		c-0.8-1.7-0.6-3.7-0.7-5.5c0-0.4,0.9-1.2,1.2-1.1c0.8,0.2,1.8,0.5,2.1,1.1c0.6,1,0.6,2.2,1,3.3C399.7,521.9,400.4,523.3,401,524.7z
		 M321.3,196.7c-1.4-5.9-3.5-11.2-7.6-16c-3.5-4-5.4-8.4-6-13.2c-0.1-0.7-0.5-1.3-0.8-2c-5.2,0.7-5.2,0.8-7.6,2.3
		c-6,3.7-9.8,8.6-11.8,14c-3.1,8.2-7.9,15.8-12.9,23.3c-1.3,2-2.3,4.1-3,6.3c-1,3.1-1.7,6.2-2.4,9.4c-0.4,2-0.7,4.1-0.7,6.1
		c0,3.2,0.3,6.4,0.6,9.6c0.5,5.1,1.3,10.2,4.1,14.8c2.8,4.6,6.1,9,9.5,13.4c3.2,4.1,5.6,8.4,6.7,13c0.1,0.5,1.1,1,2.3,1.9
		c0.9-2.6,1.8-4.5,2.3-6.5c1.5-6.4,0.7-12.7-1-19c-0.5-1.8-0.7-3.7-0.9-5.5c0-0.2,0.5-0.6,0.9-0.7c0.4-0.1,1.1,0.1,1.3,0.3
		c0.5,0.6,1,1.3,1.3,2c2.8,7.1,4.3,14.3,3.4,21.7c-0.1,0.7-1,1.6,0.4,2.3c5.1-4.5,6.9-9.2,4.1-15c-2-4.2-2.5-8.8-2-13.4
		c1.4-10.5,3.4-20.9,7.1-31c0.9-2.5,2.4-4.9,4-7.2C315.2,203.9,318.2,200.4,321.3,196.7z M269.6,467.3c-2.8,3.6-5.5,7.4-8.2,11.1
		c-7,9.4-12.2,19.2-15,29.8c-1.8,6.9-2.9,13.7-0.7,20.6c3.7,11.7,5.9,23.6,6.9,35.6c0,0.3,0.6,0.5,1.2,1c9.6-3.8,17.3-9.2,22.8-16.2
		c5.9-7.6,9.7-16,12.6-24.5s3.3-17.1,3-25.7c-0.1-2.6-0.6-5.2-1.3-7.8c-1.6-5.9-3.4-11.7-5.2-17.6c-0.3-0.9-0.6-1.9-1.2-2.6
		c-0.4-0.5-1.5-0.8-2.3-0.9c-0.2,0-1,0.8-1,1.3c0,2.8,0.4,5.6,0.3,8.4c0,2.2,0.4,4.6-2.2,6.3c-2.1-2.5-2.1-2.5-2.3-4.5
		c-0.2-3-0.2-6-0.5-9C276.2,468.6,276,468.5,269.6,467.3z M26.7,331.4c0.8,0.6,1.4,1.3,2.1,1.6c6.9,2.6,13.8,5.1,20.7,7.7
		c3.1,1.1,6.3,2.2,9.4,3.2c6.8,2.2,13.5,4.7,19.7,7.8c1,0.5,2.3,0.7,3.5,1c7.5,1.9,15,3.9,22.5,5.7c5,1.2,10.1,2,15.3,1.9
		c6.4-0.2,12.8-0.6,19.3-0.9c4.8-0.2,9.2-1.1,13.5-2.7c7.9-3,16.3-4.4,25.1-2.9c0.1,0,0.3-0.2,0.9-0.6c-4.6-2-8.9-4-13.9-5
		s-10.1-1.9-15.2-2.6c-5.1-0.6-10.3,0.6-16.1-0.4c0.8-0.9,1.2-1.7,1.9-1.9c2.1-0.5,4.3-0.8,6.5-1c11.5-1,22,1.4,32.4,4.9
		c1.5,0.5,2.7,1.6,5.1,1.1c-3.4-3.6-7.3-6.5-12.3-8.7c-1.2,0.1-2.4,0.1-3.6,0.2c-7.5,1-14.8,0.3-22.1-0.8
		c-5.9-0.9-11.3-2.6-16.8-4.3c-9.5-2.9-18-7-24.8-13c-2.6-2.3-5.7-3.4-9.7-3.4c-10-0.1-19.7,0.7-28.8,4.4c-2,0.8-4.1,1.4-6.2,1.9
		C45.9,326.8,36.5,329.1,26.7,331.4z M194.2,328.1c0.2-0.4,0.4-0.8,0.6-1.2c-0.8-0.4-1.4-0.9-2.3-1.1c-2.3-0.6-4.6-1.3-7-1.7
		c-16.3-3.3-32.2-7.3-46.8-13.8c-6.5-2.9-12.3-6.3-16.7-11c-1-1.1-2.2-2-3.3-3c-4.3-3.9-8.2-8-10.8-12.7c-1.1-2.1-2.5-4.1-3.8-6.1
		c-1.1-1.8-2.9-3-5.3-3.7c-3.5-1-6.9-2.1-10.4-2.9c-13.3-3.3-27.1-4.2-41-4.4c-0.4,0-0.7,0.4-1.1,0.6c-0.3,1,0.8,1.2,1.5,1.7
		c4.8,3,8.7,6.6,12.1,10.6c6.8,7.8,14.1,15.4,22.9,22.1c7,5.3,14.4,10.3,20.8,16c6.8,6.1,15.7,9.7,25,12.7c12.8,4,26,5.9,39.9,3.4
		c6.6-1.2,13.3-1,19.7,1.1c0.9,0.3,1.8,0.4,2.6,0.6c1.8-2.2,1.8-2.8,0.1-3.2c-6.5-1.7-12.8-4.2-19.9-4.4c-5-0.1-9.8-1.1-14.2-2.9
		c-0.9-0.4-1.5-1.2-3.1-2.6c2.4,0.2,3.5,0.2,4.6,0.3c3.9,0.6,7.7,1.2,11.6,1.8c4.6,0.7,9.2,1.2,13.8,2
		C187.2,326.6,190.7,327.4,194.2,328.1z M239.9,292.4c-0.9-5.5-2-10.2-7.2-14.1c-7.2-5.4-11.7-12-13.3-19.7
		c-1.1-5.6-2.5-11.1-5.6-16.3c-0.9-1.5-1.4-3.2-1.6-4.9c-0.5-4.4-3.8-7.2-8.4-9.4c-3.8-1.8-7.6-3.5-11.5-5.1
		c-3.7-1.5-7.5-2.9-11.2-4.4c-3.9-1.6-7.9-3.1-11.6-5c-3.6-1.8-6.9-4-10.8-6.4c-0.2,2.9-0.4,5.4-0.7,8c-1.5,10.3,1.2,20.2,5.1,29.9
		c3.3,8.1,9.7,14.8,16.9,21c6,5.2,12.3,10.5,20.8,13.4c10,3.4,19.2,7.7,28.1,12.5c0.8,0.4,1.6,0.9,2.5,1.2c0.7,0.3,1.6,0.9,2.4-0.3
		c-4.5-3.6-9.1-7.1-10.9-13C230.7,282.8,232.9,289.1,239.9,292.4z M314.9,502.6c-0.7-1.2-1.4-1.9-1.4-2.5c0-2.4-0.2-4.9,0.4-7.3
		c1.9-7.4,4.1-14.7,6.2-22c0.1-0.5-0.2-1.1-0.3-1.7c-2,0.4-3.9,0.7-5.6,1c-1,1.6-1.8,2.9-2.6,4.3c-3.8,6.3-7.6,12.6-11.5,18.9
		c-1.9,3.1-2.5,6.4-2.6,9.9c-0.2,5.4-0.6,10.9-1.6,16.3c-0.8,4.2-0.6,8.2,0.2,12.3c1.7,7.7,6.1,14.6,9.6,21.9
		c0.1,0.1,0.6,0.2,1.2,0.4c-0.2-1.1-0.1-2.1-0.5-2.9c-1.3-3.4-2.8-6.8-4-10.3c-0.7-2-1-4-1.3-6.1c-0.1-0.5,0.7-1.1,1.5-2.4
		c1,1.4,1.8,2.1,2.1,2.9c0.8,2.2,1.1,4.5,2.2,6.5c3.1,6.3,3.9,12.8,4.2,19.4c0.2,4.1,1.1,8.2,2,12.3s2.2,8.1,3.3,12.1
		c0.1,0.5,0.7,0.9,1.2,1.5c2.4-1,4-2.4,5.2-4c2-2.8,4.2-5.6,5.6-8.5c3.2-6.7,6.6-13.3,11.8-19.4c1.8-2,2.8-4.4,4.1-6.6
		c1.5-2.5,1.6-5-0.5-7.5c-2.2-2.5-4-5.2-5.7-7.9c-4.8-7.7-8.1-15.8-9.8-24.1c-1.6-7.4-2.7-14.9-0.9-22.4c1.1-4.6,1.9-9.3,2.8-13.9
		c0.4-2,0.9-3.9-0.1-5.7c-3.2,0-4.6,0.9-5,3c-0.6,3.2-1.1,6.4-2.2,9.4c-2.2,6.5-4.8,13-6,19.8C316.8,500.1,315.9,501,314.9,502.6z
		 M388.4,443.1c0.7,1,0.9,1.3,1.2,1.6c3.5,2.9,7.3,5.6,10.6,8.6c6.8,6.3,11.8,13.4,16.7,20.6c3.7,5.4,5.2,11.3,7.7,17
		c3.2,7.1,5.9,14.4,8.3,21.6c2.7,8.1,9.5,13.4,18.6,17.4c4.3,1.9,8.6,3.7,12.9,5.6c1.2,0.5,2.4,1.1,4.3,2c0.1-1.7,0.6-2.8,0.3-3.7
		c-1.6-5.1-2.4-10.4-5-15.3c-3.1-6-5.5-12.1-4.8-18.6c0.1-0.9-0.1-1.9,1.7-2.5c1.5,0.9,1.9,2.3,2.2,3.8c0.3,1.9,0.5,3.7,1,5.6
		c0.2,0.7,0.1,1.9,2.3,1.7c-0.2-4.7-0.1-9.4-1.4-14c-3.4-12.9-10.7-24.6-20.8-35.2c-7.1-7.4-15.8-13.5-27.8-16.2
		c-6.7-1.5-13.3-3-19.7-4.9c-2-0.6-4.2-1-6.8-1.6c-0.1,0.9-0.5,1.8-0.1,2.1c1.4,1,3,2,4.7,2.6c3.8,1.3,7.8,2.4,11.8,3.5
		c6.6,1.8,12.5,4.6,17.9,7.9c1.1,0.7,2.2,1.6,0.9,3.1c-1.4-0.5-2.9-1-4.3-1.6c-3.9-1.6-7.6-3.5-11.7-4.8
		C402.5,447.2,395.8,445.3,388.4,443.1z M197.5,322.2c-3.6-4.7-11.5-6-15.7-12c4,1.4,6.7,2.2,9.2,3.2c2.7,1.1,4.4,3.4,8,3.7
		c-0.9-2.6-1.5-5-2.6-7.3c-0.9-1.9-1.6-4.1-4.5-4.9c-7.3-2-13.3-5.8-19.8-8.8c-6.9-3.1-12.4-7.4-17-12.4s-7.1-10.8-8.6-16.7
		c-1-3.9-3.5-6.4-8.3-7.9c-4.8-1.6-9.4-3.4-13.9-5.3c-1.6-0.7-3.9-0.9-4.5-3.4c8.5,0.6,15.2,4.1,22.7,6.9c0.9-2.3,0.7-4-1.9-5.1
		c-2.6-1.1-5.3-2.1-8-2.9c-9.3-2.7-19.2-3.5-29.1-4c-4.9-0.2-9.9-0.3-14.8-0.3c-1.1,0-2.1,0.4-3.7,0.8c3.6,4.4,6.6,8.5,10.1,12.3
		c7.6,8.4,14.4,17,20,26.3c0.5,0.9,1.1,1.7,1.8,2.4c6.8,7.5,15.3,13.8,25.9,18.2c6.9,2.9,14,5.6,21.1,8.2c2.4,0.9,4.9,1.9,7.5,2.4
		C180.1,317.5,188.7,319.7,197.5,322.2z M412.6,362.2c5.6,2.6,10.4,4.9,15.3,7c4.3,1.8,8.7,3.7,13.7,4.3c9.3,1.1,18.7,1.8,28.1,0.5
		c9.3-1.3,18.5-2.4,27.8-3.8c2.4-0.4,4.8-1.1,6.9-2c5.1-2.2,10.1-4.7,15.2-7c4.1-1.8,8-3.8,12.4-5c8.7-2.4,16.3-6.2,23.7-10.3
		c0.8-0.5,2.5-0.5,2-1.8c-4.4,1.3-8.7,2.6-13.1,3.8c-4.4,1.2-9,2-13.4,3.2c-6.5,1.8-9.7,2.4-13.2,2.1c5.9-4.5,13.4-6.4,21.1-7.6
		c5.9-0.9,11.2-2.8,16.5-4.8c0.8-0.3,1.8-0.7,1.6-2.1c-6.7,0-13.4-1.5-20.3-1.1c-3.4,0.2-6.9,0.7-10.2,1.5
		c-5.7,1.3-11.2,2.9-16.8,4.3c-8.3,2.1-16.8,3.1-25.5,3.2c-6.2,0.1-12.4-0.4-18.5-0.5c-12.7-0.2-25.3,0.4-37.4,3.4
		c-5.9,1.5-11.4,3.7-16.1,6.8c-0.5,0.3-0.6,0.9-1.1,1.8c3.7,0.4,6.3-1.5,9.3-1.6c3-0.2,5.9-0.5,8.9-0.6c3.2-0.1,6.5-0.1,9.7,0.1
		c4.6,0.2,5.2,0.4,8.5,2.9c-3.3,0.9-6.4,0.5-9.5,0.5c-4.2,0-8.4-0.1-12.6,0.2C421.2,359.5,416.9,359.8,412.6,362.2z M495.4,220.1
		c-7.3,0-13.9-0.3-20.5,0.6c-10.8,1.4-19.1,5.9-26.5,11.6c-3.2,2.4-6.6,4.5-10.4,6.3c-2.9,1.4-5.8,2.9-8.5,4.5
		c-1.6,0.9-3.1,1.9-3.4,3.6c-0.5,3.6-2.6,6.8-4.6,10.1c-4.6,7.7-10.8,14.4-19.8,19.4c-7.4,4.1-15.1,7.9-22.8,11.6
		c-2.7,1.3-4.7,2.5-5.3,5c-0.5,1.8-1.7,3.5-2.5,5.3c-0.3,0.8-0.5,1.6-0.7,2.4c1.6-0.4,2.3-1.2,3.1-1.8c3.7-3,7.4-6,11.3-8.9
		c0.9-0.6,2.3-1.6,3.8-0.2c-0.8,2.2-3.5,3.5-5.3,5.2c-1.9,1.7-4.1,3.2-6,5c-1.8,1.6-4,3.2-4.2,6.3c1.5-0.6,2.3-0.9,3-1.2
		c1.9-0.8,3.8-1.9,5.8-2.4c12.1-3.1,22.6-8.4,32.8-14c1.8-1,3.4-2.2,4.7-3.6c3.2-3.3,6.2-6.8,9.4-10.1c2.3-2.4,4.5-5,7.3-7.1
		c11.5-8.6,23.7-16.5,37.6-22.8c5.4-2.4,9.8-5.6,12.6-10.1c2.3-3.7,5.1-7.3,7.6-10.9C494.6,222.8,494.8,221.7,495.4,220.1z
		 M145.5,392.1c1.2-2.3,3.5-3,5.5-3.9c2.1-1,4.2-2,6.4-2.8s4.7-1.2,7.1-1.7c2.3-0.5,4.7-0.9,7.9-1.5c-1.3-1-1.9-1.8-2.5-1.8
		c-1.4,0-2.9,0.2-4.3,0.6c-5.8,1.6-11.6,3.2-17.4,5c-7.3,2.2-14.8,3.1-22.6,2.5c-4.2-0.3-8.3-1-12.5-1.4
		c-11.5-1.2-23.1-2.3-34.1-5.3c-2.3-0.6-4.7-1-7.3-0.4c-9.9,2.4-18.5,6.4-25.3,12.3c-4.4,3.8-7.9,8.2-11.6,12.4c-0.8,1-2.3,2-1,3.8
		c1.8-0.4,3.6-0.8,5.5-1.1c2.2-0.3,4.5-0.5,6.5,0.5c3.6,1.8,7.5,1.8,11.5,1.4c7.9-0.9,15.8-0.6,23.7-0.7c9.4-0.1,18.8,1.1,28.2-0.1
		c13.9-1.8,27.9-3.6,39-11.2c2.2-1.5,4.9-2.6,7.1-4.1c3.8-2.6,8.2-4.1,13-5.2c1.2-0.2,2.3-0.5,3.4-0.9c0.3-0.1,0.7-0.7,0.6-0.9
		c-0.2-0.5-0.7-1.3-1.2-1.3c-1.4-0.1-3-0.2-4.4,0.1c-4.2,1.1-8.3,2.3-12.5,3.6C151.6,390.8,149.1,392.1,145.5,392.1z M18,350
		c1.2,2.6,2.9,4.4,5.2,5.8c4,2.5,8.5,4.5,13.2,6.2c8.4,3.1,17.1,5.9,25.4,9.2c10.9,4.4,22.5,6.8,34.5,8.3c8,1,16.2,1.5,24.2,2.5
		c10.8,1.4,21.1,0.2,31.3-2.6c6.5-1.8,13.2-3.1,19.8-4.7c0.3-0.1,0.4-0.5,0.7-0.8c-0.4-0.3-0.6-0.7-1-0.7c-6.3-1.1-12.5-2.2-19-1
		c-2.9,0.5-5.9,0.7-8.8,0.9c-8.9,0.6-17.8,0.8-26.3-1.9c-0.9-0.3-1.7-0.7-2.5-1.2c-0.3-0.2-0.4-0.7-0.3-1s0.5-0.6,0.9-0.8
		c0.4-0.1,1-0.2,1.4-0.1c9.2,2.3,18.5,2,27.9,1.2c8.3-0.7,16.7-2,25.1-0.3c0.5,0.1,1,0.1,1.5,0c0.6-0.2,1.6-0.4,1.8-0.7
		c0.2-0.6,0.2-1.7-0.3-2c-3.2-1.8-6.5-3.4-9.8-5.1c-2.2-1.2-4.4-1.4-6.9-0.4c-4.4,1.7-9.2,2.6-14.2,3c-2.2,0.1-4.4,0.7-6.4,1.2
		c-8.2,2.2-16.5,2.5-24.8,0.9c-6.9-1.4-13.6-3.3-20.4-5.1c-3-0.8-6.2-1.5-8.9-2.7c-10.6-4.9-22.4-7.9-33.2-12.5
		c-1.4-0.6-3.4-1.1-4.9-0.9C34.5,345.8,26.1,346.5,18,350z M411.8,405c-1.7,2-1.2,3.7,1,5.1c1.3,0.9,2.7,1.7,4.2,2.3
		c10.7,4.3,21.2,8.9,32.6,12.2c13.5,3.9,27.3,5.3,41.5,3.7c10.8-1.2,21.5-2.2,32.5-1.9c9.6,0.2,18.4-2.4,26.9-5.6
		c1.2-0.5,2.9-0.8,2.8-2.3c-4.2-1-8.6-1.5-12.5-3c-8.4-3.1-17.4-4.3-26.4-5.4c-7.3-0.9-14.6-1.5-22.1-0.4c-6,0.9-12.2,1.4-18.5,0.6
		c-10.6-1.3-20.6-3.8-30-7.8c-4.1-1.7-8.1-3.6-12.2-5.3c-1-0.4-2.3-0.9-3.4-0.9c-3.9-0.1-7.9,0-11.7,0c-0.6,1-1.1,1.6-1.4,2.3
		c-0.4,0.8-0.5,1.7-0.8,2.8c2.5,0.6,4.5,1.2,6.6,1.8c4.2,1.1,8.4,2.3,12.5,3.5c1.7,0.5,3,1.3,3.2,3.1c-4.5,0.4-7.8-2-11.8-2.7
		C420.5,406.2,416.4,404.8,411.8,405z M416.8,376.5c4.5,1.2,9.2-0.6,13,2.5c-2.7,0.5-4.9,0.9-8.6,1.5c3.9,1,6.4,1.6,8.8,2.3
		c2.6,0.7,5.1,1.4,7.6,2.3c2.5,0.8,4.9,1.7,5.9,4.2c-1.2,0-2.3,0.3-3.1,0.1c-3-0.8-6.1-1.5-9-2.6c-3.6-1.3-7.5-1.9-11.4-2.4
		c-0.6-0.1-1.8,0.4-1.8,0.6c-0.1,0.6,0.1,1.7,0.6,1.9c2.9,1.4,6.1,2.4,9,3.9c9,4.4,18.5,7.9,28.3,11.2c10.2,3.5,20.7,4.7,31.9,3.7
		c9.6-0.9,19.3-1,28.9,0.6c3.3,0.5,6.8,0.8,11.4,1.3c-3.6-3.2-6.4-5.8-9.3-8.3c-3.1-2.6-7.2-4.5-9.7-7.3c1.2-1.5,2.5-1.2,3.4-0.6
		c3,1.9,5.9,4,8.9,6c0.6,0.4,1.3,1.3,2.3,0.1c-2.2-3.4-5.3-6.3-9-8.8c-4.1-2.7-8.4-5.3-12.2-8.2c-4.1-3.2-8.8-3.8-14.3-3
		c-9.5,1.4-19.1,2.3-28.8,1.9c-4.2-0.2-8.4-0.7-12.5-1c-6.7-0.4-13.2-1.4-19.2-3.9C424.1,372.9,421.8,373.5,416.8,376.5z
		 M382.7,550.7c-2.3-1.8-4.4-3.3-6.5-4.9c-7-5.4-13.2-11.1-17-18.2c-2.1-4-4.8-7.8-7.1-11.8c-1.8-3.1-3.9-6.1-5-9.4
		c-1.4-4-2.1-8.1-2.6-12.2c-1.3-9.4,0.3-18.7,2-28c0.2-1.4,1.1-2.9-0.2-4.5c-1.2,0.2-2.3,0.4-3.9,0.6c0,2.9,0,5.7,0,8.5
		c0,1.6-0.4,3.1-2.4,4.4c-3.3-3.1-0.2-6.9-2.7-9.7c-1.5,0.1-1.8,0.8-1.9,1.5c-0.9,5.8-2,11.5-2.8,17.3c-0.5,4.5-0.8,9-0.8,13.5
		c-0.1,8.2,2.9,16,6.1,23.6c2.2,5.4,4.8,10.6,8.7,15.5c3.5,4.3,6.8,8.7,10.5,12.9c2.5,2.9,4.1,6,5.6,9.1c3.2,6.9,6.5,13.8,9.8,20.6
		c0.1,0.3,0.6,0.5,1.3,0.9c2-2.9,4-5.6,4.6-8.8C379.9,564.9,381.3,558,382.7,550.7z M42.7,425.2c2.2,1.6,4.8,1.6,7.2,1.6
		c4.7,0.1,9.4,0.1,14.1,0.1c9.7-0.1,19.4-0.9,28.9,0.9c12.1,2.3,24,2.1,36-0.1c1.7-0.3,3.4-0.5,5.1-0.9c1.4-0.3,2.8-0.8,4-1.4
		c7.3-3.8,14.7-7.7,21.9-11.6c4.4-2.4,8.7-5,14-6.2c0.9-0.2,1.9-0.5,1.1-1.7c-0.8,0.1-1.8,0-2.7,0.2c-4,0.9-8.1,1.8-12,2.8
		c-2.3,0.6-4.5,1.5-7.7,0.2c4.8-4.2,11.8-4.6,17.9-7c-3.9-1.4-7.1-2.6-10.8-3.9c-1.9,1-3.9,1.7-5.5,2.8c-4.2,2.9-9.2,5.1-13.8,7.5
		c-8.7,4.5-18.6,6.3-28.7,6.8c-8.6,0.4-17.3-0.1-25.9-0.6c-10.9-0.6-21.7-0.8-32,1C49.8,419.1,46.3,422.2,42.7,425.2z M245,559.2
		c-8.7-1.5-17.1-1.7-24.5,3c-4.4,2.8-9.3,4-15.1,3c-5,4.6-9,9.5-12.6,15.1c-1.3-1-2.4-1.6-2.8-2.3c-0.9-1.7-1.4-3.6-2.1-5.4
		c-0.3-0.8-0.8-1.6-1.3-2.4c-10.6,4.1-10.1,5-16.8,12c3.7,1.4,7.7,1.4,11.5,1.6c9.9,0.6,19.6,2.1,29.1,4.2c6.2,1.4,12.2,3,17,6.6
		c0.6,0.5,1.7,0.6,2.2,0.8c6.1-7.5,12-14.9,17.8-21.9c-0.5-2.5-1-4.7-1.2-6.9C246,564.4,247.1,562.1,245,559.2z M214.8,309.5
		c0.1-1.1,0.5-2,0.1-2.3c-4-3.1-8.2-6-12.2-9c-0.9-0.7-1.6-1.7-2.8-2.9c1.5,0.1,2.2,0,2.9,0.1c6.5,1.7,10,6.4,16.2,9
		c-1.7-4.9-3.2-9.6-4.9-14.6c-1.7-0.5-3.7-1.2-5.8-1.7c-13.5-3.1-24.1-9.4-32.7-17.7c-4.8-4.6-8.9-9.5-12.6-14.6
		c-5.9-8.3-10.3-17-11-26.7c-0.2-2.8-0.4-5.8-1.6-9.1c-2.1,2.8-2.1,5.2-2.3,7.6c-0.3,3.9-0.8,7.9-0.7,11.8c0,4.5-0.2,9.1,1,13.5
		c2.1,7.7,5,15.3,9.4,22.5c2.5,4.2,6,7.8,10.2,11c8.6,6.3,17.8,11.8,28.9,15.5C202.8,303.9,209,305.8,214.8,309.5z M160.4,568
		c1.4-2.1,2.7-3.9,3.9-5.8c3.1-4.8,6.5-9.3,11.7-12.9c4.8-3.4,8-7.3,8.8-12.5c0.7-4.8,3.1-9.5,3.8-14.3c1.2-7.5,3.4-14.8,6.7-21.9
		c0.1-0.3-0.2-0.7-0.4-1.4c-5.2,3.6-10.3,7.1-15.2,10.7c-5.2,3.9-12.2,5.6-17.8,8.4c-2.6,4.9-5.3,9.3-7.4,13.9
		c-3.6,7.9-5.2,16.1-2.3,24.4C153.6,560.8,156.2,564.6,160.4,568z M298.6,700.5c3.1-1.6,5.4-2.8,7.6-3.9c5.3-2.7,11.2-4.1,17.5-4.1
		c7.4,0,14.8,0.5,21.8,2.9c6.4,2.2,13,3.5,20.1,3.7c6.7,0.2,13.4,0.3,20,1.1c12.5,1.5,24.8,3.3,37.2,5c1.1,0.2,2.3,0.1,3.6,0.2
		c-0.2-0.7-0.2-1.1-0.5-1.3c-0.9-0.7-1.8-1.3-2.8-1.8c-6.9-3.5-14.7-5.3-22-8c-5.2-1.9-10.6-3.1-16.4-3.3c-1.7-0.1-3.4-0.4-5-0.9
		c-8.7-2.5-17.7-3.5-26.9-3.3c-7.8,0.2-15.3-0.5-22.7-2.2c-6.8-1.6-13.7-3.2-20.4-5c-3.1-0.8-6.2-1.2-9.5-1.2c-2.6,0-4.2,0.9-5,2.7
		c-1.4,3.1-1.8,6.3-0.6,9.4C295.6,693.6,297.1,696.8,298.6,700.5z M262.9,592.5c-0.7,4.2-1.4,8.7-2.2,13.1c-0.4,2-0.9,4.1-1.4,6.1
		c-2.2,10-4.4,20-6.7,29.9c-0.2,0.7-0.5,1.5-0.6,2.2c-0.6,2.4-1.2,4.8-1.7,7.2c-0.4,1.5-0.7,3-1.1,4.4c-0.5,1.7-1.5,3-4,3.6
		c-1.4,0.4-1.6,1.8,0.4,2.7c1.7-0.9,3.5-1.9,5.4-2.8c2.9-1.4,5.7-3,8.9-3.9c3.8-1.1,5.2-2.9,6-5.7c1.5-5.5,3.5-10.9,5.3-16.4
		c1.9-5.8,4.2-11.6,5.7-17.5c2.7-10.5,5-21,7.3-31.6c0.4-1.7,1.1-3.5,0.2-5.6C277,583.2,270,587.8,262.9,592.5z M243.6,653.4
		c2.9-2.5,1.6-5.2,2.5-7.5c1.1-3,0.5-5.9-0.5-8.8c-2.7-8-5.1-16-7.8-24c-2.3-6.5-2.6-13,0.9-19.3c0.3-0.5,0.9-1.5-1-1.7
		c-1.2,2.4-2.2,4.9-3.6,7.3c-0.5,0.9-1.8,1.5-2.6,2.2c-1-0.3-1.5-0.3-1.8-0.6c-8.2-6.3-18.6-9.1-29.8-10.5c-9.5-1.2-19.1-2.1-28.7-3
		c-8.9-0.8-17.8-0.8-26.6,0.9c-6.9,1.3-13.9,2.7-20.8,4c-0.2,0-0.3,0.6-0.4,0.9c0.1,0.1,0.2,0.4,0.4,0.5c14.2,5.8,29.6,7.1,45.4,6.2
		c4.9-0.3,9.8-0.9,14.8-1.2c7.4-0.5,14.9-0.4,22.2,0.8c3.4,0.5,6.8,1,10.2,1.3c8.5,0.7,14.1,4.2,17.2,10.1c1,1.9,1.5,4,2.2,6
		c1.3,3.8,2.4,7.7,3.9,11.5c3.1,7.4,5,14.9,3.8,22.8C243.2,651.6,243.4,652.2,243.6,653.4z M408.2,346.3c5.2,0.6,10,0.6,14.8-0.7
		c7-1.8,14-3.6,21.5-4.1c6.1-0.4,12.4-0.5,18.1-2.6c0.4-0.1,1-0.1,1.5-0.2c9.8-1.2,18.2-4.7,26.2-8.9c8.3-4.4,15.8-9.6,22.9-15.1
		c9.3-7.1,20.3-11.9,33.5-13.6c0.7-0.1,1.3-0.7,2.7-1.5c-2.6-0.5-4.3-0.8-5.9-1.1c-2.3-0.4-4.4-0.2-6.4,0.8
		c-11,5.4-22.3,10.4-33.9,15.1c-7.8,3.2-15.6,6.6-23.7,9.2c-9,3-18.5,5.3-27.8,7.8c-11.3,3-23,4.3-35.1,3.9c-1.5,0-2.9,0-4.2,0
		c-1.8,1.6-3.4,3.1-5.2,4.6C407.5,342.1,407.8,344.1,408.2,346.3z M396.3,328.8c2.2,0.9,3,1.5,3.9,1.6c6.6,0.4,13.3,0.8,20,1.1
		c1.7,0.1,3.5,0,5.2-0.2c7.4-0.7,14.6-1.5,21.6-3.6c8.8-2.5,17.8-4.5,26.6-6.9c7.5-2,14.4-4.8,21.2-7.9c9.1-4.1,18.8-7.6,27.9-11.7
		c7.8-3.6,15.8-7,24-10c1-0.4,1.7-0.7,1.2-1.9c-3.5-0.5-7.2-0.8-10.8-1.5c-3.9-0.7-7.3-0.2-10.5,1.6c-2,1.1-4.2,2.1-6,3.3
		c-3.7,2.5-7.4,5-10.9,7.6c-5.5,4.1-11.5,7.6-18.6,10c-8.4,2.9-17,5.1-25.6,7.3c-16.9,4.2-34.2,5.9-51.9,6.1
		c-5.2,0-10.4-0.5-15.5-0.6c-1.2,0-2.8-0.5-4,1c1.1,0.3,2,0.6,2.8,0.7c1.9,0.3,3.9,0.4,5.8,0.8c0.4,0.1,0.6,0.9,1.1,1.6
		C401.6,327.7,399.8,328.1,396.3,328.8z M223,672.1c-1.8-1.5-3.2-2.6-4.5-3.6c-8.4-6.8-19.2-8.8-30.9-9.3c-3.2-0.1-6.5,0.2-9.1,2
		c-5.7,3.8-9.6,8.6-11.4,14.2c-0.6,2,0,4.1-0.2,6.2c-0.2,2.2-0.8,4.3-1.2,6.5c1.1,0,1.9,0.1,2.5,0c6.8-0.7,12.6-3.2,18.7-5.3
		c11-3.8,21.8-8,33.8-9.8C221.5,672.8,221.9,672.5,223,672.1z M255.5,590.4c3.8-1.4,7.2-3.1,10.4-5.1c11.2-7,19.3-16,27.3-25.1
		c1.4-1.5,2.1-3.4,3.3-5c1.2-1.8,1-3.6,0.1-5.4c-1.6-3.3-3.2-6.7-4.8-10c-0.4-0.7-1.1-1.3-2-2.3c-4.4,6.5-6.8,13.2-12.6,18.4
		c-5.9,5.3-12.6,10.1-20.2,13.5C254.7,576.9,254.1,585.7,255.5,590.4z M383.3,182.3c-1.3,0.6-2.5,1.2-3.8,1.8
		c-8.5,3.9-9.7,6-8.1,13.4c0.7,3.3,1.3,6.7,1.9,10c0.6,3.6-0.2,7-1.6,10.5c-2,4.8-3.7,9.7-5.5,14.6c-0.2,0.7-0.2,1.4-0.4,3
		c2.9-2,4.9-3.6,7.1-5c2.4-1.6,5-3.1,7.5-4.6c2.3-1.4,4.6-2.8,6.8-4.1c1.2-7.1,3.1-13.9,2.3-20.9c-0.6-5.2-0.1-10.5,0.8-15.7
		c0.1-0.6,0-1.2,0-2.3c-5.9,3.2-6.4,8.8-11.5,11.8c-0.5-0.5-1.1-0.7-1.1-1C377.5,189.5,381.7,186.4,383.3,182.3z M244.8,170
		c-0.3,4.1-1.1,8.1,0.4,12.1c0.4,1.1,1.1,2.3,0.8,3.3c-1,3.7,0.9,6.5,3.5,9.4c1.9,2.2,3.3,4.6,5.2,6.8c3,3.5,4.8,7.6,8.6,10.9
		c2.6-4.7,5-9.2,7.6-13.9c-1.3-5.1-5.6-9.2-10.3-13.1c-5.6-4.7-12.1-8.9-14.7-15.3C245.8,170.1,245.4,170.1,244.8,170z M411.7,477.4
		c-1.2-2.3-1.6-3.5-2.4-4.6c-2.3-3.3-4.7-6.6-7.1-9.8c-1.4-1.9-2.8-3.9-4.6-5.7c-3.9-3.8-8.1-7.5-12.2-11.2
		c-0.6-0.6-1.2-1.2-1.9-1.7c-1.4-1-3-1.1-4.7-0.3s-2.3,2-1.5,3.3c1.5,2.5,3.3,5,4.8,7.6c2.7,4.6,6.4,8.8,10.7,12.7
		C397.4,472,403.4,474.8,411.7,477.4z M248.2,627.9c5-9.6,5.7-19.6,8.2-29.2c0.2-0.7-0.1-1.4-0.1-2.5c-2.3,0.7-4.3,1.3-6.3,1.8
		c-3.4-2.6-0.9-5.9-2.1-8.8c-1.6,0.5-2.1,1.4-2.5,2.2c-1,1.9-1.8,3.9-2.7,5.8c-1.7,3.7-1.7,7.4-0.9,11.1c0.8,3.5,1.8,7,2.9,10.5
		C245.7,621.8,247,624.8,248.2,627.9z M275.2,660.6c-2.7-3.7-4-4.4-7.6-3.2c-8.3,2.8-16.3,6.1-23.1,10.8c-0.7,0.5-0.9,1.2-1.5,1.9
		C254.4,670.2,269.2,665.7,275.2,660.6z M349.4,273.8c0.9-3.9,1.4-6.4,2-9s1.2-5.3,2-8.5c-5.3,5.1-10,9.6-14.8,14.1
		c-1.1,1.1-2,2.3-1.6,3.6c1.4,4.4,2.8,8.7,4.4,13.1c0.1,0.2,1.2,0.3,2.4,0.5c0.2-2.8,0.8-5.4,0.6-8c-0.1-2.8-0.4-5.6-0.4-8.4
		c0-0.6,0.7-1.2,1.3-2.3C346.7,270.5,347.5,271.5,349.4,273.8z M190.2,912.4c1.2-6.4,1.7-11.6,3.1-16.7c1.9-6.6,1-13.1-1.5-19.4
		c-2.5-6.2-3.7-12.4-3.7-18.8c0-0.7,0.3-1.5-1.3-1.9c-0.4,0.3-1.1,0.5-1.4,1c-3.1,4.2-0.8,8.3,0.7,12.4c0.5,1.2,1.2,2.4,1.6,3.7
		c0.8,2.7,1.1,5.6,2,8.3c1.8,5.3,1.9,10.7,1.2,16.2C190.3,901.7,189,906.3,190.2,912.4z M398.9,429c-1,1.8-3.3,3-3.7,5.3
		c8.2,1.5,15.8,3.8,24.9,4.8c-3.5-3-5.8-5.9-9.1-7.6c-2.9-1.5-6.9-1.8-10.5-2.6C400.3,428.8,400.1,428.9,398.9,429z M289.9,471.1
		c1.9,5.9,3.8,11.7,5.8,18.1c1.1-1.1,2-1.7,2.5-2.5c1.4-2.2,2.4-4.5,4.1-6.6c2-2.4,1.6-4.6,0.4-7c-0.5-0.9-1.2-1.6-3-1
		c0,1,0,2.1,0,3.2c0,0.9-0.1,1.9-0.4,2.8c-0.1,0.4-1,1-1.5,1s-1.4-0.4-1.6-0.8c-0.5-0.8-0.8-1.7-1-2.6c-0.3-1.3-0.3-2.6-0.9-3.9
		C293.8,470.6,292.4,470.4,289.9,471.1z M222.6,456.6c-0.3,0.5-0.9,0.9-1,1.5c-0.9,4.9-3.4,9.3-6,13.7c-0.1,0.2,0.4,0.5,0.7,1
		c2.1-1.2,4.2-2.5,6.4-3.7c4.1-2.2,6.4-5.1,6.1-9.3c-1.4-0.9-3.1-2-4.8-3C223.8,456.6,223.2,456.7,222.6,456.6z M469.3,434
		c7.1,3.9,14.6,6.9,19.1,7.7C485.3,435.1,478.4,433.5,469.3,434z M546.1,436.8c0.7-3,0-5.4-2-8.1c-2.2,0.6-4.4,1.2-6.9,2
		C539.4,433.6,542.5,435.1,546.1,436.8z M192.5,448.1c4.4-1,7.6-1.5,10.2-3.8c-1.8-1.3-3.3-2.4-5-3.6
		C195.3,442.9,193.7,444.9,192.5,448.1z M185.5,338.9c-3.2-1.1-6.2-1.3-9.7,0.1c2.5,1.8,4.6,3.2,6.8,4.8c0.7-1,1.6-2.1,2.3-3.1
		C185.2,340.1,185.3,339.6,185.5,338.9z M167.9,416.6c4.3,0,7.4,0.3,10.8-0.3c-0.4-1.4-0.8-2.6-1.2-4.1
		C174,413.3,170.5,413.4,167.9,416.6z M308.5,280c-0.3-2-0.5-3.5-0.8-4.9c-0.1-0.3-0.6-0.6-1-0.7c-0.3-0.1-0.9,0.2-1.1,0.4
		c-1.4,1.5-2.3,3.2-2.3,5.5C304.9,280.2,306.2,280.2,308.5,280z M331.8,278c-2.7,0.5-2.9,2.1-3.2,3.9c1.7,1.2,3.5,2.3,6.2,4.2
		C334,282.7,334,280.2,331.8,278z M228.9,296.5c-2.5-1.4-4.6-2.4-8-2.7c0.9,2,1.5,3.4,2.4,5.3C225.3,298.1,226.9,297.4,228.9,296.5z
		 M174.4,392.6c-3.2,1.2-6.1,1-8.3,3.3c3.1,0.4,5.5,1.7,8.7,0.8C174.6,395.5,174.5,394.5,174.4,392.6z M203.2,310.2
		c-0.3,2.2,1.2,3.5,3.2,5.1c1.1-1.1,1.8-2,2.6-2.9C207.6,310.7,205.8,310.1,203.2,310.2z M168.8,358.5c1.4,1.8,3.2,2.7,5.9,2.6
		c0.4,0,1-0.4,1.1-0.6c0.1-0.5,0.1-1.3-0.3-1.5C173.5,358,171.5,357.6,168.8,358.5z M259.8,470.3c2.7-1.1,3.4-2.6,3.6-4.5
		c-1.4-0.2-2.5-0.3-4.1-0.5C259.5,467.1,259.6,468.5,259.8,470.3z M266.9,283c0.7,0,1.3-0.1,2-0.1c-0.6-2,0-4.2-3.4-6.5
		C266.1,279,266.5,281,266.9,283z M361.9,296.4c0.2,1.5,0.9,2.3,2.7,2.4c1.3-1.1,2.3-2.3,0.9-4.1C364.1,295.3,363,295.9,361.9,296.4
		z M404,421.5c-0.8,2-1.8,3.2-1.4,3.9c0.6,1.1,2.2,1.2,3.5,0.3c0-0.4,0.1-0.8,0-1.1C405.7,424,405.2,423.3,404,421.5z M383.8,306.2
		c-2.3-0.4-3.7,0.6-5,1.7c-0.7,0.6-1.2,1.6,0.4,2.1C382.2,308.5,382.2,308.4,383.8,306.2z M375.2,452.4c-0.2-1.4-0.1-2-0.5-2.4
		c-0.5-0.6-1.2-1-1.9-1.4c0,0-0.5,0.2-0.5,0.3c0.1,0.7,0.1,1.4,0.5,2C373.1,451.3,373.9,451.6,375.2,452.4z M417.4,370.6
		c-0.6-0.7-0.8-1.2-1.3-1.4c-0.4-0.2-1.1,0.1-1.6,0.2c0.2,0.5,0.3,1.1,0.8,1.3C415.5,370.9,416.3,370.7,417.4,370.6z M248.1,290.6
		c0-1.5-1.3-1.9-3.1-2.3C245.6,290.8,245.6,290.8,248.1,290.6z M309.3,470.5c-0.4-0.3-0.8-0.6-0.9-0.6c-0.5,0.2-0.9,0.5-1.2,0.9
		c-0.1,0.1,0.4,0.5,0.6,0.7C308.2,471.2,308.7,470.9,309.3,470.5z M236,461.2c-0.4-0.2-0.7-0.4-1-0.5c-0.1,0-0.5,0.2-0.5,0.3
		c0.1,0.3,0.3,0.6,0.5,0.9C235.3,461.7,235.6,461.5,236,461.2z M289.8,692.5l0.2-0.3l-0.3-0.1L289.8,692.5z M256.5,673.3l-0.5,0.2
		l0.5,0.2V673.3z M418.5,391.2c-0.1-0.1-0.3-0.4-0.4-0.4c-0.4,0.1-0.8,0.2-1.1,0.3c0.1,0.1,0.3,0.4,0.4,0.4
		C417.7,391.5,418.1,391.3,418.5,391.2z"/>
	<path class="st0" d="M297.7,329.4c4.5-3.8,9.9-4.5,15.8-3.2c5,1.1,10,2.2,14.9,3.4c9.2,2.3,16.4,6.9,22.3,12.5
		c3.1,2.9,5.9,6.1,8.3,9.3c4,5.5,7,11.2,6.8,17.6c-0.1,3.4,0,6.8-0.2,10.1c-0.3,4.2-1.7,8.1-5.2,11.5c-2.4,2.4-4.2,5.1-6.2,7.6
		c-4.4,5.6-10.4,9.9-17.9,13.2c-1.7,0.7-3.6,1.3-5.1,2.3c-5.5,3.5-12.2,4.9-18.8,6.4c-6.5,1.5-13.2,0.8-19.9-0.2
		c-10.4-1.7-19.5-5.2-28.1-9.8c-5.6-3-8.9-7.1-11.3-14.1c1.9-1.2,2.8,0,3.2,1c2,4.2,5.6,7.5,10.5,9.9c10.5,5.2,21.9,8.6,34.4,9.9
		c7.5,0.7,14.2-1.4,20.6-3.8c5.5-2,10.6-4.8,15.7-7.4c6.1-3.1,10.6-7.2,13.8-12.2c0.8-1.2,1.7-2.3,2.7-3.3c3.2-3.1,4.7-6.6,5.2-10.4
		c2.3-15.4-4.2-28.5-18.8-39.2c-1.9-1.4-4.3-2.6-6.7-3.5c-7.3-2.8-14.9-5.1-22.5-7.1c-3.2-0.9-6.3-0.7-9.5,0.1
		C300.7,330.2,299.2,331.2,297.7,329.4z"/>
	<path class="st0" d="M227.3,457.8c-2.6-0.8-3.1-2.2-2.2-4c0.1-0.3,0.7-0.5,1.1-0.5c0.4,0,1,0.2,1.2,0.4
		C228.6,455,228.7,456.4,227.3,457.8z"/>
	<path class="st0" d="M212.1,447.5c-1.1,3-4,4.4-6.4,5.7c-7.1,3.9-12.4,9-18.2,13.9c-3.1,2.6-6.1,5.4-9.2,8c-0.4,0.3-1.3,0.3-2,0.4
		c-0.1-0.7-0.4-1.3-0.3-2c0-0.3,0.5-0.6,0.8-0.9c7.4-7,14.2-14.4,23.4-20c2.7-1.6,5.4-3.2,8.2-4.7
		C209.3,447.4,210.7,447.6,212.1,447.5z"/>
</g>
</svg>
