<?xml version="1.0" encoding="utf-8"?>
<!-- Generator: Adobe Illustrator 25.0.1, SVG Export Plug-In . SVG Version: 6.00 Build 0)  -->
<svg version="1.1" id="Layer_1" xmlns="http://www.w3.org/2000/svg" xmlns:xlink="http://www.w3.org/1999/xlink" x="0px" y="0px"
	 viewBox="0 0 174 288" style="enable-background:new 0 0 174 288;" xml:space="preserve">
<style type="text/css">
	.st0{fill:#FFFFFF;}
</style>
<g>
	<path class="st0" d="M51.7,287.84c0.54-2.27,1.45-4.47,1.83-6.78c0.38-2.3,1.01-4.57,1.39-6.88c0.45-2.72,0.74-5.46,1.12-8.19
		c0.18-1.3,0.43-2.59,0.69-4.14c-1.16-1.58-1.08-3.62-0.93-5.65c0.15-1.97,0.38-3.93,0.53-5.9c0.05-0.71,0.05-1.43-0.03-2.14
		c-0.24-2.08-0.76-4.11-1.5-6.09c-0.06-0.16-0.23-0.28-0.42-0.52c-0.44,0.41-0.83,0.8-1.25,1.17c-3.02,2.67-6.25,5.09-9.95,7
		c-1.86,0.96-3.59,2.12-5.43,3.13c-1.72,0.95-3.52,1.78-5.24,2.72c-2.35,1.3-4.59,2.74-6.61,4.43c-0.44,0.37-0.94,0.72-1.25,1.17
		c-1.38,1.98-3.12,3.75-4.27,5.86c-0.27,0.5-0.63,0.91-1.21,1.14c-0.8-0.44-1.08-1.06-1.26-1.86c-0.46-1.99-1.06-3.95-1.67-5.9
		c-0.74-2.36-1.6-4.69-2.29-7.06c-0.68-2.31-1.26-4.65-1.81-6.99c-0.39-1.65-0.32-3.29,0.06-4.97c0.72-3.15,2.5-5.78,4.77-8.19
		c1.81-1.93,3.72-3.79,5.78-5.52c1.93-1.63,4.15-2.89,6.61-3.76c1.84-0.65,3.76-0.89,5.76-0.43c1.23,0.28,2.28,0.73,3.05,1.63
		c0.16,0.18,0.34,0.35,0.54,0.57c1.34-0.51,2.61-0.99,3.82-1.67c1.24-0.71,2.6-1.3,3.98-1.77c2.13-0.74,4.43-0.9,6.58-0.28
		c3.43,0.98,5.7,3.32,5.87,6.79c0.02,0.48-0.03,0.96-0.06,1.43c-0.18,3.04-0.4,6.09-0.55,9.13c-0.08,1.62,0.12,3.21,0.75,4.72
		c0.58,0.08,0.61-0.28,0.64-0.53c0.3-2.07,0.56-4.15,0.86-6.23c0.24-1.66,0.47-3.32,0.77-4.97c0.38-2.12,0.7-4.26,1.25-6.35
		c0.72-2.75,0.68-5.58,1.21-8.35c0.19-1,0.35-2.01,0.67-2.98c0.89-2.71,1.33-5.49,1.75-8.27c0.35-2.25,0.64-4.5,0.97-6.76
		c0.49-3.39,0.44-6.8,0.47-10.21c0.01-0.9,0.01-1.8-0.07-2.69c-0.06-0.64-0.26-1.27-0.42-2.05c-0.51,0.14-0.89,0.2-1.22,0.35
		c-0.89,0.42-1.76,0.89-2.65,1.33c-2.38,1.18-4.92,1.93-7.64,2.26c-1.59,0.19-3.15,0.14-4.6-0.36c-1.7-0.57-3.3-1.37-4.92-2.1
		c-0.34-0.15-0.71-0.37-0.63-0.89c0.44-0.02,0.89-0.05,1.34-0.07c0.78-0.03,1.43-0.31,2.04-0.72c0.51-0.34,0.86-0.75,0.82-1.36
		c-0.02-0.24,0.02-0.48,0-0.72c-0.22-2.79,1.29-4.91,3.35-6.85c0.8-0.75,1.75-1.11,2.86-1.17c4.45-0.24,8.28,0.88,11.1,4.1
		c0.12,0.14,0.22,0.3,0.36,0.43c0.45,0.43,0.82,1.02,1.65,0.82c1.02-0.25,1.72-1.03,1.74-1.94c0.02-0.84-0.02-1.67-0.03-2.51
		c-0.01-1.25-0.02-2.5-0.04-3.75c-0.01-0.42-0.01-0.84-0.1-1.25c-0.73-3.23-1.85-6.36-2.9-9.51c-0.43-1.29-1.35-1.81-2.78-1.94
		c-2.9-0.28-5.81-0.29-8.72-0.23c-0.27,0.01-0.55,0-0.81,0.06c-2.6,0.6-5.25,0.37-7.88,0.32c-1.64-0.03-3.2-0.31-4.72-0.91
		c-1.79-0.7-3.64-1.28-5.44-1.96c-1-0.37-1.97-0.82-2.68-1.58c-0.2-0.21-0.31-0.49-0.56-0.88c0.59-0.11,1.03-0.27,1.47-0.25
		c2.6,0.09,5.1-0.26,7.55-1.09c1.25-0.43,2.61-0.61,3.92-0.9c0.33-0.07,0.66-0.12,0.99-0.19c1.63-0.33,2.97-0.99,4.02-2.21
		c1.03-1.2,2.39-2.1,4.14-2.66c-0.14-0.84-0.29-1.66-0.4-2.48c-0.1-0.75-0.16-1.51-0.25-2.42c-1.01,0.36-1.57,0.94-2.02,1.58
		c-1.13,1.62-2.37,3.19-2.86,5.11c-0.22,0.88-1.11,1.09-1.85,0.48c-0.54-0.44-1.04-0.95-1.43-1.5c-1.92-2.69-2.57-5.62-2.03-8.76
		c0.25-1.42,0.54-2.83,1.18-4.16c0.23-0.48,0.38-1,0.55-1.46c-0.42-0.36-0.72-0.1-0.98,0.02c-1.48,0.72-2.97,1.43-4.4,2.22
		c-2.21,1.22-4.6,2-7.12,2.51c-1.29,0.26-1.97-0.25-1.77-1.43c0.14-0.82,0.38-1.64,0.64-2.44c0.57-1.72,1.21-3.42,1.77-5.14
		c0.34-1.04,0.74-2.03,1.34-2.98c0.38-0.59,0.79-1.22,0.8-1.97c-0.62-0.17-1.09,0.17-1.6,0.26c-0.46,0.07-0.91,0.22-1.38,0.31
		c-1.45,0.27-2.9,0.6-4.37,0.76c-3.05,0.33-5.95,1.05-8.66,2.35c-0.61,0.29-1.26,0.06-1.45-0.53c-0.1-0.33-0.14-0.71-0.09-1.05
		c0.1-0.62,0.12-1.18-0.38-1.69c-0.42-0.41-0.31-0.89-0.09-1.35c0.08-0.17,0.14-0.35,0.26-0.49c1.46-1.6,2.17-3.57,3.39-5.28
		c0.36-0.5,0.79-0.97,1.21-1.43c1.43-1.59,2.79-3.23,4.33-4.73c1.32-1.27,2.85-2.37,4.3-3.53c0.8-0.64,1.61-1.26,2.57-2
		c-0.35-0.15-0.55-0.28-0.76-0.31c-2.06-0.32-4.12-0.69-6.19-0.91c-1.47-0.15-2.97-0.1-4.45-0.11c-1.15-0.01-2.3,0.04-3.45,0.02
		c-1.6-0.02-3-0.66-4.4-1.22c-0.35-0.14-0.65-0.43-0.91-0.7c-0.45-0.47-0.36-1.02,0.21-1.41c0.37-0.25,0.81-0.43,1.18-0.69
		c0.63-0.43,1.36-0.79,1.67-1.58c-0.24-0.49-0.74-0.63-1.29-0.6c-0.47,0.02-0.94,0.11-1.39,0.23c-0.83,0.21-1.6,0.16-2.41-0.27
		c-0.32-0.66-0.26-1.34,0.14-2c1.42-2.32,2.99-4.56,5.22-6.34c0.84-0.67,1.86-1.18,2.81-1.73c0.55-0.32,1.14-0.59,1.66-0.85
		c0.03-0.53-0.39-0.56-0.66-0.67c-2.18-0.94-4.42-1.79-6.55-2.82c-1.65-0.8-3.23-1.74-4.74-2.74c-0.97-0.64-1.67-1.56-2.08-2.6
		c-0.37-0.95-0.08-1.48,1.02-1.77c1.48-0.39,2.87-1.09,4.46-1.17c0.16-0.01,0.31-0.18,0.59-0.36c-0.47-0.25-0.86-0.45-1.24-0.66
		c-0.63-0.35-1.26-0.69-1.87-1.06c-0.63-0.37-0.81-0.95-0.74-1.57c0.07-0.57,0.35-1.03,1.04-1.19c0.92-0.21,1.82-0.45,2.75-0.62
		c2.52-0.48,4.92-1.24,7.28-2.16c1.92-0.74,4-1.07,6.1-1.26c0.4-0.04,0.81-0.05,1.19-0.07c0.22-0.48-0.19-0.7-0.44-0.94
		c-1.66-1.57-3.39-3.08-5.01-4.69c-0.89-0.89-1.61-1.91-2.4-2.88c-0.79-0.97-1.63-1.91-2.36-2.91c-0.79-1.09-1.87-1.87-3.01-2.63
		c-0.43-0.29-0.87-0.58-1.22-0.93c-0.57-0.58-0.31-1.31,0.53-1.56c0.37-0.11,0.79-0.16,1.19-0.17c2.24-0.06,4.45,0.22,6.66,0.49
		c1.34,0.16,2.68,0.33,4,0.59c1.31,0.25,2.59,0.61,4.11,0.98c-0.6-1.53-1.7-2.58-2.44-3.8c-0.76-1.25-1.81-2.36-2.27-3.88
		c0.28-0.17,0.57-0.42,0.91-0.53c1.84-0.58,3.74-0.41,5.63-0.29c1.08,0.07,2.15,0.19,3.23,0.25c2.19,0.11,4.27,0.6,6.3,1.29
		c0.25,0.08,0.5,0.16,0.76,0.23c0.06,0.02,0.13-0.02,0.29-0.05c0.04-0.8,0.04-1.63,0.11-2.45c0.15-1.67,0.24-3.35,0.55-4.99
		c0.29-1.53,0.78-3.03,1.28-4.51c0.14-0.42,0.62-0.74,1.13-1.31c0.02-0.21,0.03-0.69,0.11-1.15c0.09-0.58,0.83-0.92,1.38-0.59
		c0.44,0.25,0.89,0.59,1.14,0.98c1.09,1.72,2.96,2.62,4.83,3.41c2.87,1.21,5.62,2.58,8.3,4.08c0.04,0.02,0.12-0.01,0.18-0.02
		c0.08-0.08,0.21-0.16,0.23-0.25c0.33-1.4,0.61-2.81,0.96-4.21c0.8-3.21,1.61-6.41,2.45-9.61c0.21-0.81,0.48-1.63,0.87-2.39
		c0.26-0.52,0.72-1,1.18-1.41c0.4-0.36,1.12-0.19,1.32,0.31c0.16,0.38,0.21,0.81,0.26,1.22c0.07,0.62,0.08,1.25,0.17,1.88
		c0.57-0.13,0.43-0.41,0.44-0.62c0.08-1.13,0.12-2.27,0.24-3.4c0.09-0.79,0.46-1.5,1.22-1.99c0.57-0.37,1.25-0.22,1.47,0.36
		c0.19,0.51,0.42,1.03,0.46,1.56c0.11,1.35,0.9,2.38,1.95,3.24c1.6,1.31,2.9,2.82,4.12,4.4c0.07,0.09,0.21,0.15,0.42,0.28
		c0.19-0.22,0.44-0.42,0.55-0.66c0.41-0.95,0.79-1.9,1.15-2.87c0.72-1.97,1.86-3.7,3.57-5.13c0.66-0.55,1.42-0.91,2.28-1.11
		c1.36-0.31,2.07,0.07,2.32,1.3c0.36,1.8,1.12,3.41,2.27,4.94c0.7,0.92,1.1,2.02,1.67,3.09c0.33,0.08,0.45-0.24,0.66-0.46
		c0.7-0.72,1.5-1.38,2.12-2.16c0.85-1.07,1.59-2.22,2.33-3.36c0.73-1.14,1.37-2.33,2.08-3.48c1.05-1.71,2.88-3.62,4.41-4.63
		c0.5,0.28,0.61,0.74,0.61,1.22c0,0.9,0.08,1.8-0.05,2.69c-0.32,2.09-0.33,4.17-0.01,6.26c0.07,0.45,0.08,0.91,0.13,1.53
		c1.59-0.96,3.03-1.8,4.45-2.69c0.78-0.49,1.57-0.93,2.57-0.96c0.83-0.02,1.16,0.28,1,0.95c-0.03,0.12-0.07,0.23-0.11,0.34
		c-0.94,2.66-1.22,5.38-1.05,8.15c0.04,0.66,0.04,1.32,0.03,1.97c-0.02,0.9-0.13,1.79-0.56,2.63c-0.13,0.25-0.15,0.55-0.28,1.03
		c1.77-0.78,3.25-1.54,4.57-2.56c1.57-1.22,3.2-2.38,4.87-3.49c1.02-0.68,2.14-1.21,3.42-1.52c1.02-0.24,1.98-0.69,3.12-1.1
		c0.07,0.42,0.2,0.71,0.14,0.96c-0.34,1.4-0.67,2.81-1.12,4.18c-0.26,0.79-0.72,1.54-1.15,2.27c-0.34,0.58-0.74,1.15-1.21,1.65
		c-1.27,1.38-1.77,3.07-2.44,4.69c-0.04,0.09,0.03,0.22,0.07,0.43c1.91-0.7,3.42-1.84,4.77-3.14c2.25-2.17,4.95-3.49,8.33-3.56
		c1.55-0.03,3.11,0.02,4.66,0.09c0.85,0.04,1.16,0.39,1.29,1.14c0.16,0.95-0.22,1.75-0.78,2.53c-0.36,0.5-0.78,1-0.98,1.55
		c-0.88,2.38-2.67,4.12-4.86,5.58c-1.56,1.05-3.14,2.08-4.74,3.07c-3.12,1.94-5.88,4.21-8.19,6.9c-0.12,0.14-0.19,0.3-0.39,0.63
		c1.12-0.33,2.05-0.61,2.99-0.88c0.96-0.27,1.93-0.54,2.9-0.8c0.97-0.27,1.93-0.55,2.91-0.79c0.98-0.24,1.96-0.45,2.95-0.64
		c0.99-0.19,1.99-0.36,3-0.48c1.07-0.13,2.15-0.21,3.23-0.3c1.01-0.09,2.02-0.21,3.03-0.25c1.01-0.04,2.03-0.02,3.04,0.02
		c1.01,0.04,2.02,0.13,3.03,0.18c1.01,0.06,2.03,0.06,3.04,0.16c0.98,0.1,2.06-0.21,2.99,0.59c-0.51,1.31-1.8,2.11-3.02,3.17
		c0.54,0.15,0.89,0.29,1.25,0.34c1.36,0.2,2.58,0.7,3.77,1.27c0.47,0.23,1.01,0.42,0.96,1.02c-0.05,0.58-0.5,0.79-1.07,0.91
		c-0.32,0.07-0.63,0.17-1.3,0.37c0.78,0.18,1.19,0.3,1.61,0.37c1.79,0.31,3.23,1.19,4.6,2.18c0.44,0.32,0.9,0.75,0.67,1.51
		c-0.35-0.04-0.78,0-1.07-0.15c-2.24-1.21-4.69-1.03-7.11-0.78c-1.84,0.2-3.37,1.19-4.95,1.99c-0.76,0.39-1.37,0.92-1.97,1.51
		c-1.63,1.59-3.29,3.17-5.09,4.6c-1.35,1.07-2.84,2.03-4.55,2.66c-0.3,0.11-0.58,0.25-0.84,0.36c0.03,0.45,0.38,0.39,0.6,0.39
		c3.28-0.02,6.43-0.63,9.47-1.72c1.19-0.43,2.41-0.84,3.66-1.05c0.97-0.16,2.04-0.13,3.01,0.04c2.07,0.37,4.14,0.55,6.25,0.37
		c0.53-0.04,1.1-0.13,1.45,0.5c-0.11,0.16-0.24,0.36-0.39,0.54c-0.43,0.53-1.01,1.01-1.27,1.6c-0.63,1.43-1.83,2.33-3.21,3.12
		c-1.82,1.04-3.62,2.08-5.64,2.8c-1.06,0.38-2.02,0.91-2.85,1.67c-1.24,1.13-2.95,1.65-4.47,2.42c-0.34,0.17-0.69,0.33-1.16,0.55
		c2.24,1.69,4.62,3.06,6.39,5.06c1.76,1.99,3.02,4.21,4.42,6.52c1.27,0.44,2.69,0.76,4.21,0.68c0.61-0.03,0.61-0.01,1.36,0.65
		c-0.52,1.65-2.2,2.48-3.49,3.65c0.35,1.34,0.64,2.69,0.42,4.07c-0.04,0.24-0.05,0.48-0.09,0.71c-0.11,0.55-0.42,0.94-0.77,0.94
		c-0.49,0-0.63-0.37-0.86-0.66c-1.21-1.48-2.88-2.51-4.57-3.51c-0.26-0.15-0.63-0.21-0.95-0.23c-1.28-0.07-2.57-0.11-3.85-0.16
		c-0.13-0.01-0.27-0.02-0.41,0c-1.84,0.31-3.67,0.63-5.47,0.94c0,0.25-0.05,0.39,0.01,0.47c1.22,1.73,2.6,3.33,4.3,4.72
		c1.31,1.07,2.82,1.84,4.39,2.54c2.52,1.11,4.63,2.67,6.58,4.43c0.76,0.69,1.34,1.47,1.46,2.48c-0.24,0.13-0.4,0.3-0.56,0.3
		c-2.09,0.02-4.2,0.1-6.28-0.01c-1.98-0.11-3.75-0.78-5.39-1.84c-2.08-1.34-4.07-2.75-5.86-4.38c-1.07-0.97-2.49-1.4-3.97-1.67
		c-0.17-0.03-0.37,0.06-0.64,0.11c0.54,0.74,1.02,1.46,1.56,2.13c1.38,1.71,2.24,3.67,3.36,5.51c0.38,0.63,0.71,1.29,1.04,1.94
		c1.39,2.73,2.62,5.5,2.83,8.54c0.07,1.07,0.36,2.13,0.52,3.19c0.11,0.74-0.25,1.14-1.09,1.21c-0.81,0.07-1.62,0.13-2.43,0.15
		c-1.23,0.03-2.41-0.18-3.43-0.79c-0.54,0.29-0.26,0.67-0.27,0.98c-0.03,1.02-0.01,2.03-0.06,3.05c-0.03,0.6-0.15,1.2-0.94,1.48
		c-0.17-0.04-0.4-0.03-0.56-0.12c-1.53-0.89-3.24-1.45-4.91-2.09c-1.29-0.49-2.51-1.2-3.62-1.97c-1.13-0.78-1.86-1.89-2.31-3.1
		c-0.42-1.13-0.71-2.3-1.09-3.45c-0.52-1.54-1.06-3.08-1.62-4.62c-0.46-1.25-0.97-2.48-1.48-3.77c-1.2-0.46-2.43-0.94-3.77-1.46
		c0,0.25-0.05,0.42,0.01,0.55c0.68,1.41,0.83,2.89,0.75,4.4c-0.09,1.8,0.05,3.58,0.41,5.35c0.18,0.88,0.2,1.79,0.42,2.66
		c0.26,1.04,0.68,2.06,1.01,3.09c0.55,1.73,1.29,3.43,1.56,5.19c0.44,2.8,0.23,5.6-1.1,8.26c-0.31,0.63-0.7,1.14-1.47,1.44
		c-0.48-0.3-0.59-0.76-0.67-1.22c-0.4-2.21-1.9-3.78-3.79-5.12c-0.09-0.06-0.25-0.05-0.38-0.08c-0.39,0.15-0.33,0.48-0.34,0.76
		c-0.03,0.66-0.01,1.31-0.01,1.97c-0.03,2.26-0.62,4.36-2.2,6.21c-0.57,0.67-1,1.42-1.54,2.11c-0.22,0.28-0.56,0.48-0.98,0.83
		c-0.21-0.44-0.49-0.75-0.47-1.04c0.17-1.86-0.57-3.52-1.27-5.21c-0.63-1.51-1.25-3.03-1.81-4.56c-0.36-0.99-0.86-1.87-1.7-2.6
		c-0.46-0.04-0.53,0.3-0.68,0.55c-0.53,0.9-1.08,1.79-1.57,2.71c-0.54,1.03-1.06,2.07-1.52,3.12c-0.72,1.68-1.48,3.33-2.56,4.85
		c-0.36,0.5-0.78,1-1.28,1.38c-0.66,0.51-1.33,0.98-1.85,1.62c-0.13,0.16-0.47,0.28-0.71,0.26c-0.4-0.02-0.49-0.35-0.54-0.65
		c-0.12-0.71-0.3-1.41-0.36-2.13c-0.26-2.84-1.15-5.51-2.67-8.16c-0.97,1.24-2.05,2.33-2.32,3.87c-0.61,3.54-1.26,7.08-1.92,10.61
		c-0.59,3.12-1.15,6.26-2.23,9.28c-0.49,1.37-1.11,2.69-1.36,4.12c-0.04,0.24-0.07,0.47-0.11,0.8c0.21,0.1,0.42,0.23,0.64,0.31
		c2.54,0.97,2.61,2.67,1.51,4.37c-0.65,1-1.6,1.78-2.7,2.38c-0.95,0.52-1.4,1.16-1.54,2.15c-0.45,3.14-1.57,6.17-2.19,9.28
		c-0.69,3.47-1.52,6.92-1.74,10.45c-0.07,1.13-0.26,2.26-0.39,3.39c-0.02,0.21,0,0.41,0.26,0.69c0.39-0.6,0.8-1.19,1.16-1.8
		c1.73-2.9,3.43-5.82,5.19-8.72c0.6-1,1.34-1.93,2-2.9c0.31-0.46,0.62-0.93,0.89-1.41c0.81-1.45,0.94-2.96,0.5-4.54
		c-0.21-0.75-0.42-1.52-0.43-2.28c-0.07-3.09,2.28-4.81,5.79-4.45c0.93,0.1,1.83,0.4,2.73,0.65c1.67,0.47,3.34,0.97,5,1.48
		c1.29,0.4,2.62,0.59,3.99,0.55c3.49-0.11,6.83,0.55,10.21,1.23c2.46,0.5,4.77,1.31,7.1,2.09c2.47,0.83,4.78,1.95,6.52,3.82
		c0.42,0.45,1,0.79,1.53,1.17c1.07,0.76,1.43,1.2,2.1,2.59c-0.65,0.27-1.19-0.11-1.71-0.3c-2.93-1.07-5.92-1.57-9.11-1.23
		c-4.52,0.48-9.06,0.2-13.59,0.18c-2.42-0.01-4.84-0.39-7.27-0.6c-2.8-0.24-5.53,0.18-8.23,0.78c-1.21,0.27-1.95,1.02-2.52,1.93
		c-1.3,2.09-2.58,4.2-3.88,6.3c-0.35,0.57-0.74,1.13-1.1,1.7c-0.86,1.35-1.72,2.7-2.55,4.07c-1.18,1.94-2.38,3.89-3.49,5.86
		c-0.63,1.12-1.19,2.28-1.66,3.46c-1.27,3.15-2.61,6.26-3.16,9.61c-0.44,2.65-1.28,5.25-1.85,7.89c-0.34,1.58-0.48,3.2-0.76,4.79
		c-0.81,4.61-1.35,9.25-1.89,13.89c-0.19,1.6-0.54,3.19-0.82,4.79c-0.53,3.01-1.06,6.02-1.58,9.03c-0.48,2.78-0.96,5.55-1.41,8.33
		c-0.15,0.95-0.18,1.91-0.37,2.85c-0.56,2.82-1.16,5.64-1.75,8.46c-0.15,0.7-0.34,1.4-0.51,2.1c-0.41,0-0.81,0-1.22,0
		c0.19-1.18,0.35-2.37,0.56-3.54c0.46-2.48,1.07-4.93,1.38-7.42c0.37-2.91,0.69-5.81,1.35-8.69c0.6-2.63,1-5.3,1.44-7.95
		c0.52-3.13,1.09-6.26,1.46-9.4c0.52-4.46,1.24-8.89,1.99-13.32c0.41-2.42,0.99-4.82,1.36-7.24c0.8-5.24,2.51-10.26,4.58-15.19
		c0.4-0.95,0.82-1.9,1.35-2.8c1.49-2.54,3.01-5.06,4.57-7.57c1.83-2.92,3.72-5.81,5.6-8.71c0.84-1.3,1.7-2.58,2.9-3.65
		c0.21-0.19,0.27-0.52,0.4-0.79c0.45-0.04,0.9-0.07,1.35-0.11c0.63-0.19,1.26-0.43,1.91-0.57c2.32-0.48,4.68-0.65,7.04-0.49
		c4.37,0.29,8.75,0.48,13.13,0.52c0.67,0,1.35,0.02,2.02,0c0.61-0.02,1.24,0.09,2.22-0.21c-2.06-0.24-3.7-0.54-5.39-0.49
		c-3.14,0.08-6.14-0.5-9.1-1.4c-2.52-0.77-5.13-0.98-7.77-0.41c-1.71,0.37-3.09,1.17-4.09,2.45c-0.1,0.13,0.04,0.41,0.05,0.61
		c-0.46,0.02-0.92,0.05-1.37,0.08c-0.23,0.01-0.45,0.03-0.88,0.06c0.81-1.47,0.85-2.75-0.25-4.1c-0.11,2.42-0.06,2.45-1.31,4.57
		c-1.18,2.01-2.54,3.94-3.73,5.94c-2.17,3.64-4.29,7.31-6.41,10.97c-0.77,1.33-1.47,2.69-2.23,4.02c-0.18,0.32-0.44,0.63-1.07,0.35
		c0.18-1.32,0.35-2.67,0.54-4.03c0.52-3.61,1.17-7.21,1.43-10.85c0.06-0.83,0.27-1.65,0.44-2.48c0.26-1.23,0.54-2.46,0.81-3.69
		c0.2-0.88,0.38-1.76,0.61-2.63c0.56-2.15,1.15-4.3,1.7-6.45c0.08-0.32,0.01-0.68,0.01-1.13c-1.52,0.39-2.93,0.76-4.42,1.14
		c-0.09,0.72-0.25,1.36-0.23,2.01c0.04,1.91,0.17,3.82,0.21,5.73c0.03,1.49,0.05,2.99-0.05,4.48c-0.14,1.97-0.38,3.93-0.61,5.89
		c-0.23,2.02-0.59,4.03-0.71,6.06c-0.15,2.46-0.84,4.84-1.2,7.26c-0.03,0.17-0.09,0.36-0.2,0.5c-0.1,0.13-0.29,0.27-0.45,0.27
		c-0.15,0-0.38-0.15-0.44-0.28c-0.41-0.92-0.29-1.88-0.09-2.82c0.17-0.82,0.46-1.63,0.58-2.45c0.23-1.6,0.38-3.2,0.57-4.81
		c0.32-2.79,0.79-5.57,0.93-8.37c0.17-3.46,0.06-6.93,0.08-10.39c0-0.82,0-1.64,0-2.43c-0.73-0.16-1.21-0.05-1.47,0.33
		c0.27,1.38,0.7,2.66,0.73,3.96c0.11,4.66,0.1,9.32-0.75,13.94c-0.32,1.71-0.58,3.43-0.9,5.13c-0.36,1.88-0.7,3.77-1.14,5.63
		c-0.69,2.92-1.39,5.84-1.52,8.84c-0.04,0.89-0.2,1.78-0.38,2.66c-0.54,2.58-1.17,5.15-1.66,7.73c-0.31,1.64-0.44,3.32-0.65,4.98
		c-0.28,2.19-0.49,4.4-0.86,6.58c-0.54,3.13-1.21,6.24-1.79,9.36c-0.19,1.06-0.2,2.14-0.38,3.21c-0.49,3.01-1.02,6.02-1.53,9.04
		c-0.09,0.53-0.17,1.07-0.2,1.6c-0.22,3.46-0.8,6.88-1.55,10.28c-0.79,3.57-1.53,7.16-2.6,10.68
		C52.78,287.84,52.24,287.84,51.7,287.84z M115.75,134.79c-0.01-0.1-0.01-0.2-0.02-0.26c0,0.06,0,0.15,0,0.24
		c0.13,0.06,0.25,0.12,0.38,0.18c-0.01-0.05-0.01-0.15-0.03-0.15C115.98,134.79,115.87,134.8,115.75,134.79z M73.07,30.75
		c0-0.1,0.01-0.2,0-0.29c-0.01-0.05-0.06-0.1-0.1-0.14c0.03,0.05,0.07,0.09,0.07,0.14c0.01,0.09,0.01,0.19,0.01,0.28
		c0.4,0.13,0.5,0.39,0.41,0.74c0.38,0.15,0.38,0.43,0.34,0.73c1.04,1.43,1.22,1.98,1.05,3.3c-0.8-0.33-0.88-1.04-1.23-1.59
		c-0.37-0.57-0.71-1.15-1.05-1.73c-0.34-0.58-0.65-1.18-0.97-1.77c-0.29-0.54-0.58-1.08-0.85-1.62c-0.3-0.6-0.62-1.19-0.88-1.81
		c-0.26-0.62-0.4-1.27-0.67-1.88c-0.25-0.57,0.04-1.28-0.62-1.97c-0.54,2.05-1.26,3.83-1.58,5.73c-0.39,2.36-0.93,4.71-1.56,7.03
		c-0.56,2.09-0.53,4.13,0.13,6.19c0.53,1.67,1.11,3.33,1.45,5.03c0.51,2.55,1.91,4.7,3.56,6.75c0.1,0.13,0.3,0.19,0.6,0.37
		c-0.13-0.77-0.25-1.41-0.33-2.05c-0.03-0.22,0.01-0.49,0.53-0.42c0.44,1.06,0.83,2.2,1.39,3.27c1.03,2,1.22,2.17,2.37,2.87
		c-0.15-0.5-0.21-0.91-0.38-1.28c-0.89-1.91-1.26-3.9-1.28-5.95c-0.02-1.49-0.05-2.98,0.47-4.43c0.11-0.3,0.33-0.52,0.95-0.28
		c-0.28,3.66-0.44,7.41,1.3,10.92c0.51,0.04,0.76-0.12,0.79-0.47c0.02-0.17-0.03-0.36-0.1-0.52c-0.67-1.63-0.56-3.3-0.27-4.95
		c0.6-3.42,1.47-6.82,0.69-10.31c0.24-1.9-0.37-3.66-1.19-5.37c-0.08-0.16-0.11-0.35-0.19-0.51c-0.47-0.92-0.96-1.83-1.45-2.76
		c-0.31,0.1-0.49,0.15-0.67,0.2c0.21-0.35-0.01-0.55-0.3-0.73C73.28,31.28,72.94,31.13,73.07,30.75z M82.7,53.23
		c0.02,0.05,0.04,0.09,0.04,0.14c0,0.04-0.04,0.07-0.06,0.11c0.02-0.08,0.04-0.16,0.06-0.23c-0.2-0.22-0.45-0.32-0.78-0.24
		c0.02-0.16,0.03-0.32,0.07-0.47c0.06-0.24-0.02-0.41-0.29-0.49c0-0.12,0.06-0.26,0-0.35c-0.79-1.31-1.59-2.61-2.41-3.91
		c-0.05-0.08-0.22-0.09-0.45-0.18c-0.56,1.71-0.81,3.38,0.27,4.99c0.49,0.73,0.9,1.46,1.11,2.29c0.06,0.23,0.17,0.46,0.34,0.64
		c0.32,0.35,0.69,0.29,1.02-0.01c0.17-1.34-1.2-2.38-1-3.81c0.43,0.12,0.79,0.22,1.15,0.32c0.06,0.33,0.12,0.66,0.17,0.99
		C82.2,53.08,82.45,53.15,82.7,53.23z M64.95,144.21c0.91-1.18,2.28-1.62,3.78-1.75c1.18-0.1,2.38-0.02,3.69-0.02
		c-0.02-2.05-0.39-3.99-1.09-6.09c-0.31,0.31-0.48,0.47-0.63,0.63c-0.9,0.96-1.82,1.91-2.7,2.88c-1.05,1.16-2.07,2.34-3.1,3.52
		C64.65,143.66,64.82,143.93,64.95,144.21c-0.1-0.07-0.19-0.17-0.3-0.21c-0.06-0.02-0.16,0.08-0.24,0.13c0.07,0,0.13-0.01,0.19,0
		C64.72,144.15,64.83,144.18,64.95,144.21z M71.54,181.2c-3.4,0.09-6.71,0.59-9.85,1.81c-3.11,1.21-6.25,2.36-9.54,3.6
		c0.58,0.1,1.04,0.28,1.47,0.25c2.71-0.2,5.39-0.55,7.79-1.78c2.94-1.51,6.06-2.62,9.31-3.46c0.29-0.07,0.53-0.3,0.79-0.45
		c0.49,0,0.99,0,1.48,0c-0.25-0.22-0.5-0.27-0.74-0.23C72,180.99,71.78,181.11,71.54,181.2z M126.02,109.11
		c-0.09-0.09-0.18-0.18-0.28-0.27c-0.04,0.04-0.08,0.07-0.12,0.11C125.76,109,125.89,109.05,126.02,109.11
		c0.06,0.16,0.07,0.36,0.19,0.47c2.96,2.78,4.93,6.1,6.55,9.59c0.77,1.65,1.41,3.34,1.5,5.17c0.09,1.85,0.31,3.69,0.47,5.53
		c0.05,0.59,0.01,1.2,0.49,1.73c1.75,0.86,3.59,1.13,5.61,0.58c-0.05-0.62-0.1-1.15-0.14-1.68c-0.16-2.58-0.72-5.08-2.01-7.43
		c-0.73-1.34-1.39-2.71-2.07-4.07c-1.17-2.35-2.58-4.57-4.37-6.62c-0.99-1.13-2.06-2-3.65-2.38c-0.64-0.15-1.21-0.52-1.83-0.76
		C126.55,109.15,126.28,109.15,126.02,109.11z M148.76,114.13c0.11,0.08,0.23,0.16,0.34,0.25c0.03-0.05,0.05-0.09,0.08-0.14
		c-0.15-0.02-0.3-0.04-0.45-0.07c0.02-0.47-0.44-0.56-0.77-0.71c-2.11-0.95-4.15-1.98-6.03-3.27c-1.33-0.91-2.73-1.77-4.2-2.49
		c-2.42-1.18-4.93-2.22-7.4-3.32c-0.6-0.27-1.21-0.53-1.79-0.84c-2.25-1.19-4.36-2.59-6.71-3.66c-1.31-0.6-2.52-1.38-3.76-2.09
		c-0.48-0.28-0.73-0.16-0.9,0.37c0.55,0.46,1.13,0.95,1.72,1.44c0.64,0.53,1.29,1.05,1.94,1.58c0.56,0.46,1.27,0.81,1.55,1.78
		c-1.27-0.38-2.02-1.04-2.81-1.65c-0.83-0.65-1.55-1.44-3.01-2.06c0.68,0.92,1.1,1.5,1.53,2.07c0.22,0.3,0.47,0.58,0.69,0.88
		c0.98,1.32,2.3,2.32,3.71,3.26c1.47,0.98,3.17,1.58,4.74,2.4c1.13,0.59,2.34,0.9,3.6,1.15c1.58,0.32,3.16,0.65,4.73,1.01
		c1.33,0.3,2.5,0.89,3.49,1.73c0.49,0.42,0.98,0.83,1.46,1.24c2.2,1.88,4.53,3.57,7.51,4.43c1.18,0.34,2.66,0.4,4.1,0.02
		c-0.12-0.15-0.21-0.32-0.36-0.4c-1.89-1.04-3.84-2-5.95-2.65c-2.28-0.7-4.26-1.78-5.76-3.48c-0.17-0.19-0.27-0.41,0-0.62
		c0.07-0.01,0.15-0.04,0.19-0.02c0.28,0.16,0.57,0.31,0.82,0.49C143.31,112.44,145.9,113.54,148.76,114.13z M100.93,110.28
		c1.04-0.1,1.98-0.36,2.76-1.01c0.28-0.23,0.73-0.29,1.09-0.46c0.41-0.2,0.83-0.4,1.2-0.65c1.28-0.85,2.17-2.15,3.84-2.54
		c0.06-0.01,0.12-0.06,0.16-0.11c0.97-1.06,1.98-2.1,2.9-3.19c0.56-0.66,1.01-1.4,1.45-2.13c0.35-0.58,0.58-1.21,0.92-1.79
		c0.54-0.91,0.87-1.87,1.03-2.88c0.08-0.53,0.17-1.08,0.43-1.55c0.62-1.07,1.29-2.1,1.08-3.37c-0.03-0.16,0.07-0.35,0.15-0.52
		c0.3-0.62,0.24-1.27,0.27-1.93c0.05-1.47-0.64-2.78-0.94-4.17c-0.37-1.75-0.93-3.47-1.4-5.21c-0.05-0.17-0.05-0.36-0.05-0.54
		c-0.06-1.73-0.35-3.41-1.21-5c-0.21-0.4-0.38-0.77-0.88-0.89c-0.72-0.18-1.13-0.56-1.25-1.25c-0.15-0.82-0.76-1.43-1.57-1.75
		c-0.89-0.35-1.42-0.94-1.7-1.68c-0.24-0.65-0.65-1.12-1.14-1.63c-0.69-0.72-1.34-1.42-2.24-1.98c-0.75-0.47-1.3-1.19-1.94-1.81
		c-0.27-0.26-0.48-0.61-0.82-0.79c-1.32-0.7-2.61-1.41-3.79-2.31c-0.62-0.47-1.6-0.6-2.43-0.81c-0.6-0.15-1.14-0.32-1.58-0.74
		c-0.75-0.71-1.68-0.99-2.76-0.74c-0.69,0.16-1.33,0.11-1.98-0.12c-0.24-0.09-0.54-0.14-0.79-0.1c-0.89,0.13-1.74-0.03-2.61-0.16
		c-0.92-0.14-1.88-0.18-2.82-0.2c-0.46-0.01-1.02,0-1.37,0.2c-1.22,0.73-2.64,0.93-4,1.22c-1.17,0.25-2.16,0.65-2.98,1.39
		c-0.79,0.73-1.71,1.14-2.87,1.15c-0.27,0-0.54,0.02-0.81,0.08c-2.3,0.47-4.3,1.29-5.49,3.28c-0.72,1.21-1.7,2.25-3.01,3.1
		c-0.89,0.58-1.63,1.45-2.16,2.32c-0.44,0.73-0.8,1.5-1.43,2.13c-0.17,0.18-0.38,0.39-0.41,0.61c-0.13,1.08-0.94,1.77-1.64,2.58
		c-0.97,1.13-1.76,2.39-1.92,3.87c-0.1,0.95-0.35,1.88-0.9,2.73c-0.23,0.35-0.33,0.78-0.47,1.18c-0.38,1.08-0.78,2.15-0.53,3.31
		c-0.56,1.54-0.4,3.03,0.29,4.52c0.15,0.32,0.15,0.7,0.22,1.05c0.1,0.53,0.22,1.05,0.3,1.58c0.06,0.41,0.17,0.83,0.11,1.23
		c-0.2,1.52,0.76,2.89,0.67,4.39c-0.01,0.1,0.1,0.22,0.18,0.32c0.64,0.85,1.18,1.73,1.32,2.78c0.03,0.21,0.24,0.42,0.41,0.6
		c1.21,1.27,1.98,2.82,3.43,3.94c0.4,0.31,0.7,0.69,1.24,0.86c0.85,0.28,1.51,0.8,1.97,1.48c0.26,0.38,0.54,0.68,1.03,0.8
		c0.41,0.11,0.62,0.44,0.92,0.63c1.08,0.67,2.03,1.48,3.49,1.66c1.25,0.15,2.46,0.62,3.64,1.04c0.7,0.25,1.37,0.38,2.13,0.44
		c1.56,0.11,3.24-0.23,4.59,0.85c0.22,0.18,0.64,0.16,0.97,0.22c0.46,0.09,0.92,0.16,1.38,0.24c2.24,0.4,4.48,0.84,6.77,0.18
		c0.43-0.13,0.94-0.09,1.41-0.07c0.68,0.03,1.34,0.12,1.88-0.4c0.3-0.29,0.72-0.24,1.14-0.15c0.32,0.07,0.65,0.08,0.96,0.12
		c0.4-0.38,0.76-0.72,1.08-1.03c1.22,0.37,1.22,0.37,2.06-0.17c0.22-0.14,0.42-0.36,0.66-0.4
		C99.79,111.94,100.4,111.18,100.93,110.28z M21.71,261.98c0.1,0.04,0.19,0.07,0.29,0.11c0.28-0.33,0.57-0.65,0.84-0.98
		c1.42-1.78,3.25-3.23,5.21-4.48c2.57-1.63,5.34-3.01,8-4.54c4.12-2.36,8.47-4.41,12.27-7.23c2.89-2.15,5.46-4.46,6.98-7.54
		c0.81-1.64,1.54-3.34,1.66-5.14c0.11-1.54-0.1-3.1-0.06-4.65c0.04-1.87-2.16-3.93-4.31-4.19c-2.51-0.3-5.02-0.27-7.31,0.85
		c-1.29,0.63-2.5,1.41-3.75,2.11c-0.74,0.41-1.45,0.91-2.26,1.16c-0.95,0.29-1.6,0.82-2.26,1.44c-2.3,2.16-3.94,4.7-5.43,7.3
		c-1.56,2.71-3.04,5.46-4.46,8.23c-0.91,1.79-1.87,3.61-2.41,5.5C23.56,253.91,22.69,257.96,21.71,261.98z M56.94,103.18
		c-0.9-0.3-0.91-0.32-1.23-0.24c-3.13,0.76-6.2,1.66-9.05,3.07c-0.88,0.43-1.83,0.77-2.75,1.12c-0.16,0.06-0.37,0.01-0.71,0.01
		c0.21-0.28,0.32-0.49,0.5-0.64c1.02-0.88,2.18-1.59,3.46-2.16c2.55-1.13,5.19-2.03,8.02-2.44c0.18-0.03,0.35-0.15,0.62-0.28
		c-0.09-0.44-0.18-0.89-0.25-1.22c-0.2-0.12-0.26-0.18-0.31-0.18c-0.54-0.04-1.07-0.08-1.61-0.1c-2.98-0.12-5.73,0.37-8.16,2.07
		c-1.26,0.88-2.7,1.64-4.31,1.92c-1.52,0.26-2.74,0.97-3.95,1.74c-0.44,0.28-0.86,0.57-1.28,0.87c-2.02,1.49-4.2,2.82-5.91,4.62
		c-1.17,1.24-2.32,2.49-3.46,3.75c-0.63,0.7-1.29,1.39-1.81,2.15c-1.27,1.9-2.45,3.83-3.66,5.74c0.27,0.76,0.52,1.48,0.81,2.3
		c0.77-0.24,1.52-0.37,2.15-0.68c1.39-0.7,2.91-0.95,4.43-1.19c1.6-0.25,3.21-0.44,4.79-0.74c0.98-0.18,1.94-0.48,2.89-0.8
		c1.07-0.36,2.1-0.83,3.17-1.18c0.8-0.25,1.36-0.68,1.91-1.24c1.32-1.35,2.49-2.8,3.92-4.08c2.71-2.44,5.77-4.3,9.38-5.47
		c0.68-0.22,1.18-0.55,1.53-1.09c0.71-1.09,1.43-2.16,2.12-3.26c0.38-0.61,0.34-0.65-0.68-1.31c-0.78,0.47-1.66,0.92-2.43,1.47
		c-1.2,0.86-2.33,1.8-3.51,2.69c-0.3,0.23-0.67,0.39-1.03,0.56c-0.08,0.04-0.23-0.05-0.34-0.08
		C51.07,107.19,52.74,105.76,56.94,103.18z M37.43,226.71c-0.85-1.27-1.06-1.43-2.18-1.74c-1.89-0.53-3.71-0.29-5.55,0.3
		c-2.47,0.79-4.52,2.17-6.36,3.74c-2.52,2.15-4.81,4.5-6.89,7.01c-2.51,3.02-3.28,6.35-2.81,9.99c0.36,2.8,1.16,5.52,2.1,8.19
		c1.09,3.08,2.07,6.17,2.67,9.35c0.12,0.65,0.32,1.28,0.5,1.91c0.02,0.07,0.18,0.12,0.28,0.17c0.11-0.06,0.29-0.1,0.32-0.18
		c0.59-1.96,1.24-3.91,1.73-5.89c0.7-2.86,1.28-5.74,1.93-8.6c0.15-0.64,0.34-1.28,0.58-1.89c2.11-5.37,4.84-10.49,7.79-15.53
		c1.12-1.91,2.6-3.63,4.16-5.27C36.21,227.74,36.82,227.26,37.43,226.71z M93.89,55.3c0.16-0.25,0.31-0.49,0.47-0.74
		c0.66-1.05,1.27-2.13,2.29-2.94c1.12-0.89,2.01-1.92,2.77-3.06c0.38-0.57,0.73-1.16,1.21-1.65c1.85-1.93,2.61-4.29,3.39-6.64
		c0.52-1.54,0.91-3.12,1.46-4.66c0.49-1.39,0.66-2.76,0.42-4.22c-0.28-1.71-0.39-3.45-0.51-5.17c-0.1-1.49,0-3-0.2-4.47
		c-0.18-1.32-0.25-2.61-0.03-3.92c0.1-0.61,0.28-1.26,0.03-1.87c-0.72-0.03-0.92,0.4-1.13,0.74c-0.8,1.25-1.61,2.49-2.32,3.78
		c-1.14,2.04-2.44,3.98-4.19,5.68c-0.82,0.79-1.55,1.66-2.26,2.53c-0.9,1.12-1.73,2.28-2.57,3.43c-0.78,1.06-1.42,2.18-1.64,3.44
		c-0.39,2.24-0.82,4.48-1.12,6.73c-0.33,2.51-0.33,5.03,0.5,7.47c0.55,1.63,0.7,3.28,0.78,4.95c0.01,0.28-0.08,0.61,0.28,0.79
		c0.64,0.1,0.62-0.34,0.68-0.67c0.51-2.79,1.98-5.18,3.85-7.42c0.14-0.17,0.3-0.41,0.73-0.11c-0.18,0.91-0.88,1.66-1.3,2.52
		c-0.43,0.87-0.87,1.75-1.23,2.65C93.91,53.36,93.48,54.24,93.89,55.3z M62.78,108.36c-1.17,0.53-2.21,1.07-3.31,1.5
		c-2.04,0.78-4.13,1.47-6.17,2.25c-2.89,1.11-5.38,2.74-7.48,4.81c-1.62,1.6-3.13,3.28-4.68,4.94c-1.38,1.48-2.53,3.09-3.26,4.92
		c-1.07,2.7-2.15,5.4-3.21,8.1c-0.09,0.24-0.01,0.54-0.01,0.9c1.52-0.31,2.85-0.68,4.1-1.29c3.13-1.53,6.28-3.04,9.42-4.56
		c2.9-1.41,5.81-2.78,8.08-5c0.86-0.84,1.76-1.64,2.35-2.66c0.78-1.33,1.62-2.62,2.63-3.82c0.36-0.43,0.68-0.9,0.93-1.38
		c1.12-2.11,2.02-4.3,2.59-6.58c0.02-0.09-0.1-0.2-0.15-0.31c-0.62,0.15-0.63,0.15-0.75,0.38c-1.33,2.65-3.18,4.98-5.61,6.94
		c-0.2,0.16-0.44,0.3-0.81-0.03c1.89-2.76,4.58-5.12,5.88-8.36C63.19,108.9,62.98,108.62,62.78,108.36z M111.8,67.42
		c1.62,0.08,3.23,0.16,4.85,0.23c1.01,0.04,2.04,0.16,3.03,0.06c2.55-0.25,5.08-0.6,7.62-0.93c0.53-0.07,1.05-0.21,1.57-0.35
		c2.25-0.63,4.5-1.25,6.74-1.91c3.1-0.92,5.98-2.13,8.24-4.34c0.89-0.87,2-1.62,3.14-2.23c1.74-0.93,3.33-2.03,4.9-3.15
		c0.3-0.21,0.52-0.51,0.94-0.93c-0.88-0.11-1.53-0.25-2.18-0.26c-2.63-0.03-5.27-0.14-7.89,0.01c-5.41,0.3-10.68,1.34-15.84,2.79
		c-3.43,0.97-6.67,2.3-9.53,4.24c-1.66,1.12-3.21,2.36-4.82,3.54c-0.62,0.46-1.26,0.9-1.86,1.38c-0.16,0.13-0.2,0.39-0.35,0.72
		c2.62,0.13,4.82-0.91,7.29-1.28C115.99,66.64,113.95,67.12,111.8,67.42z M126.93,29.62c-1.47,0.08-2.02,0.17-3.16,0.92
		c-1.46,0.96-2.91,1.94-4.23,3.04c-1.69,1.4-3.48,2.68-5.59,3.5c-1.83,0.71-3.33,1.82-4.88,2.86c-1.05,0.71-1.93,1.67-2.75,2.61
		c-2.14,2.45-2.7,5.42-3.43,8.33c-0.28,1.1-0.49,2.22-0.77,3.33c-0.32,1.28-0.68,2.56-1.02,3.84c-0.09,0.32-0.05,0.59,0.39,0.79
		c0.58-0.48,0.93-1.12,1.35-1.71c1.11-1.53,2.56-2.77,4.17-3.87c0.16-0.11,0.45-0.08,0.89-0.14c-0.74,1.06-1.61,1.72-2.4,2.44
		c-1.09,1-1.94,2.14-2.61,3.39c-0.13,0.25-0.32,0.54,0.07,0.77c0.13-0.03,0.29-0.03,0.37-0.1c1.18-1.19,2.7-1.97,4.22-2.75
		c3.72-1.9,6.96-4.3,9.66-7.27c0.86-0.95,1.52-1.97,2.01-3.09c1.1-2.5,2.24-4.99,3.25-7.52c0.66-1.65,1.54-3.17,2.72-4.57
		C126.39,33.01,127.11,31.44,126.93,29.62z M58.42,147.59c0.29-0.32,0.54-0.52,0.67-0.77c0.68-1.28,1.77-2.24,3.03-3.07
		c0.43-0.29,0.82-0.63,1.17-0.99c1.89-1.95,3.81-3.87,5.6-5.89c1.08-1.22,1.92-2.62,1.92-4.24c0-4.62,0.99-9.01,3.65-13.04
		c1.06-1.61,0.66-3.35,0.49-5.06c-0.01-0.05-0.04-0.12-0.09-0.15c-0.1-0.07-0.22-0.18-0.33-0.17c-0.18,0.01-0.4,0.06-0.53,0.17
		c-0.14,0.12-0.21,0.31-0.26,0.48c-0.44,1.56-0.93,3.12-1.3,4.7c-0.36,1.54-1.04,2.96-1.85,4.33c-0.11,0.19-0.16,0.6-0.63,0.47
		c0.93-3.6,1.85-7.19,2.78-10.81c-0.39-0.17-0.68-0.29-0.96-0.42c-1.09,0.82-2.05,1.66-3.15,2.34c-2.08,1.31-3.69,2.97-4.92,4.91
		c-1.09,1.71-2.06,3.49-3.04,5.26c-0.44,0.8-0.86,1.63-1.11,2.49c-0.39,1.39-0.65,2.8-0.93,4.21c-0.24,1.17-0.29,2.39-0.66,3.53
		c-0.89,2.7-0.8,5.43-0.53,8.18C57.55,145.2,57.77,146.37,58.42,147.59z M115.15,133.05c-0.31-2.28-0.64-4.46-0.72-6.67
		c-0.05-1.43-0.07-2.87-0.07-4.3c0-0.91-0.05-1.82-0.55-2.62c-0.85-1.36-1.71-2.71-2.73-3.97c-1.17-1.46-2.51-2.81-3.78-4.2
		c-0.38-0.42-0.75-0.84-1.16-1.23c-0.1-0.1-0.44-0.14-0.54-0.07c-0.17,0.13-0.39,0.41-0.34,0.55c0.19,0.5,0.46,0.99,0.76,1.45
		c0.89,1.34,1.87,2.63,2.72,3.99c0.42,0.67,0.65,1.43,0.91,2.17c0.07,0.18,0.1,0.5-0.5,0.54c-1.03-1.08-1.45-2.57-2.38-3.79
		c-0.97-1.27-1.74-2.65-3.03-4.14c0.22,1.8,0.59,3.26,0.53,4.7c-0.06,1.45,0.14,2.94-0.28,4.41c-0.63-0.25-0.65-0.68-0.68-1.1
		c-0.04-0.78-0.03-1.56-0.09-2.33c-0.1-1.37-0.24-2.74-0.38-4.11c-0.04-0.34-0.08-0.73-0.63-0.76c-0.07,0.1-0.19,0.19-0.2,0.3
		c-0.51,3.8-0.96,7.61-0.73,11.44c0.11,1.85,0.47,3.67,1.34,5.4c1.38,2.73,3.13,5.28,4.87,7.84c0.24,0.35,0.57,0.66,0.87,0.99
		c1.38,1.49,3.2,2.57,4.82,3.82c1.5,1.16,2.73,2.46,3.65,4.01c0.12,0.21,0.24,0.43,0.64,0.29c0.12-1.04,0.32-2.13-0.01-3.18
		c-0.52-1.67-1.11-3.32-1.74-4.96c-0.65-1.69-1.43-3.35-2.07-5.05c-0.21-0.55-0.17-1.17-0.2-1.76c-0.01-0.13,0.25-0.38,0.32-0.36
		c0.22,0.06,0.5,0.17,0.58,0.34c0.15,0.32,0.17,0.7,0.28,1.04C114.79,132.17,114.98,132.61,115.15,133.05z M93.38,28.77
		c-0.38-1.87-0.95-3.57-2.09-5.1c-0.94-1.27-1.48-2.67-1.64-4.18c-0.02-0.22-0.14-0.43-0.22-0.63c-1.43,0.23-1.41,0.25-2.08,0.72
		c-1.65,1.16-2.67,2.74-3.23,4.45c-0.85,2.6-2.15,5.01-3.53,7.41c-0.36,0.63-0.64,1.31-0.83,2c-0.28,0.98-0.47,1.99-0.65,2.99
		c-0.11,0.65-0.19,1.3-0.19,1.96c0.01,1.01,0.08,2.03,0.17,3.04c0.13,1.61,0.35,3.23,1.13,4.7c0.76,1.46,1.66,2.86,2.59,4.24
		c0.87,1.3,1.52,2.66,1.82,4.15c0.03,0.17,0.31,0.31,0.64,0.61c0.25-0.82,0.5-1.44,0.62-2.07c0.4-2.03,0.18-4.04-0.28-6.04
		c-0.13-0.58-0.18-1.17-0.24-1.76c-0.01-0.07,0.15-0.2,0.25-0.22c0.11-0.02,0.29,0.02,0.35,0.09c0.15,0.19,0.28,0.4,0.36,0.62
		c0.77,2.25,1.17,4.53,0.94,6.89c-0.02,0.24-0.27,0.52,0.1,0.73c1.4-1.43,1.89-2.94,1.13-4.77c-0.56-1.35-0.69-2.8-0.53-4.24
		c0.37-3.33,0.93-6.63,1.95-9.86c0.25-0.79,0.65-1.57,1.1-2.29C91.72,31.06,92.54,29.97,93.38,28.77z M79.27,114.81
		c-0.75,1.16-1.49,2.35-2.25,3.53c-1.92,2.98-3.34,6.1-4.08,9.47c-0.48,2.19-0.8,4.36-0.2,6.56c1.02,3.72,1.6,7.5,1.9,11.31
		c0.01,0.09,0.16,0.17,0.32,0.33c2.61-1.19,4.72-2.91,6.21-5.15c1.61-2.43,2.64-5.08,3.45-7.8c0.8-2.69,0.91-5.42,0.82-8.17
		c-0.03-0.83-0.15-1.66-0.34-2.48c-0.43-1.87-0.93-3.72-1.42-5.58c-0.08-0.29-0.15-0.6-0.33-0.84c-0.11-0.15-0.4-0.24-0.62-0.28
		c-0.06-0.01-0.27,0.26-0.26,0.4c0.01,0.89,0.11,1.79,0.09,2.68c-0.01,0.7,0.12,1.45-0.6,2c-0.57-0.78-0.59-0.78-0.62-1.43
		c-0.06-0.95-0.06-1.91-0.14-2.86C81.07,115.22,81.01,115.19,79.27,114.81z M12.94,71.61c0.23,0.2,0.37,0.42,0.59,0.51
		c1.87,0.83,3.75,1.64,5.64,2.44c0.85,0.36,1.71,0.69,2.58,1.02c1.87,0.71,3.68,1.49,5.38,2.48c0.27,0.16,0.63,0.21,0.95,0.3
		c2.05,0.61,4.09,1.24,6.14,1.82c1.36,0.38,2.75,0.65,4.19,0.59c1.75-0.07,3.51-0.2,5.26-0.27c1.31-0.06,2.52-0.34,3.69-0.87
		c2.16-0.96,4.44-1.39,6.86-0.93c0.03,0.01,0.07-0.06,0.23-0.19c-1.25-0.62-2.43-1.28-3.78-1.6c-1.37-0.32-2.75-0.61-4.14-0.82
		c-1.38-0.2-2.81,0.18-4.38-0.13c0.22-0.27,0.33-0.54,0.51-0.59c0.58-0.15,1.18-0.25,1.78-0.32c3.13-0.33,6.02,0.45,8.83,1.55
		c0.41,0.16,0.73,0.52,1.41,0.35c-0.93-1.14-1.99-2.07-3.35-2.77c-0.32,0.02-0.66,0.02-0.99,0.07c-2.04,0.31-4.03,0.1-6.04-0.26
		c-1.61-0.29-3.1-0.83-4.6-1.36c-2.6-0.93-4.92-2.22-6.76-4.12c-0.71-0.73-1.56-1.08-2.65-1.09c-2.73-0.03-5.39,0.23-7.85,1.4
		c-0.53,0.25-1.11,0.45-1.69,0.61C18.18,70.16,15.62,70.86,12.94,71.61z M58.67,70.55c0.06-0.13,0.12-0.26,0.18-0.38
		c-0.2-0.12-0.39-0.28-0.62-0.35c-0.63-0.2-1.27-0.4-1.92-0.55c-4.45-1.05-8.79-2.33-12.79-4.4c-1.77-0.91-3.36-1.99-4.55-3.49
		c-0.27-0.34-0.6-0.65-0.9-0.97c-1.16-1.24-2.24-2.54-2.95-4.04c-0.31-0.66-0.69-1.3-1.03-1.95c-0.3-0.58-0.8-0.95-1.46-1.17
		c-0.95-0.31-1.89-0.65-2.85-0.93c-3.64-1.04-7.4-1.35-11.19-1.41c-0.1,0-0.2,0.11-0.31,0.18c-0.09,0.31,0.22,0.4,0.41,0.53
		c1.31,0.96,2.37,2.11,3.31,3.37c1.86,2.49,3.84,4.9,6.24,7.02c1.91,1.68,3.94,3.28,5.68,5.09c1.87,1.95,4.28,3.1,6.82,4.03
		c3.48,1.28,7.11,1.87,10.9,1.08c1.81-0.38,3.63-0.31,5.37,0.36c0.24,0.09,0.5,0.13,0.72,0.18c0.48-0.7,0.5-0.87,0.01-1.02
		c-1.78-0.53-3.48-1.32-5.42-1.39c-1.37-0.05-2.67-0.35-3.88-0.93c-0.25-0.12-0.42-0.39-0.85-0.82c0.65,0.05,0.96,0.05,1.27,0.1
		c1.06,0.18,2.11,0.39,3.17,0.57c1.26,0.21,2.52,0.39,3.77,0.62C56.77,70.08,57.71,70.33,58.67,70.55z M71.15,59.22
		c-0.24-1.76-0.55-3.26-1.97-4.49c-1.98-1.71-3.2-3.82-3.64-6.27c-0.31-1.77-0.69-3.53-1.53-5.18c-0.25-0.48-0.38-1.03-0.43-1.56
		c-0.14-1.39-1.03-2.3-2.3-2.98c-1.03-0.56-2.08-1.1-3.14-1.62c-1-0.49-2.04-0.93-3.05-1.41c-1.07-0.51-2.17-0.99-3.18-1.58
		c-0.98-0.58-1.87-1.28-2.95-2.03c-0.07,0.92-0.1,1.73-0.2,2.53c-0.41,3.27,0.32,6.41,1.39,9.51c0.89,2.56,2.65,4.69,4.61,6.67
		c1.64,1.66,3.35,3.33,5.67,4.27c2.72,1.09,5.25,2.44,7.68,3.97c0.22,0.14,0.44,0.28,0.68,0.39c0.2,0.1,0.44,0.29,0.65-0.09
		c-1.22-1.13-2.49-2.27-2.98-4.14C68.63,56.15,69.23,58.17,71.15,59.22z M91.63,126.03c-0.2-0.39-0.38-0.6-0.38-0.8
		c0-0.77-0.06-1.57,0.11-2.32c0.52-2.34,1.13-4.67,1.68-7c0.04-0.16-0.05-0.34-0.09-0.54c-0.56,0.11-1.07,0.21-1.54,0.31
		c-0.26,0.5-0.49,0.93-0.72,1.36c-1.04,2.01-2.07,4.02-3.13,6.02c-0.52,1-0.67,2.04-0.7,3.13c-0.05,1.73-0.17,3.47-0.44,5.18
		c-0.21,1.33-0.18,2.61,0.07,3.92c0.45,2.44,1.67,4.66,2.61,6.96c0.02,0.05,0.16,0.06,0.33,0.12c-0.04-0.35-0.04-0.66-0.12-0.93
		c-0.35-1.09-0.76-2.17-1.08-3.26c-0.18-0.63-0.27-1.28-0.34-1.93c-0.02-0.17,0.19-0.37,0.4-0.75c0.28,0.45,0.48,0.67,0.57,0.93
		c0.22,0.69,0.31,1.42,0.59,2.08c0.85,1.99,1.05,4.06,1.15,6.16c0.06,1.31,0.31,2.61,0.56,3.9c0.25,1.29,0.59,2.57,0.91,3.85
		c0.04,0.16,0.2,0.3,0.33,0.48c0.64-0.31,1.09-0.76,1.41-1.27c0.55-0.89,1.14-1.77,1.53-2.71c0.88-2.14,1.8-4.24,3.22-6.15
		c0.48-0.64,0.77-1.39,1.12-2.1c0.4-0.81,0.45-1.58-0.15-2.38c-0.59-0.79-1.1-1.65-1.56-2.51c-1.3-2.44-2.21-5.01-2.69-7.67
		c-0.43-2.36-0.74-4.74-0.23-7.14c0.31-1.47,0.51-2.95,0.76-4.43c0.11-0.62,0.24-1.24-0.04-1.82c-0.87,0-1.25,0.3-1.36,0.95
		c-0.17,1-0.31,2.02-0.6,3c-0.61,2.08-1.32,4.14-1.63,6.28C92.15,125.25,91.89,125.54,91.63,126.03z M111.71,107.13
		c0.19,0.31,0.24,0.42,0.33,0.51c0.96,0.92,1.99,1.79,2.89,2.75c1.86,1.99,3.21,4.26,4.56,6.54c1.01,1.71,1.41,3.6,2.1,5.4
		c0.87,2.26,1.6,4.56,2.26,6.88c0.73,2.57,2.61,4.25,5.09,5.53c1.17,0.6,2.35,1.18,3.52,1.77c0.34,0.17,0.67,0.35,1.18,0.62
		c0.04-0.53,0.16-0.88,0.08-1.19c-0.43-1.62-0.65-3.29-1.36-4.86c-0.86-1.89-1.5-3.84-1.32-5.93c0.03-0.29-0.02-0.61,0.46-0.79
		c0.42,0.3,0.53,0.74,0.59,1.21c0.08,0.59,0.14,1.19,0.28,1.77c0.05,0.22,0.03,0.61,0.63,0.55c-0.06-1.49-0.04-2.97-0.37-4.45
		c-0.93-4.11-2.92-7.82-5.69-11.18c-1.94-2.35-4.32-4.31-7.58-5.14c-1.82-0.46-3.63-0.94-5.38-1.57c-0.55-0.2-1.14-0.31-1.85-0.5
		c-0.02,0.28-0.15,0.58-0.04,0.68c0.38,0.32,0.81,0.64,1.29,0.83c1.05,0.41,2.13,0.75,3.21,1.1c1.79,0.58,3.4,1.45,4.89,2.51
		c0.3,0.21,0.61,0.5,0.23,1c-0.39-0.17-0.79-0.33-1.18-0.52c-1.06-0.51-2.08-1.11-3.19-1.54
		C115.54,108.41,113.71,107.83,111.71,107.13z M59.58,68.7c-0.97-1.49-3.14-1.91-4.3-3.81c1.09,0.44,1.82,0.71,2.51,1.03
		c0.73,0.34,1.21,1.07,2.19,1.18c-0.25-0.84-0.42-1.59-0.7-2.32c-0.24-0.61-0.43-1.29-1.24-1.55c-1.99-0.64-3.62-1.84-5.41-2.79
		c-1.88-1-3.38-2.36-4.63-3.94c-1.27-1.6-1.93-3.42-2.35-5.3c-0.28-1.25-0.97-2.02-2.27-2.51c-1.3-0.49-2.55-1.09-3.8-1.69
		c-0.44-0.21-1.06-0.3-1.22-1.1c2.33,0.2,4.16,1.31,6.18,2.18c0.24-0.73,0.19-1.28-0.52-1.62c-0.71-0.34-1.44-0.66-2.19-0.91
		c-2.55-0.87-5.24-1.12-7.94-1.28c-1.35-0.08-2.7-0.08-4.05-0.09c-0.29,0-0.58,0.13-1.01,0.24c0.98,1.4,1.8,2.7,2.75,3.92
		c2.06,2.66,3.95,5.41,5.47,8.35c0.14,0.27,0.3,0.54,0.49,0.78c1.86,2.4,4.17,4.38,7.06,5.79c1.89,0.92,3.83,1.77,5.76,2.62
		c0.66,0.29,1.34,0.59,2.05,0.75C54.83,67.2,57.18,67.9,59.58,68.7z M118.3,81.4c1.54,0.82,2.84,1.55,4.18,2.21
		c1.18,0.58,2.37,1.18,3.73,1.36c2.54,0.34,5.1,0.58,7.67,0.17c2.53-0.4,5.06-0.77,7.58-1.2c0.65-0.11,1.3-0.35,1.87-0.64
		c1.41-0.71,2.76-1.49,4.16-2.21c1.11-0.57,2.19-1.22,3.38-1.61c2.38-0.77,4.46-1.97,6.47-3.28c0.22-0.14,0.68-0.16,0.55-0.58
		c-1.2,0.41-2.37,0.84-3.57,1.21c-1.21,0.37-2.46,0.63-3.66,1.02c-1.77,0.57-2.65,0.77-3.6,0.67c1.61-1.43,3.65-2.04,5.75-2.42
		c1.62-0.29,3.07-0.89,4.52-1.53c0.22-0.1,0.5-0.21,0.42-0.68c-1.83-0.01-3.66-0.49-5.54-0.37c-0.93,0.06-1.88,0.23-2.78,0.46
		c-1.55,0.41-3.07,0.91-4.6,1.38c-2.26,0.68-4.6,0.97-6.96,1.01c-1.69,0.03-3.37-0.13-5.06-0.17c-3.46-0.07-6.9,0.13-10.22,1.08
		c-1.61,0.46-3.11,1.17-4.4,2.16c-0.13,0.1-0.17,0.29-0.31,0.56c1,0.11,1.71-0.47,2.54-0.52c0.81-0.05,1.61-0.16,2.42-0.19
		c0.88-0.03,1.76-0.02,2.64,0.02c1.26,0.06,1.41,0.13,2.32,0.92c-0.89,0.27-1.75,0.16-2.6,0.17c-1.15,0.02-2.3-0.03-3.44,0.05
		C120.65,80.55,119.49,80.63,118.3,81.4z M140.92,36.23c-1.99-0.01-3.79-0.09-5.6,0.18c-2.94,0.44-5.22,1.89-7.24,3.69
		c-0.87,0.77-1.8,1.43-2.84,2.01c-0.8,0.44-1.57,0.93-2.33,1.43c-0.43,0.28-0.86,0.6-0.92,1.13c-0.13,1.15-0.72,2.17-1.25,3.2
		c-1.25,2.44-2.95,4.58-5.41,6.16c-2.02,1.29-4.11,2.51-6.23,3.69c-0.73,0.41-1.28,0.8-1.45,1.59c-0.13,0.58-0.46,1.12-0.68,1.68
		c-0.09,0.24-0.13,0.5-0.2,0.75c0.43-0.14,0.63-0.37,0.85-0.58c1.02-0.96,2.03-1.92,3.08-2.84c0.24-0.21,0.62-0.52,1.05-0.06
		c-0.23,0.71-0.95,1.11-1.45,1.66c-0.51,0.55-1.13,1.03-1.64,1.58c-0.49,0.52-1.08,1.02-1.16,1.99c0.41-0.19,0.62-0.28,0.83-0.38
		c0.53-0.25,1.02-0.59,1.59-0.76c3.31-0.98,6.16-2.68,8.96-4.45c0.49-0.31,0.93-0.71,1.29-1.14c0.89-1.05,1.7-2.15,2.57-3.21
		c0.63-0.77,1.23-1.59,1.99-2.25c3.13-2.74,6.47-5.24,10.27-7.24c1.47-0.78,2.67-1.79,3.43-3.2c0.64-1.18,1.4-2.31,2.08-3.48
		C140.69,37.08,140.75,36.74,140.92,36.23z M45.37,90.9c0.34-0.72,0.96-0.95,1.5-1.24c0.58-0.31,1.14-0.65,1.76-0.88
		c0.62-0.24,1.28-0.37,1.93-0.53c0.63-0.15,1.28-0.27,2.17-0.46c-0.36-0.3-0.52-0.56-0.68-0.56c-0.39,0-0.79,0.07-1.16,0.19
		c-1.59,0.51-3.17,1.03-4.74,1.58c-1.99,0.69-4.04,0.98-6.16,0.79c-1.14-0.1-2.27-0.31-3.4-0.45c-3.15-0.38-6.3-0.72-9.31-1.69
		c-0.63-0.2-1.29-0.31-1.99-0.11c-2.7,0.77-5.05,2.04-6.92,3.9c-1.2,1.2-2.15,2.59-3.17,3.93c-0.23,0.31-0.63,0.64-0.28,1.2
		c0.49-0.11,0.99-0.25,1.5-0.34c0.6-0.1,1.23-0.17,1.77,0.15c0.97,0.58,2.06,0.58,3.13,0.44c2.15-0.27,4.31-0.19,6.47-0.21
		c2.56-0.02,5.12,0.36,7.69-0.04c3.81-0.58,7.61-1.13,10.64-3.55c0.6-0.48,1.34-0.82,1.93-1.3c1.03-0.84,2.24-1.31,3.55-1.64
		c0.32-0.08,0.64-0.17,0.94-0.29c0.09-0.04,0.19-0.22,0.16-0.29c-0.06-0.16-0.19-0.41-0.32-0.42C52,89.03,51.57,89,51.2,89.11
		c-1.15,0.34-2.28,0.75-3.41,1.13C47.06,90.49,46.37,90.9,45.37,90.9z M10.57,77.52c0.33,0.83,0.79,1.38,1.42,1.85
		c1.1,0.81,2.33,1.43,3.6,1.97c2.3,0.98,4.67,1.87,6.93,2.92c2.97,1.39,6.14,2.16,9.41,2.64c2.2,0.32,4.42,0.47,6.62,0.8
		c2.96,0.45,5.77,0.06,8.55-0.82c1.78-0.56,3.6-0.99,5.4-1.49c0.08-0.02,0.12-0.16,0.19-0.25c-0.1-0.08-0.18-0.21-0.28-0.24
		c-1.71-0.34-3.42-0.7-5.2-0.32c-0.78,0.17-1.6,0.22-2.41,0.28c-2.44,0.18-4.87,0.25-7.19-0.61c-0.24-0.09-0.47-0.22-0.68-0.37
		c-0.08-0.06-0.11-0.22-0.09-0.31c0.03-0.09,0.14-0.2,0.25-0.24c0.11-0.04,0.27-0.06,0.39-0.02c2.5,0.72,5.05,0.64,7.62,0.4
		c2.27-0.22,4.55-0.64,6.85-0.11c0.13,0.03,0.28,0.04,0.4,0.01c0.18-0.05,0.45-0.13,0.48-0.24c0.05-0.2,0.05-0.55-0.09-0.64
		c-0.87-0.57-1.79-1.07-2.68-1.61c-0.61-0.37-1.2-0.44-1.89-0.13c-1.21,0.55-2.52,0.83-3.88,0.94c-0.6,0.05-1.19,0.21-1.76,0.39
		c-2.23,0.7-4.52,0.81-6.78,0.29c-1.89-0.43-3.72-1.05-5.57-1.61c-0.83-0.25-1.7-0.46-2.44-0.86c-2.89-1.56-6.11-2.52-9.06-3.97
		c-0.39-0.19-0.92-0.35-1.34-0.29C15.07,76.2,12.78,76.42,10.57,77.52z M118.1,95.02c-0.45,0.64-0.32,1.17,0.26,1.61
		c0.36,0.27,0.74,0.53,1.15,0.72c2.92,1.36,5.79,2.82,8.89,3.87c3.67,1.24,7.46,1.67,11.34,1.17c2.95-0.38,5.88-0.69,8.87-0.61
		c2.63,0.07,5.03-0.77,7.34-1.79c0.33-0.14,0.79-0.26,0.75-0.73c-1.15-0.31-2.36-0.49-3.41-0.95c-2.29-1-4.74-1.36-7.2-1.72
		c-2-0.29-3.99-0.46-6.03-0.12c-1.64,0.27-3.33,0.45-5.04,0.21c-2.9-0.41-5.63-1.21-8.19-2.48c-1.12-0.55-2.22-1.14-3.34-1.69
		c-0.29-0.14-0.62-0.29-0.93-0.3c-1.07-0.04-2.14-0.01-3.2-0.01c-0.17,0.32-0.31,0.52-0.39,0.74c-0.1,0.26-0.14,0.54-0.23,0.87
		c0.67,0.21,1.24,0.38,1.8,0.56c1.14,0.36,2.29,0.72,3.42,1.11c0.45,0.15,0.82,0.41,0.87,1c-1.23,0.13-2.14-0.64-3.21-0.86
		C120.46,95.39,119.33,94.95,118.1,95.02z M119.47,85.94c1.23,0.38,2.5-0.2,3.56,0.8c-0.75,0.15-1.35,0.27-2.35,0.47
		c1.06,0.32,1.74,0.51,2.4,0.73c0.7,0.23,1.4,0.46,2.08,0.72c0.68,0.26,1.35,0.54,1.62,1.33c-0.33,0.01-0.62,0.09-0.85,0.03
		c-0.83-0.24-1.67-0.48-2.46-0.82c-0.99-0.43-2.04-0.62-3.11-0.76c-0.16-0.02-0.48,0.12-0.49,0.2c-0.02,0.21,0.02,0.53,0.17,0.61
		c0.8,0.44,1.68,0.78,2.47,1.23c2.45,1.4,5.06,2.51,7.71,3.57c2.79,1.11,5.65,1.51,8.7,1.18c2.62-0.28,5.26-0.3,7.88,0.18
		c0.91,0.17,1.85,0.24,3.11,0.41c-0.99-1.02-1.75-1.84-2.55-2.63c-0.84-0.83-1.95-1.43-2.65-2.33c0.34-0.46,0.68-0.37,0.94-0.18
		c0.82,0.62,1.61,1.27,2.42,1.89c0.16,0.12,0.35,0.41,0.63,0.04c-0.61-1.06-1.44-1.99-2.46-2.79c-1.11-0.87-2.29-1.69-3.33-2.62
		c-1.13-1-2.4-1.21-3.89-0.94c-2.59,0.46-5.21,0.74-7.86,0.61c-1.14-0.06-2.28-0.22-3.42-0.3c-1.83-0.14-3.6-0.44-5.25-1.24
		C121.45,84.82,120.82,84.99,119.47,85.94z M110.15,141.32c-0.63-0.56-1.21-1.06-1.77-1.56c-1.91-1.71-3.61-3.54-4.64-5.8
		c-0.58-1.27-1.3-2.49-1.93-3.74c-0.49-0.98-1.06-1.95-1.36-2.97c-0.37-1.26-0.57-2.58-0.72-3.88c-0.35-2.99,0.09-5.96,0.53-8.92
		c0.07-0.45,0.31-0.92-0.04-1.44c-0.33,0.06-0.64,0.12-1.05,0.19c0,0.93,0.01,1.83,0,2.72c0,0.51-0.1,1-0.65,1.4
		c-0.9-0.98-0.05-2.19-0.74-3.08c-0.42,0.02-0.48,0.24-0.52,0.49c-0.26,1.83-0.56,3.66-0.75,5.49c-0.15,1.42-0.22,2.85-0.23,4.28
		c-0.02,2.6,0.79,5.07,1.65,7.52c0.6,1.7,1.3,3.39,2.39,4.92c0.96,1.36,1.86,2.77,2.87,4.11c0.68,0.91,1.12,1.9,1.53,2.91
		c0.88,2.19,1.78,4.37,2.68,6.56c0.04,0.09,0.17,0.14,0.36,0.3c0.54-0.91,1.09-1.77,1.26-2.78
		C109.38,145.85,109.75,143.67,110.15,141.32z M17.33,101.45c0.6,0.5,1.3,0.5,1.97,0.52c1.28,0.03,2.57,0.04,3.85,0.02
		c2.64-0.05,5.31-0.29,7.88,0.29c3.3,0.74,6.55,0.66,9.81-0.03c0.46-0.1,0.93-0.16,1.38-0.28c0.38-0.11,0.77-0.24,1.1-0.43
		c2.01-1.21,4-2.44,5.98-3.68c1.21-0.76,2.37-1.59,3.83-1.98c0.23-0.06,0.53-0.15,0.3-0.54c-0.23,0.02-0.49,0.01-0.74,0.07
		c-1.1,0.28-2.2,0.57-3.29,0.89c-0.63,0.19-1.23,0.47-2.11,0.08c1.32-1.32,3.21-1.47,4.9-2.24c-1.05-0.44-1.95-0.82-2.94-1.24
		c-0.51,0.3-1.06,0.55-1.5,0.9c-1.16,0.93-2.5,1.62-3.78,2.4c-2.37,1.44-5.07,1.99-7.83,2.16c-2.35,0.14-4.73-0.04-7.08-0.2
		c-2.98-0.21-5.93-0.27-8.74,0.3C19.26,99.51,18.29,100.48,17.33,101.45z M72.54,144.04c-2.37-0.47-4.66-0.54-6.68,0.95
		c-1.21,0.89-2.55,1.29-4.12,0.95c-1.36,1.47-2.46,3.01-3.43,4.79c-0.35-0.33-0.66-0.5-0.76-0.74c-0.25-0.55-0.39-1.14-0.59-1.71
		c-0.09-0.26-0.23-0.5-0.34-0.77c-2.89,1.3-2.75,1.58-4.58,3.8c1,0.43,2.09,0.44,3.14,0.51c2.71,0.18,5.34,0.66,7.94,1.34
		c1.69,0.45,3.33,0.97,4.63,2.1c0.17,0.15,0.46,0.2,0.61,0.26c1.67-2.4,3.29-4.72,4.85-6.96c-0.13-0.79-0.27-1.48-0.34-2.18
		C72.81,145.68,73.12,144.95,72.54,144.04z M64.3,64.66c0.02-0.37,0.13-0.64,0.03-0.74c-1.1-0.97-2.23-1.91-3.34-2.87
		c-0.26-0.23-0.44-0.53-0.76-0.93c0.41,0.02,0.61,0,0.78,0.05c1.77,0.54,2.74,2.04,4.43,2.85c-0.46-1.57-0.89-3.05-1.35-4.64
		c-0.46-0.16-1.01-0.39-1.58-0.55c-3.7-0.99-6.57-2.99-8.92-5.64c-1.3-1.46-2.43-3.02-3.43-4.64c-1.62-2.64-2.81-5.42-3.01-8.47
		c-0.06-0.9-0.11-1.83-0.45-2.88c-0.56,0.88-0.58,1.66-0.63,2.42c-0.09,1.25-0.21,2.51-0.2,3.76c0.01,1.43-0.05,2.89,0.27,4.28
		c0.56,2.45,1.36,4.86,2.56,7.16c0.69,1.33,1.63,2.49,2.79,3.48c2.33,2,4.87,3.75,7.9,4.92C61.03,62.85,62.72,63.47,64.3,64.66z
		 M49.46,146.84c0.4-0.68,0.74-1.25,1.06-1.83c0.83-1.51,1.78-2.95,3.19-4.11c1.32-1.08,2.17-2.34,2.39-3.98
		c0.2-1.53,0.83-3.02,1.04-4.55c0.32-2.39,0.91-4.7,1.83-6.96c0.04-0.09-0.05-0.22-0.1-0.44c-1.42,1.16-2.81,2.26-4.15,3.41
		c-1.43,1.23-3.33,1.8-4.87,2.66c-0.72,1.55-1.46,2.96-2.03,4.42c-0.98,2.52-1.42,5.11-0.63,7.75
		C47.59,144.55,48.29,145.74,49.46,146.84z M87.2,188.97c0.86-0.52,1.47-0.88,2.08-1.25c1.44-0.87,3.06-1.3,4.77-1.3
		c2.02,0.01,4.05,0.17,5.95,0.91c1.74,0.68,3.56,1.1,5.48,1.17c1.82,0.06,3.66,0.1,5.46,0.34c3.4,0.46,6.77,1.07,10.16,1.6
		c0.31,0.05,0.62,0.04,0.97,0.05c-0.06-0.21-0.06-0.36-0.14-0.43c-0.24-0.21-0.49-0.41-0.76-0.57c-1.87-1.1-4.01-1.7-6.02-2.55
		c-1.41-0.6-2.9-0.98-4.48-1.06c-0.46-0.02-0.94-0.13-1.37-0.28c-2.37-0.79-4.83-1.13-7.35-1.06c-2.12,0.06-4.18-0.16-6.2-0.72
		c-1.87-0.51-3.74-1.02-5.58-1.6c-0.85-0.27-1.69-0.37-2.58-0.37c-0.7,0-1.14,0.29-1.36,0.87c-0.37,0.99-0.49,1.99-0.17,3
		C86.37,186.76,86.77,187.78,87.2,188.97z M77.44,154.63c-0.19,1.34-0.39,2.76-0.6,4.18c-0.1,0.65-0.25,1.29-0.37,1.93
		c-0.61,3.17-1.21,6.34-1.82,9.52c-0.05,0.23-0.13,0.46-0.18,0.7c-0.16,0.76-0.32,1.52-0.47,2.28c-0.1,0.47-0.18,0.94-0.3,1.4
		c-0.14,0.54-0.4,0.95-1.09,1.16c-0.4,0.12-0.45,0.56,0.12,0.85c0.47-0.28,0.95-0.6,1.46-0.88c0.8-0.44,1.57-0.96,2.43-1.25
		c1.02-0.34,1.42-0.91,1.63-1.82c0.4-1.75,0.95-3.47,1.45-5.2c0.52-1.85,1.14-3.68,1.56-5.55c0.74-3.34,1.36-6.69,2-10.04
		c0.1-0.55,0.31-1.12,0.06-1.78C81.29,151.67,79.38,153.14,77.44,154.63z M72.15,173.97c0.78-0.81,0.45-1.65,0.68-2.37
		c0.31-0.96,0.13-1.87-0.14-2.81c-0.74-2.54-1.39-5.1-2.14-7.64c-0.62-2.08-0.7-4.12,0.25-6.14c0.07-0.16,0.26-0.46-0.27-0.53
		c-0.32,0.77-0.61,1.56-0.99,2.31c-0.14,0.29-0.5,0.49-0.72,0.7c-0.26-0.09-0.42-0.11-0.5-0.19c-2.25-2-5.08-2.9-8.14-3.34
		c-2.6-0.37-5.22-0.68-7.83-0.95c-2.43-0.24-4.86-0.25-7.26,0.28c-1.9,0.42-3.79,0.85-5.69,1.29c-0.07,0.02-0.08,0.19-0.12,0.29
		c0.04,0.05,0.07,0.12,0.12,0.14c3.89,1.83,8.07,2.26,12.39,1.96c1.35-0.1,2.68-0.3,4.03-0.39c2.03-0.14,4.05-0.14,6.06,0.24
		c0.92,0.17,1.85,0.33,2.78,0.42c2.32,0.23,3.86,1.34,4.71,3.22c0.28,0.61,0.42,1.26,0.6,1.9c0.36,1.21,0.65,2.44,1.07,3.64
		c0.84,2.36,1.37,4.74,1.04,7.23C72.07,173.41,72.12,173.59,72.15,173.97z M117.09,76.34c1.42,0.19,2.73,0.19,4.05-0.21
		c1.91-0.59,3.84-1.15,5.88-1.3c1.68-0.12,3.37-0.16,4.94-0.81c0.12-0.05,0.27-0.03,0.4-0.05c2.67-0.37,4.97-1.49,7.15-2.83
		c2.27-1.4,4.3-3.06,6.26-4.79c2.55-2.25,5.54-3.78,9.13-4.33c0.2-0.03,0.36-0.22,0.74-0.47c-0.72-0.16-1.17-0.26-1.62-0.36
		c-0.62-0.14-1.19-0.05-1.74,0.26c-3.01,1.72-6.1,3.31-9.25,4.81c-2.14,1.01-4.25,2.09-6.48,2.94c-2.47,0.94-5.04,1.69-7.59,2.46
		c-3.1,0.94-6.29,1.36-9.57,1.25c-0.4-0.01-0.8,0-1.15,0c-0.5,0.52-0.93,0.97-1.41,1.47C116.91,75.01,117,75.65,117.09,76.34z
		 M113.84,70.77c0.61,0.3,0.83,0.49,1.05,0.5c1.82,0.14,3.63,0.26,5.45,0.36c0.47,0.03,0.95-0.01,1.41-0.06
		c2.01-0.21,3.99-0.48,5.91-1.13c2.39-0.81,4.86-1.44,7.27-2.21c2.03-0.65,3.94-1.53,5.8-2.51c2.49-1.32,5.13-2.4,7.61-3.72
		c2.14-1.14,4.31-2.22,6.56-3.18c0.27-0.11,0.46-0.23,0.33-0.6c-0.95-0.15-1.95-0.27-2.94-0.47c-1.06-0.22-2-0.07-2.86,0.51
		c-0.53,0.36-1.14,0.65-1.64,1.04c-1.02,0.78-2.02,1.59-2.98,2.43c-1.5,1.32-3.15,2.41-5.09,3.19c-2.28,0.92-4.63,1.64-7,2.32
		c-4.6,1.33-9.34,1.89-14.15,1.93c-1.41,0.01-2.83-0.15-4.25-0.19c-0.33-0.01-0.76-0.16-1.1,0.33c0.31,0.09,0.54,0.18,0.77,0.22
		c0.52,0.09,1.06,0.14,1.58,0.26c0.12,0.03,0.17,0.28,0.29,0.5C115.3,70.42,114.8,70.54,113.84,70.77z M66.55,179.92
		c-0.5-0.47-0.86-0.81-1.23-1.15c-2.28-2.15-5.25-2.81-8.43-2.95c-0.88-0.04-1.77,0.08-2.48,0.63c-1.56,1.22-2.62,2.73-3.1,4.51
		c-0.17,0.62,0.01,1.31-0.04,1.96c-0.06,0.69-0.2,1.37-0.32,2.08c0.31,0,0.51,0.02,0.69,0c1.85-0.21,3.45-1.02,5.1-1.68
		c3.01-1.2,5.95-2.56,9.23-3.12C66.12,180.16,66.23,180.07,66.55,179.92z M75.41,153.94c1.05-0.45,1.97-0.99,2.84-1.63
		c3.06-2.24,5.27-5.1,7.46-7.97c0.37-0.49,0.59-1.07,0.89-1.6c0.33-0.57,0.29-1.14,0.04-1.72c-0.45-1.06-0.86-2.13-1.32-3.19
		c-0.1-0.23-0.31-0.42-0.55-0.74c-1.2,2.07-1.85,4.2-3.44,5.85c-1.62,1.68-3.44,3.2-5.51,4.3C75.2,149.66,75.03,152.46,75.41,153.94
		z M110.31,24.2c-0.34,0.19-0.69,0.37-1.03,0.56c-2.31,1.25-2.65,1.91-2.23,4.26c0.19,1.06,0.35,2.12,0.51,3.18
		c0.17,1.14-0.05,2.24-0.45,3.33c-0.56,1.53-1.01,3.08-1.5,4.63c-0.07,0.21-0.05,0.44-0.1,0.95c0.79-0.65,1.34-1.13,1.93-1.58
		c0.67-0.5,1.36-0.97,2.05-1.45c0.63-0.44,1.26-0.88,1.85-1.29c0.34-2.25,0.84-4.42,0.63-6.64c-0.16-1.67-0.03-3.33,0.22-4.99
		c0.03-0.19,0-0.39-0.01-0.72c-1.62,1.01-1.76,2.79-3.14,3.75c-0.14-0.15-0.3-0.23-0.3-0.32C108.73,26.48,109.86,25.51,110.31,24.2z
		 M72.49,20.3c-0.09,1.3-0.31,2.58,0.12,3.86c0.11,0.34,0.29,0.72,0.22,1.05c-0.28,1.16,0.25,2.07,0.95,2.99
		c0.53,0.69,0.91,1.47,1.42,2.17c0.81,1.12,1.3,2.42,2.34,3.46c0.7-1.5,1.37-2.93,2.07-4.44c-0.36-1.62-1.53-2.92-2.82-4.17
		c-1.53-1.49-3.31-2.83-4.01-4.87C72.77,20.32,72.66,20.33,72.49,20.3z M118.05,118.04c-0.32-0.73-0.44-1.11-0.65-1.46
		c-0.63-1.05-1.27-2.09-1.94-3.12c-0.39-0.62-0.77-1.25-1.26-1.81c-1.07-1.22-2.22-2.39-3.33-3.57c-0.17-0.18-0.34-0.37-0.53-0.54
		c-0.38-0.32-0.82-0.35-1.28-0.09c-0.46,0.26-0.63,0.63-0.41,1.06c0.42,0.81,0.9,1.6,1.31,2.41c0.75,1.48,1.75,2.81,2.91,4.05
		C114.15,116.33,115.78,117.21,118.05,118.04z M73.41,165.87c1.38-3.06,1.56-6.22,2.24-9.3c0.05-0.22-0.02-0.46-0.04-0.8
		c-0.63,0.22-1.17,0.4-1.72,0.59c-0.94-0.83-0.25-1.86-0.57-2.81c-0.42,0.16-0.57,0.44-0.68,0.7c-0.26,0.61-0.48,1.24-0.73,1.86
		c-0.47,1.16-0.47,2.35-0.23,3.54c0.22,1.12,0.48,2.23,0.78,3.33C72.73,163.95,73.09,164.9,73.41,165.87z M80.8,176.26
		c-0.73-1.18-1.1-1.39-2.07-1.01c-2.28,0.89-4.44,1.95-6.31,3.42c-0.18,0.14-0.26,0.38-0.41,0.62
		C75.11,179.32,79.16,177.91,80.8,176.26z M101.05,53.28c0.23-1.24,0.38-2.05,0.54-2.86c0.16-0.84,0.34-1.68,0.54-2.71
		c-1.45,1.62-2.74,3.07-4.04,4.5c-0.31,0.35-0.54,0.72-0.43,1.15c0.37,1.39,0.77,2.78,1.19,4.16c0.02,0.08,0.33,0.08,0.66,0.15
		c0.07-0.89,0.21-1.7,0.18-2.53c-0.04-0.9-0.1-1.79-0.12-2.69c0-0.19,0.18-0.37,0.37-0.73C100.3,52.24,100.54,52.57,101.05,53.28z
		 M57.57,256.32c0.32-2.05,0.46-3.7,0.85-5.31c0.51-2.11,0.27-4.17-0.42-6.17c-0.68-1.97-1.02-3.94-1.01-5.98
		c0-0.21,0.08-0.49-0.35-0.59c-0.11,0.09-0.3,0.17-0.38,0.3c-0.83,1.35-0.22,2.64,0.2,3.94c0.13,0.39,0.34,0.77,0.44,1.17
		c0.21,0.87,0.3,1.77,0.55,2.63c0.5,1.7,0.53,3.4,0.33,5.14C57.62,252.92,57.26,254.4,57.57,256.32z M114.56,102.63
		c-0.28,0.56-0.9,0.97-1.01,1.7c2.24,0.46,4.31,1.21,6.8,1.52c-0.94-0.96-1.57-1.87-2.47-2.42c-0.79-0.49-1.89-0.58-2.86-0.84
		C114.95,102.57,114.88,102.59,114.56,102.63z M84.81,116.04c0.52,1.89,1.03,3.72,1.59,5.75c0.31-0.34,0.55-0.54,0.68-0.78
		c0.39-0.69,0.65-1.45,1.11-2.09c0.53-0.75,0.44-1.46,0.12-2.21c-0.13-0.3-0.34-0.51-0.81-0.32c0,0.32,0.01,0.68,0,1.03
		c-0.01,0.3-0.02,0.6-0.1,0.88c-0.04,0.13-0.26,0.3-0.41,0.31c-0.15,0.01-0.38-0.14-0.45-0.27c-0.14-0.26-0.22-0.55-0.28-0.84
		c-0.09-0.41-0.09-0.84-0.23-1.23C85.87,115.86,85.48,115.79,84.81,116.04z M66.44,111.42c-0.09,0.15-0.24,0.3-0.27,0.46
		c-0.24,1.55-0.94,2.95-1.64,4.37c-0.03,0.06,0.1,0.18,0.2,0.33c0.58-0.4,1.15-0.81,1.74-1.17c1.13-0.69,1.74-1.61,1.68-2.96
		c-0.39-0.28-0.84-0.63-1.31-0.96C66.75,111.43,66.59,111.44,66.44,111.42z M133.8,104.24c1.93,1.25,3.98,2.19,5.2,2.44
		C138.15,104.59,136.27,104.09,133.8,104.24z M154.75,105.1c0.2-0.97,0.01-1.73-0.54-2.57c-0.61,0.2-1.19,0.39-1.89,0.62
		C152.92,104.11,153.77,104.59,154.75,105.1z M58.22,108.73c1.2-0.31,2.09-0.46,2.78-1.19c-0.49-0.41-0.91-0.76-1.36-1.14
		C58.97,107.05,58.56,107.7,58.22,108.73z M56.32,73.99c-0.87-0.34-1.69-0.4-2.66,0.03c0.68,0.56,1.25,1.02,1.87,1.52
		c0.2-0.32,0.43-0.65,0.62-1C56.24,74.39,56.25,74.22,56.32,73.99z M51.5,98.68c1.17,0.01,2.02,0.11,2.93-0.08
		c-0.11-0.44-0.21-0.82-0.33-1.31C53.17,97.65,52.21,97.67,51.5,98.68z M89.89,55.27c-0.08-0.64-0.13-1.1-0.22-1.55
		c-0.02-0.09-0.17-0.2-0.27-0.22c-0.09-0.02-0.25,0.06-0.31,0.14c-0.39,0.48-0.62,1.01-0.64,1.74
		C88.9,55.35,89.26,55.32,89.89,55.27z M96.24,54.64c-0.73,0.17-0.79,0.68-0.88,1.26c0.47,0.37,0.95,0.74,1.71,1.33
		C96.83,56.12,96.84,55.32,96.24,54.64z M68.14,60.5c-0.69-0.43-1.25-0.77-2.19-0.85c0.24,0.63,0.42,1.09,0.65,1.68
		C67.17,61.02,67.61,60.79,68.14,60.5z M53.26,91.08c-0.88,0.38-1.66,0.32-2.27,1.04c0.85,0.13,1.5,0.55,2.38,0.27
		C53.33,92,53.31,91.67,53.26,91.08z M61.13,64.88c-0.07,0.7,0.33,1.12,0.89,1.61c0.29-0.36,0.5-0.64,0.71-0.91
		C62.35,65.04,61.86,64.83,61.13,64.88z M51.74,80.24c0.38,0.57,0.88,0.86,1.61,0.83c0.1,0,0.28-0.12,0.29-0.2
		c0.02-0.16,0.02-0.41-0.09-0.48C53.04,80.07,52.47,79.94,51.74,80.24z M76.59,115.77c0.74-0.36,0.92-0.81,0.99-1.43
		c-0.38-0.05-0.68-0.1-1.13-0.16C76.5,114.76,76.54,115.19,76.59,115.77z M78.52,56.22c0.18-0.01,0.36-0.02,0.54-0.03
		c-0.17-0.64,0-1.35-0.92-2.06C78.29,54.96,78.41,55.59,78.52,56.22z M104.47,60.47c0.06,0.48,0.25,0.74,0.73,0.75
		c0.35-0.37,0.63-0.74,0.24-1.29C105.07,60.14,104.75,60.32,104.47,60.47z M115.95,100.26c-0.21,0.64-0.48,1.01-0.38,1.24
		c0.15,0.34,0.6,0.39,0.95,0.09c0-0.12,0.04-0.25-0.01-0.34C116.43,101.03,116.29,100.84,115.95,100.26z M110.44,63.6
		c-0.62-0.12-1.02,0.19-1.35,0.53c-0.2,0.21-0.33,0.5,0.1,0.68C110,64.32,109.99,64.31,110.44,63.6z M108.1,110.09
		c-0.06-0.43-0.03-0.63-0.12-0.76c-0.12-0.18-0.34-0.31-0.52-0.45c-0.01-0.01-0.15,0.06-0.14,0.09c0.03,0.21,0.03,0.44,0.13,0.63
		C107.52,109.74,107.73,109.82,108.1,110.09z M119.61,84.08c-0.16-0.21-0.22-0.39-0.35-0.44c-0.11-0.05-0.3,0.03-0.45,0.05
		c0.07,0.15,0.09,0.34,0.21,0.43C119.11,84.18,119.32,84.1,119.61,84.08z M73.39,58.63c0-0.49-0.35-0.6-0.85-0.73
		C72.72,58.7,72.72,58.7,73.39,58.63z M90.11,115.83c-0.11-0.09-0.23-0.21-0.25-0.19c-0.13,0.07-0.25,0.16-0.33,0.27
		c-0.03,0.04,0.1,0.15,0.16,0.23C89.81,116.05,89.95,115.95,90.11,115.83z M70.09,112.89c-0.1-0.05-0.18-0.12-0.28-0.15
		c-0.03-0.01-0.14,0.08-0.13,0.1c0.03,0.09,0.08,0.18,0.13,0.27C69.89,113.04,69.99,112.97,70.09,112.89z M84.79,186.41l0.06-0.09
		l-0.09-0.02L84.79,186.41z M75.7,180.3l-0.15,0.05l0.15,0.05L75.7,180.3z M119.91,90.63c-0.04-0.04-0.08-0.12-0.11-0.12
		c-0.11,0.02-0.21,0.06-0.31,0.1c0.04,0.04,0.09,0.11,0.12,0.11C119.71,90.7,119.81,90.66,119.91,90.63z"/>
	<path class="st0" d="M83.1,69.38c1.23-1.22,2.69-1.42,4.3-1.02c1.37,0.34,2.73,0.69,4.07,1.08c2.53,0.73,4.48,2.18,6.09,3.98
		c0.83,0.93,1.62,1.92,2.26,2.96c1.08,1.74,1.91,3.57,1.87,5.61c-0.02,1.07,0.01,2.15-0.06,3.22c-0.08,1.33-0.47,2.57-1.41,3.67
		c-0.65,0.76-1.15,1.61-1.7,2.43c-1.2,1.79-2.85,3.16-4.88,4.19c-0.47,0.24-0.99,0.42-1.4,0.72c-1.51,1.1-3.34,1.57-5.14,2.04
		c-1.78,0.47-3.61,0.26-5.42-0.08c-2.83-0.53-5.34-1.65-7.67-3.12c-1.54-0.97-2.42-2.24-3.08-4.48c0.51-0.4,0.76,0.01,0.88,0.3
		c0.55,1.35,1.53,2.39,2.87,3.16c2.86,1.65,5.99,2.74,9.39,3.14c2.03,0.24,3.88-0.46,5.64-1.21c1.51-0.64,2.89-1.54,4.3-2.37
		c1.66-0.98,2.89-2.31,3.78-3.89c0.21-0.37,0.46-0.73,0.75-1.06c0.87-0.97,1.28-2.1,1.43-3.31c0.62-4.9-1.15-9.05-5.14-12.47
		c-0.53-0.45-1.17-0.82-1.83-1.11c-1.98-0.9-4.06-1.61-6.16-2.27c-0.88-0.28-1.72-0.21-2.58,0.03
		C83.93,69.65,83.54,69.95,83.1,69.38z"/>
	<path class="st0" d="M71,89.53c-0.72-0.24-0.85-0.69-0.61-1.27c0.04-0.08,0.19-0.17,0.3-0.17c0.11,0,0.27,0.06,0.33,0.14
		C71.35,88.66,71.36,89.09,71,89.53z"/>
	<path class="st0" d="M38.18,106.6c-0.3,0.95-1.1,1.38-1.76,1.81c-1.93,1.24-3.39,2.87-4.96,4.41c-0.85,0.84-1.66,1.7-2.52,2.54
		c-0.11,0.11-0.36,0.1-0.55,0.14c-0.04-0.21-0.1-0.42-0.09-0.63c0-0.1,0.14-0.2,0.22-0.29c2.01-2.22,3.87-4.56,6.4-6.37
		c0.73-0.52,1.47-1.03,2.25-1.49C37.41,106.59,37.78,106.65,38.18,106.6z"/>
</g>
</svg>
